<svg width="296" height="251" viewBox="0 0 296 251" fill="none" xmlns="http://www.w3.org/2000/svg">
    <path d="M96.082 153.269L98.0269 149.549L95.1801 151.042L95.8847 156.989L88.7255 159.863L83.2011 159.159L82.8066 162.146L85.2587 161.498L88.3309 165.303L91.1495 165.528L89.7966 167.952L92.5306 169.699L92.0515 165.528L101.691 167.022L108.202 161.526L105.13 158.933L102.959 160.455L102.198 157.017L99.8589 155.946L97.8296 157.919L98.6751 153.071L96.082 153.269Z" stroke="#52B55F"/>
    <path d="M68.2908 100.878L64.5422 100.737L62.9073 100.145L60.8216 102.174L57.4675 108.797L57.8057 111.869L61.949 112.799L63.7812 109.783L70.0384 106.373L68.2908 100.878Z" stroke="#52B55F"/>
    <path d="M115.446 81.3755L99.5771 81.0655L83.2575 82.9256L81.2 84.6729L85.5687 95.4386L91.2904 97.6932L93.2635 101.329L94.2218 104.739L89.2047 106.204L90.5576 107.247L89.5147 108.008L97.4068 112.573L108.822 106.74L107.948 100.991L113.022 95.1849L111.443 90.9575L116.207 89.9993L118.997 83.8556L118.715 82.0237L115.446 81.3755Z" stroke="#52B55F"/>
    <path d="M107.215 9.93325L100.084 7.96046L94.109 10.4405L96.3357 13.0051L95.1801 15.2033L91.2058 16.1051L84.4413 13.5405L80.9744 15.2033L89.6557 17.9088L87.8517 20.248L81.059 22.3616L83.1448 22.1925L82.7784 24.1935L84.9205 22.418L92.7843 24.0808L95.8847 21.3189L102.17 20.5862L93.9399 33.24L78.2123 31.38L79.6216 34.48L77.8176 36.1146L78.8605 40.3702L77.1975 42.4557L83.8776 44.372L87.7108 49.1349L94.6728 44.9639H98.1678L99.4362 40.652L103.241 39.891L106.144 41.9201L105.665 36.3965L110.598 37.0728L110.654 33.9164L114.008 32.5637L111.415 30.3654L112.007 27.7726L122.295 25.7153L113.078 25.9689L111.922 24.729L114.826 23.5453L109.076 22.1362L109.837 19.5433L113.191 21.037L109.442 17.2606L113.078 10.2432L110.316 12.6387L107.215 9.93325Z" stroke="#52B55F"/>
    <path d="M210.403 173.166L204.315 170.291L202.427 170.629L207.134 174.378L208.628 178.013L213.701 180.239L210.403 173.166Z" stroke="#52B55F"/>
    <path d="M12.3152 238.084C8.97364 235.856 3.49726 239.012 1.17676 240.868C2.10496 241.797 4.23982 244.21 5.35366 246.438C6.74596 249.222 10.9229 252.007 16.4921 249.222C22.0613 246.438 16.4921 240.868 12.3152 238.084Z" stroke="#52B55F"/>
    <path d="M90.284 228.338L77.7533 231.122L70.7918 232.515V229.73L83.3225 221.376L93.0686 214.415L100.03 213.022H106.992L115.345 210.238H123.699L119.522 214.415L106.992 219.984L101.422 226.945L90.284 228.338Z" stroke="#52B55F"/>
    <path d="M261.537 90.4998L260.145 86.3229L255.968 90.4998L253.183 101.638L250.399 116.954L251.791 121.13L253.183 118.346V115.561L255.968 109.992L257.36 104.423L260.145 100.246L262.929 96.069V93.2844L261.537 90.4998Z" stroke="#52B55F"/>
    <path d="M294.952 5.56948L290.775 1.39258H286.598L282.421 8.35408V13.9233H286.598H290.775L294.952 11.1387V5.56948Z" stroke="#52B55F"/>
    </svg>
    