<svg width="109" height="92" viewBox="0 0 109 92" fill="none" xmlns="http://www.w3.org/2000/svg">
    <path d="M36.526 55.6381L37.2245 54.3022L36.2021 54.8386L36.4552 56.9741L33.8842 58.0064L31.9003 57.7534L31.7586 58.8262L32.6392 58.5934L33.7425 59.9597L34.7547 60.0407L34.2688 60.911L35.2506 61.5385L35.0786 60.0407L38.5403 60.5771L40.8785 58.6035L39.7752 57.6724L38.9958 58.2189L38.7225 56.9842L37.8824 56.5996L37.1536 57.308L37.4572 55.5673L36.526 55.6381Z" />
    <path d="M26.5457 36.8236L25.1995 36.7729L24.6124 36.5604L23.8634 37.2891L22.6588 39.6675L22.7803 40.7707L24.2682 41.1047L24.9262 40.0217L27.1733 38.7971L26.5457 36.8236Z" />
    <path d="M43.4798 29.82L37.7812 29.7086L31.9205 30.3766L31.1816 31.0041L32.7505 34.8703L34.8053 35.6799L35.5138 36.9855L35.858 38.2101L34.0562 38.7364L34.5421 39.1109L34.1676 39.3841L37.0018 41.0237L41.1012 38.9287L40.7874 36.8641L42.6094 34.7792L42.0425 33.261L43.7531 32.9169L44.7552 30.7106L44.654 30.0528L43.4798 29.82Z" />
    <path d="M40.5242 4.16379L37.9633 3.45532L35.8175 4.34595L36.6171 5.26694L36.2021 6.05637L34.7749 6.38022L32.3456 5.45923L31.1006 6.05637L34.2182 7.02795L33.5704 7.86798L31.131 8.62701L31.88 8.56631L31.7484 9.28491L32.5177 8.64728L35.3417 9.24442L36.4552 8.25256L38.7124 7.98944L35.7567 12.5337L30.1087 11.8657L30.6148 12.979L29.9669 13.566L30.3415 15.0942L29.7443 15.8432L32.1432 16.5314L33.5198 18.2418L36.0199 16.7439H37.2751L37.7306 15.1954L39.097 14.9221L40.1396 15.6508L39.9675 13.6672L41.7389 13.9101L41.7591 12.7766L42.9636 12.2908L42.0324 11.5013L42.245 10.5702L45.9395 9.83139L42.6296 9.92249L42.2146 9.4772L43.2572 9.05212L41.1923 8.54608L41.4656 7.61493L42.6701 8.15134L41.3239 6.79517L42.6296 4.27509L41.6376 5.13538L40.5242 4.16379Z" />
    <path d="M77.2015 62.6421L75.0151 61.6098L74.3369 61.7312L76.0273 63.0773L76.5638 64.3829L78.3858 65.1824L77.2015 62.6421Z" />
    <path d="M6.06445 85.9553C4.86445 85.1553 2.89779 86.2887 2.06445 86.9553C2.39779 87.2887 3.16445 88.1553 3.56445 88.9553C4.06445 89.9553 5.56445 90.9553 7.56445 89.9553C9.56445 88.9553 7.56445 86.9553 6.06445 85.9553Z" />
    <path d="M34.0645 82.4553L29.5645 83.4553L27.0645 83.9553V82.9553L31.5645 79.9553L35.0645 77.4553L37.5645 76.9553H40.0645L43.0645 75.9553H46.0645L44.5645 77.4553L40.0645 79.4553L38.0645 81.9553L34.0645 82.4553Z" />
    <path d="M95.5645 32.9553L95.0645 31.4553L93.5645 32.9553L92.5645 36.9553L91.5645 42.4553L92.0645 43.9553L92.5645 42.9553V41.9553L93.5645 39.9553L94.0645 37.9553L95.0645 36.4553L96.0645 34.9553V33.9553L95.5645 32.9553Z" />
    <path d="M107.564 2.45532L106.064 0.955322H104.564L103.064 3.45532V5.45532H104.564H106.064L107.564 4.45532V2.45532Z" />
    <path d="M28.2867 44.8595L29.8657 45.5679L30.9792 48.0374L30.1896 50.4765L28.5094 51.9744L28.479 53.8569L27.234 54.5754L26.4344 54.0694L25.8372 54.0087L25.8979 52.2375L24.8047 51.691L24.9059 50.9725L23.5597 49.343L22.092 48.0677L20.9482 48.0981L22.841 45.7805L28.2867 44.8595Z" />
    <path d="M36.526 55.6381L37.2245 54.3022L36.2021 54.8386L36.4552 56.9741L33.8842 58.0064L31.9003 57.7534L31.7586 58.8262L32.6392 58.5934L33.7425 59.9597L34.7547 60.0407L34.2688 60.911L35.2506 61.5385L35.0786 60.0407L38.5403 60.5771L40.8785 58.6035L39.7752 57.6724L38.9958 58.2189L38.7225 56.9842L37.8824 56.5996L37.1536 57.308L37.4572 55.5673L36.526 55.6381Z" stroke="#52B55F"/>
    <path d="M26.5457 36.8236L25.1995 36.7729L24.6124 36.5604L23.8634 37.2891L22.6588 39.6675L22.7803 40.7707L24.2682 41.1047L24.9262 40.0217L27.1733 38.7971L26.5457 36.8236Z" stroke="#52B55F"/>
    <path d="M43.4798 29.82L37.7812 29.7086L31.9205 30.3766L31.1816 31.0041L32.7505 34.8703L34.8053 35.6799L35.5138 36.9855L35.858 38.2101L34.0562 38.7364L34.5421 39.1109L34.1676 39.3841L37.0018 41.0237L41.1012 38.9287L40.7874 36.8641L42.6094 34.7792L42.0425 33.261L43.7531 32.9169L44.7552 30.7106L44.654 30.0528L43.4798 29.82Z" stroke="#52B55F"/>
    <path d="M40.5242 4.16379L37.9633 3.45532L35.8175 4.34595L36.6171 5.26694L36.2021 6.05637L34.7749 6.38022L32.3456 5.45923L31.1006 6.05637L34.2182 7.02795L33.5704 7.86798L31.131 8.62701L31.88 8.56631L31.7484 9.28491L32.5177 8.64728L35.3417 9.24442L36.4552 8.25256L38.7124 7.98944L35.7567 12.5337L30.1087 11.8657L30.6148 12.979L29.9669 13.566L30.3415 15.0942L29.7443 15.8432L32.1432 16.5314L33.5198 18.2418L36.0199 16.7439H37.2751L37.7306 15.1954L39.097 14.9221L40.1396 15.6508L39.9675 13.6672L41.7389 13.9101L41.7591 12.7766L42.9636 12.2908L42.0324 11.5013L42.245 10.5702L45.9395 9.83139L42.6296 9.92249L42.2146 9.4772L43.2572 9.05212L41.1923 8.54608L41.4656 7.61493L42.6701 8.15134L41.3239 6.79517L42.6296 4.27509L41.6376 5.13538L40.5242 4.16379Z" stroke="#52B55F"/>
    <path d="M77.2015 62.6421L75.0151 61.6098L74.3369 61.7312L76.0273 63.0773L76.5638 64.3829L78.3858 65.1824L77.2015 62.6421Z" stroke="#52B55F"/>
    <path d="M6.06445 85.9553C4.86445 85.1553 2.89779 86.2887 2.06445 86.9553C2.39779 87.2887 3.16445 88.1553 3.56445 88.9553C4.06445 89.9553 5.56445 90.9553 7.56445 89.9553C9.56445 88.9553 7.56445 86.9553 6.06445 85.9553Z" stroke="#52B55F"/>
    <path d="M34.0645 82.4553L29.5645 83.4553L27.0645 83.9553V82.9553L31.5645 79.9553L35.0645 77.4553L37.5645 76.9553H40.0645L43.0645 75.9553H46.0645L44.5645 77.4553L40.0645 79.4553L38.0645 81.9553L34.0645 82.4553Z" stroke="#52B55F"/>
    <path d="M95.5645 32.9553L95.0645 31.4553L93.5645 32.9553L92.5645 36.9553L91.5645 42.4553L92.0645 43.9553L92.5645 42.9553V41.9553L93.5645 39.9553L94.0645 37.9553L95.0645 36.4553L96.0645 34.9553V33.9553L95.5645 32.9553Z" stroke="#52B55F"/>
    <path d="M107.564 2.45532L106.064 0.955322H104.564L103.064 3.45532V5.45532H104.564H106.064L107.564 4.45532V2.45532Z" stroke="#52B55F"/>
    <path d="M28.2867 44.8595L29.8657 45.5679L30.9792 48.0374L30.1896 50.4765L28.5094 51.9744L28.479 53.8569L27.234 54.5754L26.4344 54.0694L25.8372 54.0087L25.8979 52.2375L24.8047 51.691L24.9059 50.9725L23.5597 49.343L22.092 48.0677L20.9482 48.0981L22.841 45.7805L28.2867 44.8595Z" stroke="#52B55F"/>
    </svg>
    