<svg width="304" height="119" viewBox="0 0 304 119" fill="none" xmlns="http://www.w3.org/2000/svg">
<path d="M11.2205 10.8797L11.4137 10.6865L11.9206 11.8573L11.4074 12.3705L11.4224 12.307L11.2205 10.8797Z" fill="#BE007D"/>
<path d="M9.07792 26.5622L9.03299 26.3895L8.18409 25.7784L12.9833 20.9792L13.0002 22.64L9.07792 26.5622Z" fill="#BE007D"/>
<path d="M4.52016 42.9822L4.11012 42.645L6.1633 40.8562L5.91001 39.9147L18.7305 27.0942L20.4766 27.0258L4.52016 42.9822Z" fill="#BE007D"/>
<path d="M4.0158 55.1751L2.66113 54.8521L35.1597 22.3536L35.7605 22.5717L36.3879 22.803L4.0158 55.1751Z" fill="#BE007D"/>
<path d="M9.45283 61.6004L9.12902 61.3496L9.15183 60.2237L45.4101 23.9654L46.9763 24.0769L9.45283 61.6004Z" fill="#BE007D"/>
<path d="M21.1161 61.7993L19.8873 62.2741L19.3158 61.922L56.8656 24.3722L57.9974 24.5527L58.7612 24.1542L21.1161 61.7993Z" fill="#BE007D"/>
<path d="M34.6185 60.1591L33.9835 60.2211L33.107 61.3376L31.6781 62.058L30.8328 62.2672L64.3256 28.7744L65.3412 29.4365L34.6185 60.1591Z" fill="#BE007D"/>
<path d="M44.2389 62.401L43.1311 61.8312L72.5386 32.4237L73.6554 32.9845L44.2389 62.401Z" fill="#BE007D"/>
<path d="M54.7574 63.7448L54.4193 63.2345L53.8789 62.9456L82.0226 34.8019L81.8553 36.03L82.2148 36.2874L54.7574 63.7448Z" fill="#BE007D"/>
<path d="M64.2343 66.1301L63.8809 65.9598L62.416 67.3524L61.401 67.2857L83.5983 45.0884L84.7 45.6644L64.2343 66.1301Z" fill="#BE007D"/>
<path d="M75.9074 66.3192L75.8278 66.2599L73.7257 66.8233L95.5721 44.9769L97.1359 45.0908L75.9074 66.3192Z" fill="#BE007D"/>
<path d="M84.5676 69.5213L83.2521 69.1591L108.272 44.139L110.265 43.8242L84.5676 69.5213Z" fill="#BE007D"/>
<path d="M97.4735 68.4777L96.6602 67.6133L126.804 37.4697L128.442 37.5093L97.4735 68.4777Z" fill="#BE007D"/>
<path d="M61.6054 114.53L65.8741 110.262L67.1839 110.629L62.6212 115.192L61.6054 114.53Z" fill="#BE007D"/>
<path d="M105.091 72.7223L103.696 72.983L103.328 72.8078L138.563 37.5729L139.069 37.4226L139.833 37.9805L105.091 72.7223Z" fill="#BE007D"/>
<path d="M113.21 76.4657L112.372 75.6255L150.544 37.4538L151.526 38.1499L113.21 76.4657Z" fill="#BE007D"/>
<path d="M121.91 79.6279L120.366 79.4944L162.563 37.2973L164.111 37.4271L121.91 79.6279Z" fill="#BE007D"/>
<path d="M132.388 81.0119L131.246 80.476L166.514 45.2086L166.553 45.5143L167.074 46.326L132.388 81.0119Z" fill="#BE007D"/>
<path d="M136.229 89.0338L136.029 87.556L175.725 47.8602L177.602 47.6599L136.229 89.0338Z" fill="#BE007D"/>
<path d="M134.618 100.829L135.238 100.5L135.464 99.9831L186.704 48.7425L187.661 49.212L187.934 49.1902L134.569 102.556L133.533 102.877L133.495 101.952L134.618 100.829Z" fill="#BE007D"/>
<path d="M147.991 100.996L146.635 100.674L199.004 48.3055L200.827 48.1597L147.991 100.996Z" fill="#BE007D"/>
<path d="M159.453 101.396L158.748 101.532L157.756 101.415L206.709 52.4624L207.774 53.0749L159.453 101.396Z" fill="#BE007D"/>
<path d="M172.012 100.699L171.896 100.512L170.67 100.364L219.081 51.9526L219.335 51.8533L221.268 50.2325L222.362 50.3493L172.012 100.699Z" fill="#BE007D"/>
<path d="M185.929 98.6448L183.312 99.5841L235.093 47.8027L236.223 48.3505L185.929 98.6448Z" fill="#BE007D"/>
<path d="M203.4 93.0362L202.682 92.7801L201.44 93.3179L240.952 53.8067L241.068 54.4104L240.747 55.6887L203.4 93.0362Z" fill="#BE007D"/>
<path d="M213.872 94.4261L212.504 94.1164L239.577 67.0431L240.155 67.7125L238.51 69.5734L238.592 69.7056L213.872 94.4261Z" fill="#BE007D"/>
<path d="M228.294 91.8663L226.678 91.8046L242.299 76.1839L242.641 76.2365L244.094 75.5522L244.345 75.8149L228.294 91.8663Z" fill="#BE007D"/>
<path d="M240.222 91.8002L238.914 91.4305L261.247 69.0976L263.077 68.9457L240.222 91.8002Z" fill="#BE007D"/>
<path d="M253.01 90.8744L250.061 92.7801L249.452 92.7554L278.285 63.9222L279.082 64.0869L280.452 63.4325L253.01 90.8744Z" fill="#BE007D"/>
<path d="M267.934 87.813L267.447 87.5817L265.814 88.5661L265.539 88.5307L287.718 66.3518L288.087 66.2719L290.104 64.7712L289.913 64.1563L291.467 62.6025L291.605 62.5742L292.53 61.7218L293.298 61.3616L294.147 59.9223L297.158 56.9115L297.441 56.9916L298.461 55.719L299.746 54.7706L299.621 54.4482L300.523 53.5466L301.151 53.366L300.896 53.1732L302.719 51.3504L303.096 51.241L303.371 52.3763L303.357 52.39L302.207 53.0418L302.385 53.3624L301.442 54.305L301.259 54.3384L301.217 54.5298L267.934 87.813Z" fill="#BE007D"/>
<path d="M277.707 89.9024L276.957 89.7667L276.07 89.8613L299.753 66.1786L300.57 67.0388L277.707 89.9024Z" fill="#BE007D"/>
<path d="M299.07 80.4012L288.97 90.5011L287.261 90.5326L300.341 77.4529L300.334 77.4971L298.569 79.646L299.07 80.4012Z" fill="#BE007D"/>
<path d="M285.973 91.8212L285.662 92.1678L285.609 92.1844L285.973 91.8212Z" fill="#BE007D"/>
<path d="M244.673 50.0854L243.248 51.5102L244.334 50.9528L244.673 50.0854Z" fill="#BE007D"/>
<path d="M187.228 36.3566L188.066 35.5184L188.105 36.8463L187.228 36.3566Z" fill="#BE007D"/>
<path d="M75.2437 19.534L68.2771 26.5005L67.0264 26.0736L74.719 18.3811L75.2437 19.534Z" fill="#BE007D"/>
<path d="M67.8177 13.42L69.06 13.8554L63.6812 19.2342L63.1303 18.1075L67.8177 13.42Z" fill="#BE007D"/>
<path d="M59.9508 21.287L61.2981 19.9397L61.8156 20.4828L62.856 20.0594L59.7146 23.2009L59.9508 21.287Z" fill="#BE007D"/>
<path d="M30.5657 15.259L30.597 16.9054L25.0471 22.4553L25.4105 20.951L25.3371 20.4876L30.5657 15.259Z" fill="#BE007D"/>
<path d="M29.7518 4.21069L30.1653 4.53941L28.8205 6.76048L28.8316 6.80851L24.0073 11.6328L24.0657 11.4546L23.6984 10.2641L29.7518 4.21069Z" fill="#BE007D"/>
<path d="M61.3215 108.84L66.9648 110.424L67.2649 111.289L66.1123 112.477L65.8842 114.254L67.8773 117.604L66.8927 118.06L59.1362 113.006L57.7314 110.941L60.2649 110.845L60.6371 109.008L61.3215 108.84V108.84ZM289.706 48.5959L289.73 49.4843L288.53 50.2287L286.08 49.9886L285.696 49.3162L289.706 48.5959ZM289.346 45.5705L289.994 46.3028L289.382 47.4434L287.593 47.5515L287.581 46.1108L289.346 45.5705ZM185.258 30.9118L188.355 32.9408L187.407 33.649L187.491 36.5304L186.158 35.7861L185.378 35.1017L184.381 35.2578L181.415 34.0332L181.427 33.3729L183.589 32.1483L184.309 31.1399L185.258 30.9118ZM25.6248 1.10205L29.5511 4.22346L28.2062 6.44453L28.7706 8.8696L29.9233 13.4557L30.0553 20.407L35.1463 22.2558L37.5237 23.1322L46.4689 23.7685L48.342 24.6689L52.8926 25.1731L55.4261 23.9246L57.3832 24.2367L59.0402 23.3723L59.5084 19.5786L60.2289 19.1463L61.2014 20.1668L63.2666 19.3264L61.4056 15.5207L62.7023 14.092L64.4313 14.6203L64.6715 13.6238L67.1449 13.0836L72.7281 15.0405L75.5858 21.3193L73.7967 23.7685L73.4846 26.0976L72.3199 25.9175L71.5514 26.5298L71.8156 27.2501L70.8551 27.2741L65.3679 25.4012L62.7743 25.2932L60.6251 26.5898L60.6011 27.5383L62.3181 27.5502L66.6646 30.3836L70.1827 30.2875L71.4794 31.8843L74.157 33.2289L75.6939 33.1688L76.3302 31.5001L77.675 31.8602L79.9804 29.8073L81.6613 32.6286L81.2411 35.714L82.2136 36.4103L81.9615 44.2379L84.3269 45.4745L91.0028 46.1228L92.9239 45.8827L94.4248 44.6221L98.0509 44.8862L99.0955 43.6377L102.193 43.6497L103.178 44.334L104.222 44.0339H106.324L112.327 43.0854L119.627 40.6843L123.746 37.0946L128.212 37.2027L129.341 36.0622L133.255 36.3863L136.677 37.6349L138.454 37.1066L139.655 37.983L142.032 38.5833L143.701 38.7034L148.048 38.3912L148.324 36.9626L149.429 36.7825L152.815 39.1836L155.036 38.6794L156.873 39.3276L157.882 38.5953L158.83 36.6504L160.571 37.971L161.868 36.9746L163.729 37.1307L163.681 38.9915L164.606 39.8919L166.443 39.0756L166.947 40.6243L165.674 43.1094L165.938 45.1984L167.319 47.3474L171.666 47.9116L177.969 47.2393L178.161 46.555L181.643 46.9992L182.376 48.704L185.702 48.2358L187.047 48.8961L201.767 47.7196L203.184 47.9716L203.472 49.6764L204.973 51.5013L209.127 53.8904L214.146 53.3261L218.721 51.5373L220.654 49.9165L223.464 50.2167L225.253 48.8L232.805 46.675L235.999 48.2238L240.117 47.6715L242.975 48.2358L244.944 47.5034L243.72 50.6369L240.141 52.4737L240.454 54.0945L239.553 57.6841L240.886 58.6566L240.634 60.3493L241.498 61.85L238.713 63.4468L238.557 66.2561L239.541 67.3966L237.896 69.2575L239.649 72.0788L239.973 75.3083L240.778 75.7284L242.026 75.9206L243.479 75.2362L244.584 76.3887L248.534 77.9134L250.587 76.6168L253.061 71.8627L253.925 71.3944L254.706 72.4149L257.972 69.8817L258.176 67.7568L260.541 68.7893L263.579 68.5371L265.5 65.9799L266.617 66.7603L269.378 66.2201L270.243 65.4037L269.895 64.5633L272.2 62.3423L275.85 62.1742L276.667 63.3988L278.468 63.771L281.409 62.3663L282.01 63.0026L280.977 64.9715L281.349 65.5718L284.195 66.6643L287.473 65.956L289.49 64.4553L288.938 62.6784L290.991 62.2583L291.916 61.4058L292.684 61.0457L293.789 59.1728L293.356 57.396L294.389 56.3635L294.785 55.7393L295.83 55.331L296.022 56.4475L296.826 56.6756L297.847 55.4031L299.132 54.4547L298.784 53.5542L300.537 53.05L299.696 52.4137L299.588 51.7654L302.482 50.925L302.758 52.0656L301.593 52.7259L302.157 53.7463L300.645 54.0225L300.212 56.0154L297.751 57.516L299.06 61.838L298.303 64.9835L300.597 67.3966L301.965 67.6367L303.394 66.2561L303.454 68.4891L302.446 69.6176L299.612 70.1339L299.144 72.3909L300.152 74.3358L299.72 77.1811L297.955 79.3301L298.808 80.6147L296.094 83.7721L294.509 87.77L293.188 87.4579L292 89.2707L290.427 90.1471L286.512 90.2191L285.048 91.8519L281.686 92.9204L279.74 92.6683L279.921 91.2516L278.864 89.907L276.342 89.4507L273.305 89.7749L272.428 90.5433L271.384 89.5588L269.655 89.8229L269.234 88.4063L266.833 87.2658L265.2 88.2502L262.21 87.8661L252.773 90.3152L249.447 92.4641L245.004 92.2841L242.219 91.0955L240.994 91.8759L235.939 90.4472L233.057 91.7559L225.829 91.4797L220.462 93.8808L218.133 93.5327L215.851 94.6972L210.388 93.4606L206.51 94.0489L202.067 92.4641L197.024 94.6492L192.041 94.409L190.961 96.378L188.187 97.9027L187.539 97.5305L182.388 99.3793L181.679 98.2988L176.432 98.3469L171.834 101.084L171.281 100.196L167.703 99.7635L166.383 99.7155L164.75 100.952L163.369 101.468L159.755 100.904L158.134 101.216L156.609 101.036L155.132 101.072L152.983 102.009L144.422 99.9796L141.384 100.496L139.427 102.261L137.338 102.369L135.489 102.609L134.468 102.081L132.919 102.561L132.859 101.12L134.624 100.184L135.285 98.6711L134.876 97.3865L134.768 96.3659L134.084 93.3525L134.6 91.7318L135.897 90.8074L135.14 85.2128L133.519 81.5151L128.813 79.3061L128.308 79.9183L119.423 79.15L117.61 79.6063L115.941 78.5257L114.176 79.138L113.624 77.1811L109.95 73.4954L105.459 72.2228L103.082 72.667L99.3476 70.8902L98.8313 69.5216L97.0543 68.369L95.7215 66.9524L93.2481 67.1325L91.8553 68.4171L88.8655 67.4447L84.579 69.3775L80.7848 68.333L78.7917 68.6092L75.2136 65.944L70.5549 67.1925L68.9099 66.7603L68.3216 65.7518L64.6114 66.2921L63.2666 65.6438L61.8018 67.0364L59.4244 66.8804L57.3832 66.6042L55.6902 65.7638L53.8051 62.9185L52.4123 62.1742L48.9063 62.1382L45.6884 63.1466L41.534 61.0096L39.805 61.3818L35.3384 59.7131L33.3693 59.9051L32.4927 61.0216L31.0639 61.742L28.6385 62.3423L27.774 60.9736L21.9146 60.9376L19.2731 61.9581L17.9283 61.1297L15.6109 61.3699L14.6264 61.67L12.6933 62.0661L10.3999 61.4058L9.73955 61.9821L8.51481 61.0337L8.57487 58.0683L4.60053 56.8197L3.56794 54.8989L2.00705 54.5267L1.55078 52.3296L2.75148 51.3812L3.35183 50.6369L5.29695 50.0846L5.21289 49.1962L3.27979 47.9477L4.22831 46.531L3.49591 44.9582L4.24033 42.9413L3.49591 42.329L5.54909 40.5402L4.99678 38.4873L7.50623 36.5304L7.62631 33.6611L6.50967 33.517L5.99334 32.1604L6.13746 30.8758L7.11002 30.5396L8.80297 27.5502L8.41877 26.0735L7.21808 25.2092L7.49421 23.4684L8.17862 20.2028L9.28328 18.354L8.92305 16.5772L8.56285 15.4967L8.49081 14.5842L10.0037 15.4126L10.8082 11.9911L10.472 9.61393L12.0209 13.1916L11.0963 14.5002L11.4926 17.5976L12.345 18.306L12.4051 24.2007L14.0741 24.9811L15.1787 25.7974L16.7996 26.8299L20.4738 26.6858L23.5956 25.6053L24.7963 20.6351L24.268 17.2975L22.539 13.924L23.4515 11.1387L22.4069 7.75309L22.7071 5.8562L25.6248 1.10205V1.10205Z" stroke="#BE007D"/>
</svg>
