<svg width="218" height="227" viewBox="0 0 218 227" fill="none" xmlns="http://www.w3.org/2000/svg">
<path d="M65.6622 12.4307L76.2123 1.88062L75.5178 3.67963L75.8286 3.94193L65.9614 13.8091L65.6622 12.4307Z" fill="#2C216F"/>
<path d="M20.0303 58.0626L32.8914 45.2015L33.1932 45.3268L33.72 46.0506L21.26 58.5106L20.0303 58.0626Z" fill="#2C216F"/>
<path d="M73.1238 18.509L72.4921 18.7346L71.9588 17.9963L80.0535 9.90161L80.7425 10.8903L73.1238 18.509Z" fill="#2C216F"/>
<path d="M77.946 25.5491L77.583 25.4937L76.7426 26.202L76.9847 24.8327L87.1643 14.6531L88.9748 14.5202L77.946 25.5491Z" fill="#2C216F"/>
<path d="M33.105 80.5747L37.045 76.6346L36.9875 76.8534L38.3306 77.0267L33.5183 81.839L33.0252 81.1874L33.8416 80.7072L33.105 80.5747Z" fill="#2C216F"/>
<path d="M31.1579 94.384L31.4282 94.3814L31.3719 94.17L40.3699 85.172L40.3855 85.4974L38.7165 88.4267L38.7209 88.4986L31.5987 95.6208L30.4557 95.9542L30.3157 95.2262L31.1579 94.384Z" fill="#2C216F"/>
<path d="M71.0041 56.2154L70.7491 56.4704L69.4855 56.0564L70.3347 55.2072L71.0041 56.2154Z" fill="#2C216F"/>
<path d="M94.2583 43.1458L94.633 44.3304L93.5403 44.3184L93.2905 44.1136L94.2583 43.1458Z" fill="#2C216F"/>
<path d="M94.525 32.6945L89.212 38.0075L88.6585 36.8834L93.9993 31.5426L93.6724 32.529L94.525 32.6945Z" fill="#2C216F"/>
<path d="M93.3328 20.3469L93.1376 20.5421L93.3482 20.4634L93.3328 20.3469Z" fill="#2C216F"/>
<path d="M92.0325 21.6471L91.7273 22.7084L92.6383 22.719L83.7439 31.6134L82.662 31.7246L82.5387 31.141L92.0325 21.6471Z" fill="#2C216F"/>
<path d="M43.1887 82.3532L41.8134 83.7285L41.9223 84.2248L43.1951 83.1083L43.1887 82.3532Z" fill="#2C216F"/>
<path d="M98.7469 50.5195L104.054 45.2121L104.755 45.687L104.686 46.2576L99.5947 51.3493L98.7469 50.5195Z" fill="#2C216F"/>
<path d="M42.9887 119.818L41.255 119.874L48.6495 112.479L47.5776 114.779L47.8865 114.92L42.9887 119.818Z" fill="#2C216F"/>
<path d="M89.2459 85.4226L85.5797 87.5863L85.6521 87.3388L94.0197 78.9712L94.5987 80.0698L89.2459 85.4226Z" fill="#2C216F"/>
<path d="M121.881 64.6493L121.841 64.6318L119.08 65.7732L124.046 60.8073L123.642 61.5823L123.804 62.727L121.881 64.6493Z" fill="#2C216F"/>
<path d="M122.313 52.3552L112.305 62.3631L111.083 62.4828L110.802 62.1888L121.275 51.716L122.313 52.3552Z" fill="#2C216F"/>
<path d="M111.974 49.1547L112.694 50.1124L105.957 56.8496L105.523 56.588L105.112 56.0163L111.974 49.1547Z" fill="#2C216F"/>
<path d="M87.3673 73.7613L91.7648 69.3638L92.4704 70.3358L87.9131 74.8932L87.897 74.6684L87.4288 74.1401L87.3673 73.7613Z" fill="#2C216F"/>
<path d="M84.1652 78.6411L84.0572 78.749L83.9588 78.6902L84.1652 78.6411Z" fill="#2C216F"/>
<path d="M41.414 109.53L40.7696 109.292L39.9172 110.853L38.5604 111.333L38.722 112.222L41.414 109.53Z" fill="#2C216F"/>
<path d="M37.8837 113.06L37.3697 113.574L37.2636 113.434L37.8837 113.06Z" fill="#2C216F"/>
<path d="M61.7143 135.001L63.8229 132.892L63.9671 133.051L65.4176 132.975L62.4223 135.971L62.6824 135.62L61.7143 135.001Z" fill="#2C216F"/>
<path d="M48.4469 160.131L50.9627 157.615L51.5879 157.507L52.3804 157.495L52.475 157.78L47.1661 163.089L47.1376 161.44L48.3627 160.215L48.3941 160.208L48.4469 160.131Z" fill="#2C216F"/>
<path d="M36.6463 171.931L38.9778 169.6L40.1091 170.146L37.3689 172.886L36.6463 171.931Z" fill="#2C216F"/>
<path d="M25.6942 182.883L33.497 175.081L34.2054 176.05L26.8461 183.409L25.857 183.907L25.6942 182.883Z" fill="#2C216F"/>
<path d="M41.116 181.001L41.0458 180.905L39.7162 180.724L48.9987 171.441L49.2826 171.673L49.0065 172.958L49.0466 173.071L41.116 181.001Z" fill="#2C216F"/>
<path d="M57.3305 164.787L56.5554 165.562L57.2792 164.782L57.3305 164.787Z" fill="#2C216F"/>
<path d="M142.113 80.0045L141.61 80.5074L140.725 79.7148L147.832 72.6081L148.664 72.4954L148.599 73.518L145.284 76.8338L144.498 76.9254L144.65 77.4679L144.064 78.0532L144.018 78.0539L144.028 78.0899L143.622 78.4959L142.493 78.246L142.113 80.0045Z" fill="#2C216F"/>
<path d="M134.181 74.3962L137.729 70.8491L137.762 72.3153L137.841 72.414L134.348 75.9069L134.181 74.3962Z" fill="#2C216F"/>
<path d="M122.165 86.4129L125.759 82.8188L126.307 82.484L126.536 83.6485L126.511 83.7446L124.834 85.4212L124.746 84.633L124.002 86.2177L122.381 87.0701L122.165 86.4129Z" fill="#2C216F"/>
<path d="M70.6318 137.946L64.2252 144.352L64.4834 145.525L64.7255 145.53L71.2811 138.974L70.6318 137.946Z" fill="#2C216F"/>
<path d="M128.823 81.4326L127.211 83.0441L127.196 82.8682L127.82 81.0553L128.373 81.4995L128.877 80.9233L128.823 81.4326Z" fill="#2C216F"/>
<path d="M139.567 80.8724L139.611 80.8873L139.76 80.6794L139.567 80.8724Z" fill="#2C216F"/>
<path d="M131.518 78.737L131.182 78.3301L131.891 77.1655L132.486 77.7691L131.518 78.737Z" fill="#2C216F"/>
<path d="M139.818 70.4377L139.779 70.1663L140.56 69.578L140.67 69.5852L139.818 70.4377Z" fill="#2C216F"/>
<path d="M126.562 117.602L127.407 116.758L127.46 116.94L129.045 116.124L129.432 116.41L127.826 118.016L127.832 117.936L126.562 117.602Z" fill="#2C216F"/>
<path d="M109.606 134.559L124.695 119.469L124.758 119.437L126.192 119.65L110.246 135.596L109.606 134.559Z" fill="#2C216F"/>
<path d="M103.506 140.659L106.975 137.19L106.844 138.79L105.442 140.4L103.948 141.893L103.506 140.659Z" fill="#2C216F"/>
<path d="M118.008 139.697L116.572 139.455L128.209 127.818L128.721 128.357L127.232 128.933L128.119 129.586L118.008 139.697Z" fill="#2C216F"/>
<path d="M127.014 118.828L127.104 118.738L126.992 118.705L127.014 118.828Z" fill="#2C216F"/>
<path d="M138.248 129.64L157.655 110.234L157.872 111.694L139.024 130.543L138.248 129.64Z" fill="#2C216F"/>
<path d="M83.1548 184.734L85.5268 182.362L86.3997 183.167L83.846 185.72L83.8267 185.72L83.1548 184.734Z" fill="#2C216F"/>
<path d="M90.8638 190.565L89.8782 190.39L89.6198 190.131L93.0038 186.747L93.6732 187.756L93.4716 187.957L93.0961 188.193L93.1622 188.267L90.8638 190.565Z" fill="#2C216F"/>
<path d="M106.339 185.274L116.977 174.636L118.31 174.981L108.729 184.562L107.504 185.299L106.339 185.274Z" fill="#2C216F"/>
<path d="M145.961 147.33L145.302 147.05L145.627 146.365L145.386 146.228L161.478 130.135L161.278 132.013L145.961 147.33Z" fill="#2C216F"/>
<path d="M162.694 118.734L141.738 139.69L141.556 139.51L140.368 139.774L140.486 139.266L162.309 117.442L162.694 118.734Z" fill="#2C216F"/>
<path d="M182.827 120.474L183.046 120.256L184.026 120.954L183.388 121.592L182.827 120.474Z" fill="#2C216F"/>
<path d="M148.176 155.125L149.274 154.028L149.937 153.833L150.057 154.805L150.028 154.952L144.869 160.11L143.718 159.8L143.754 159.548L144.655 158.647L145.41 158.731L145.552 157.749L146.855 156.447L147.512 156.282L148.176 155.125Z" fill="#2C216F"/>
<path d="M128.285 175.016L134.088 169.214L134.004 169.416L135.229 169.428L135.397 169.583L130.16 174.82L128.285 175.016Z" fill="#2C216F"/>
<path d="M135.16 181.682L134.928 180.713L134.518 180.646L141.355 173.809L142.074 174.768L141.654 175.188L140.56 175.719L139.996 176.845L135.16 181.682Z" fill="#2C216F"/>
<path d="M167.851 148.991L167.767 148.983L167.593 149.248L167.851 148.991Z" fill="#2C216F"/>
<path d="M166.175 150.667L164.227 152.614L164.177 151.384L164.982 150.615L166.175 150.667Z" fill="#2C216F"/>
<path d="M186.394 118.585L186.294 118.501L186.225 118.754L186.394 118.585Z" fill="#2C216F"/>
<path d="M171.078 157.626L170.291 158.413L169.737 157.495L170.637 157.122L171.078 157.626Z" fill="#2C216F"/>
<path d="M171.848 156.856L171.295 157.409L171.31 156.894L171.848 156.856Z" fill="#2C216F"/>
<path d="M201.924 148.827L204.042 146.709L204.077 146.762L204.737 146.077L206.202 146.226L203.146 149.282L201.924 148.827Z" fill="#2C216F"/>
<path d="M191.476 159.275L196.152 154.599L196.824 154.517L199.562 152.866L184.611 167.817L183.05 167.701L189.135 161.616L189.5 161.288L190.076 162.057L190.761 161.156L190.396 160.354L191.159 159.592L192.154 159.488L191.476 159.275Z" fill="#2C216F"/>
<path d="M141.839 208.911L143.939 206.812L144.114 206.861L144.594 207.834L143.316 209.113L143.033 208.83L141.839 208.911Z" fill="#2C216F"/>
<path d="M135.621 215.129L136.463 214.288L136.753 215.637L135.621 215.129Z" fill="#2C216F"/>
<path d="M139.389 223.224L140.967 221.646L142.48 221.81L140.213 224.077L140.211 224.077L139.389 223.224Z" fill="#2C216F"/>
<path d="M214.667 149.624L213.446 150.844L212.426 150.187L213.65 148.963L214.667 149.624Z" fill="#2C216F"/>
<path d="M207.479 144.949L207.33 144.853L206.478 144.937L206.644 145.784L207.479 144.949Z" fill="#2C216F"/>
<path d="M149.115 213.498L149.89 214.401L144.39 219.901L145.543 217.69L145.304 217.309L149.115 213.498Z" fill="#2C216F"/>
<path d="M178.722 219.478L181.707 216.493L181.924 216.814L182.617 217.26L177.8 222.077L177.289 221.172L178.722 219.478Z" fill="#2C216F"/>
<path d="M188.306 223.434L187.423 222.961L186.945 223.117L188.241 221.821L188.371 222.18L189.432 222.307L188.306 223.434Z" fill="#2C216F"/>
<path d="M181.309 216.499L187.181 220.28L187.757 221.865L190.567 222.201L190.687 222.897L189.162 223.906L186.809 222.645L182.294 224.122L177.827 222.897L176.675 220.857L180.889 215.874L181.309 216.499ZM140.318 214.734L142.347 215.262L141.915 216.871L140.798 217.375L139.705 216.102L140.318 214.734ZM136.764 211.264L135.455 212.141L136.139 215.322L133.089 213.953L134.494 208.863L135.119 208.635L135.227 209.583L136.403 209.908L136.764 211.264ZM144.436 208.443L150.8 215.862L150.091 220.568L150.56 221.829L145.841 225.647L143.319 223.726L139.597 223.762L138.348 222.465L137.4 222.933L136.259 222.213L137.532 221.025L142.731 221.589L144.928 217.375L144.1 216.054L143.944 213.185L142.803 212.429L143.788 210.556L143.259 209.355L142.419 208.515L138.18 208.803L137.856 206.87L139.981 205.549L143.499 206.546L144.436 208.443ZM83.9448 181.154L88.1113 184.996L89.408 185.356L90.3565 184.744L92.1456 186.064L93.0941 187.493L92.4818 187.877L93.8266 189.378L92.5058 190.651L89.2639 190.074L86.9226 187.733L86.7665 185.572L83.2124 185.404L80.667 181.67L82.9243 180.638L83.9448 181.154ZM116.28 174.299L117.949 174.731L117.132 175.331L117.42 176.472L114.995 178.357L114.659 179.75L113.614 179.666L112.173 181.802L106.89 184.984L104.657 184.936L105.557 182.535L107.19 181.046L108.271 177.469L113.086 174.491L116.28 174.299ZM36.9015 166.591L36.5413 168.404L41.14 170.625L45.1503 168.596L45.5945 167.12L46.5791 167.672L47.1555 167L47.5157 167.96L49.3287 168.524L47.8158 170.661L48.6683 171.358L48.3922 172.642L49.5929 176.028L48.7524 178.621L47.4076 180.362L46.2069 179.677L45.4625 180.458L44.2618 180.314L43.6854 181.286L42.3046 180.95L41.4401 181.971L40.4315 180.59L38.4984 180.326L37.4298 181.742L36.7214 181.31L35.0044 182.283L34.1159 181.815L27.1758 182.619L25.2427 183.591L24.8225 180.95L26.3834 179.113L25.5549 177.661L26.9357 175.632L25.687 174.215L27.3079 173.315L26.7436 172.342L27.6081 171.286L27.0197 170.973L28.7007 169.509L30.6578 172.174L33.2034 171.37L33.5155 172.954L32.7351 174.563L33.8757 176.124L36.3972 176.1L37.4658 177.637L40.8638 176.364L41.212 175.452L39.8312 173.183L37.4898 173.543L34.356 169.401L35.0764 168.981L34.8483 166.82L36.9015 166.591ZM57.8777 164.587L61.6719 165.643L62.2962 169.053L61.3717 169.941L60.075 170.493L56.9171 168.945L55.7404 165.463L56.665 164.467L57.8777 164.587ZM131.553 164.406L134.062 167.48L133.39 169.101L134.614 169.113L135.995 170.385L137.292 170.121L137.436 171.442L139.813 172.258L141.578 174.611L139.945 175.404L139.165 176.964L140.017 177.997L140.558 180.278L140.246 181.454L139.693 182.751L137.712 181.815L136.523 184.156L134.77 182.307L134.314 180.398L133.366 180.242L132.753 179.545L129.427 175.644L129.787 174.479L126.81 174.791L126.137 174.455L125.813 172.858L126.606 170.253L126.113 167.156L127.494 164.947L131.553 164.406ZM16.9579 162.582L17.7864 162.546L18.1346 164.022L16.7418 167.18L15.469 165.475L14.5445 165.439L14.2563 162.906L16.2975 162.161L16.9579 162.582ZM170.959 157.875L170.107 158.812L169.122 157.179L170.023 156.807L170.959 157.875ZM50.9737 157.191L51.7661 157.179L52.3425 158.92H53.9634L54.2276 157.791L55.7164 159.4L54.6238 159.928L53.9994 163.998L52.5466 165.727L48.6924 166.64L47.5037 165.019L47.8399 163.866L46.5551 162.966L46.5071 160.181L47.7798 159.892L49.4488 157.455L50.9737 157.191ZM171.884 156.495L172.869 156.963L172.484 157.695L170.671 157.419L170.695 156.579L171.884 156.495ZM149.443 154.49L149.107 156.171L149.983 156.147L149.503 159.52L148.11 159.508L146.933 160.517L143.103 159.484L143.283 158.248L144.796 158.416L145.084 156.423L146.897 155.967L148.098 153.878L149.323 153.517L149.443 154.49ZM196.414 150.996L197.615 151.657L196.486 152.485L193.665 151.392L196.414 150.996ZM154.978 150.816L155.735 154.25L156.011 154.754L156.755 155.342L156.167 156.015L154.882 155.21L154.666 154.79L153.85 154.946L153.189 153.337L152.385 153.998L152.024 153.097L152.685 151.801L153.117 151.188L154.978 150.816ZM168.258 148.775L170.575 149.616L170.671 151.26L171.836 151.368L171.62 153.169L168.642 152.485L168.294 153.133L166.373 151.813L163.623 152.545L163.563 151.068L164.368 150.3L166.037 150.372L167.153 148.667L168.258 148.775ZM162.639 146.746L162.326 147.719L160.705 148.199L159.901 150.24L159.337 149.568L157.788 149.64L159.661 147.671H160.874L162.314 146.266L162.639 146.746ZM206.716 144.537L215.373 150.168L212.924 150.588L211.339 149.568L206.632 150.468L204.843 152.221L204.111 151.885L200.761 155.426L199.092 155.883L198.131 157.755L196.426 158.692L195.598 161.129L191.455 164.755L188.43 165.427L187.337 164.983L184.515 167.54L181.598 167.324L178.716 165.535L178.092 163.59L179.785 164.587L181.478 161.897L182.342 162.233L182.75 161.213L184.791 162.149L185.356 161.285L187.601 162.125L188.886 160.973L189.462 161.741L190.147 160.841L189.486 159.388L191.539 159.172L188.586 158.248L189.258 156.291L190.171 156.111L191.023 155.45L191.407 155.414L192.476 155.498L193.436 154.538L196.21 154.202L200.112 151.849L203.498 149.328L201.085 148.427L201.565 147.251L203.126 145.942L203.462 146.446L204.123 145.762L206.128 145.966L205.864 144.621L206.716 144.537ZM164.752 142.965L165.796 143.421L165.1 143.697L165.472 144.825L163.803 145.81L162.254 145.606L161.642 144.285L162.29 143.157L164.752 142.965ZM97.4647 139.891L98.3532 140.527L99.9742 139.807L101.919 141.164L100.07 142.424L99.2537 141.932L97.3566 142.869L95.6757 141.08L96.9004 139.351L97.4647 139.891ZM59.6067 130.623L62.0561 131.307L63.3529 132.736L65.6462 132.616L66.8349 133.372L68.0716 136.061L70.0047 137.61L72.8624 142.136L72.9464 142.929L71.8899 144.309L71.3495 143.589L70.1848 145.894L68.8761 145.414L69.0922 146.77L66.4987 149.208L64.3134 145.966L65.1059 145.234L63.8692 145.21L63.2928 142.592L63.9172 142.028L63.2328 140.936L62.3203 141.128L62.6565 139.867L61.3837 138.919L63.6651 137.118L61.1676 136.518L62.0681 135.305L60.8674 134.537L61.1916 133.036L59.1144 132.484L59.3546 131.451L59.6067 130.623ZM106.722 129.686L108.043 130.227L106.77 131.847L106.23 138.475L104.693 140.239L106.434 143.337L105.93 144.429L104.201 142.052H103.504L102.82 140.143L100.935 139.675L99.8781 138.318L100.971 138.102L100.43 134.849L103.168 133.48L104.033 131.211L106.302 130.719L106.122 129.843L106.722 129.686ZM187.793 118.761L186.436 119.506L187.649 121.235L188.85 121.391L187.613 124.44L185.596 124.2L184.888 123.168L184.167 124.056L181.922 119.578L183.963 121.03L185.068 120.442L185.68 118.185L186.472 118.857L187.649 118.077L187.793 118.761ZM122.607 115.94L123.652 116.841L123.34 117.309L122.631 117.021L122.031 118.557L120.938 119.158L122.091 120.166L124.144 119.122L126.57 119.482L126.378 118.389L127.134 118.617L127.218 117.621L125.849 117.261L126.582 115.724L126.846 116.624L128.431 115.808L129.812 116.829L128.082 118.413L128.875 119.29L127.326 121.03L126.606 123.083L127.122 123.708L125.633 125.436L128.107 128.042L126.618 128.618L127.89 129.554L125.597 131.811L124.612 135.173L123.556 135.089L121.851 137.478L120.83 137.154L118.069 139.495L115.715 139.099L115.127 138.15L113.566 138.378L112.365 136.482L110.936 137.394L108.787 133.912L108.739 131.703L109.82 130.443L109.724 127.73L114.983 124.26L114.671 123.528L114.046 123.96L113.242 123.215L112.545 124.092L112.269 123.564L115.151 119.986L119.509 118.149L120.278 116.913L121.803 116.648L121.767 116.12L122.403 115.352L122.607 115.94ZM156.215 109.301L157.031 109.853L157.295 111.63L158.508 111.858L159 113.239L159.817 113.347L161.546 116.624L162.711 120.538L161.906 124.44L163.647 124.8L161.246 126.229L160.501 133.228L159.529 134.201L157.452 142.004L156.575 142.58L156.179 141.872L152.961 142.352L152.913 142.953L150.992 143.373L150.391 145.534L148.879 144.813L146.525 147.515L144.688 146.734L145.012 146.05L143.836 145.378L143.884 140.612L142.011 140.251L140.942 139.195L139.753 139.459L140.33 136.974L137.304 132.904L138.108 132.628L138.853 130.743L136.211 127.67L135.911 126.313L134.074 125.965L135.227 123.756L137.064 124.572L138.168 124.02L138.565 122.087L138.048 121.511L140.63 120.478L142.611 117.981L145.373 117.717L148.014 116.096L151.424 110.79L155.699 108.881L156.215 109.301ZM44.2137 108.473L45.9908 108.269L45.9067 108.941L47.9359 109.997L48.1761 111.198L48.116 111.99L46.9633 114.463L48.2001 115.028L48.14 118.545L47.2155 118.329L46.7952 116.42L46.0748 116.528L46.1349 120.058L43.7335 121.487L43.6374 120.922L42.7489 121.127L43.7455 119.458L40.0353 119.578L40.1674 117.609L39.2549 117.777L38.7866 119.074L37.4778 119.038L36.1691 118.857L35.1125 119.77L35.0644 118.401L36.8895 117.285L35.7008 114.956L37.5499 114.307L36.6494 113.119L38.1622 112.206L37.9461 111.018L39.3029 110.538L40.1554 108.977L41.8484 109.601L41.7763 108.305L42.8089 108.221L43.6854 107.848L44.2137 108.473ZM128.203 81.1721L128.082 85.0379L126.882 86.0223L126.582 82.5528L127.206 80.7399L127.758 81.1841L128.263 80.6079L128.203 81.1721ZM122.043 76.9222L124.084 79.5394L123.412 82.3126L123.844 83.2971L125.693 82.1686L125.921 83.3331L125.333 85.6021L124.228 85.182L124.132 84.3176L123.388 85.9023L121.767 86.7547L121.443 85.7702L123.472 83.033L122.643 81.8564L121.407 82.4927L121.203 80.4758L119.75 79.5633L119.606 77.9906L120.554 77.8346L120.722 78.6989L121.731 78.9391L122.043 76.9222ZM151.112 74.377L151.076 76.61L150.271 76.7061L149.743 75.2054L151.112 74.377ZM37.754 71.2916L36.3732 76.538L38.2343 76.7781L37.9581 78.3988L40.8758 78.5309L42.5688 81.3642L42.5808 82.7928L41.3081 83.9094L40.9839 82.4327L40.3235 83.213L39.6511 82.6728L39.7712 85.182L38.1022 88.1113L38.1862 89.4799L36.9375 89.4679L36.8415 91.0767L35.5807 91.3648L35.6528 92.1692L33.8397 93.1776L33.2994 94.6303L29.8414 95.6387L29.5412 94.078L30.8139 94.066L30.0815 91.3168L31.2342 91.0046V88.7116L31.7145 87.9792L33.5035 86.7787L32.1948 85.206L32.4469 83.189L32.531 82.3126L33.4195 82.2046L32.4109 80.872L33.2274 80.3917L31.5584 80.0916L31.4263 80.7279L29.9134 80.8119L29.7573 79.2512L33.5876 73.7407L36.2771 71.4837L37.754 71.2916ZM135.563 68.7584L137.088 69.3707L137.148 71.9999L138.709 73.9448L139.609 72.9963L139.165 69.8509L139.945 69.2626L141.806 69.3827L142.563 71.4236L144.616 71.1235L144.592 72.6482L148.05 72.18L147.798 76.1538L143.884 76.61L144.196 77.7265L143.403 77.7385L143.56 78.3028L141.879 77.9306L141.326 80.4878L139.945 79.2512L138.997 80.5718L138.012 80.2357L137.952 81.2561L136.523 80.992L135.899 81.8324L135.611 80.6198L134.71 80.2117L134.578 81.004L133.954 80.872L132.993 79.2752L132.369 81.5203L131.24 82.0245L131.877 79.5994L130.568 78.0147L131.276 76.8501L133.041 78.6389L133.75 75.7336L133.51 73.5606L131.576 72.6362L131.432 70.9434L131.841 69.8389L135.563 68.7584ZM85.878 66.7655L86.4543 67.5098L90.7048 68.4342L92.3257 70.6673L92.9021 74.5331L92.0616 76.4899L91.3411 77.8466L91.7494 78.4108L93.1182 78.1107L95.2314 82.1205L93.2383 83.009L92.5779 84.4856L91.5212 84.4016L89.1559 84.7978L84.9654 87.2709L85.5658 85.218L84.6773 83.9934L85.5058 84.0174L85.7099 83.189L85.2416 82.5647L82.516 82.6488L83.1764 80.1636L84.9534 79.3353L83.3445 78.3748L85.6138 77.8346L86.2622 76.0338H87.4028L87.2828 74.353L86.8145 73.8247L86.5984 72.4921L87.5349 72.4561L86.7425 71.5197L87.4389 69.6708L86.5624 68.7224L85.6859 68.9985L84.7974 67.2577L85.878 66.7655ZM69.9807 50.7381L70.5931 50.9422L69.7046 54.868L70.6771 56.3327L64.2654 54.2317L66.3906 52.5749L66.5587 51.0022L69.9807 50.7381ZM97.5007 45.0474L98.1731 46.5121L98.7495 44.8313L99.9381 45.5997L101.331 44.8073L101.907 45.8999L103.432 44.8914L104.141 45.3716L103.997 46.5722L104.849 46.9203L103.576 48.1089L104.561 48.8292L106.194 48.6251L107.25 48.9492L108.187 48.6251L110.828 48.1329L112.101 49.8257L112.858 49.5135L113.758 50.654L114.479 50.7381L114.262 49.5135L116.628 50.3899L117.985 49.7536L123.076 52.887L123.868 53.8115L125.537 53.7635L125.681 56.1766L123.028 61.2669L123.364 63.644L122.031 64.6645L121.226 64.3163L118.381 65.4929L117.204 64.5684L115.691 64.6525L113.29 61.8912L110.468 62.1673L109.724 61.387L110.348 59.4421L109.22 59.0939L109.208 58.1095L107.394 57.9654L107.346 57.137L106.182 57.041L104.909 56.2726L102.76 53.2833L101.415 53.2712L101.343 52.3228L99.782 51.8186L95.2194 47.3525L95.3035 45.5877L96.3841 44.6153L97.5007 45.0474ZM28.1004 43.7629L28.0403 45.0355L29.3131 43.6548L32.579 45.0114L34.6322 47.8327L34.5601 48.9973L33.5515 48.9613L33.8877 50.0057L32.8912 52.851L28.8688 58.7578L25.2307 61.519L23.5377 64.3764L20.3319 65.757L19.8636 61.6511L20.7401 58.2295L19.0591 57.6172L19.4314 55.6123L20.2959 55.2642L19.2753 54.0756L20.7041 52.0467L20.3799 51.4344L20.7281 50.7621L21.6526 49.8857L22.253 47.1724L23.3576 46.6682L24.4983 47.3045L25.795 46.1399L24.2461 46.128L25.5549 44.1711L27.1158 44.2311L28.2085 43.2946L28.1004 43.7629ZM75.696 1.31128L74.9036 3.36422L75.8281 4.1446L75.7441 5.11705L79.9465 6.29357L79.3702 9.48705L80.667 11.3479L80.823 13.2088L84.233 13.3168L85.4097 14.4213L91.9535 13.9411L93.4544 14.8415L93.5144 15.7539L93.4784 18.5512L92.6019 19.1515L92.7339 20.148L91.6413 20.5562L91.113 22.393L92.1456 22.405L92.0976 23.2334L92.5058 23.5215L93.9346 23.5335L93.8146 25.0582L94.9793 24.53L95.1474 25.8986L96.0719 26.2108L94.3549 28.6719L95.2794 29.2482L93.7425 30.1486L93.0581 32.2136L94.2948 32.4536L95.7117 31.6133L98.2572 32.1415L95.3635 38.9607L94.1508 39.741L93.9346 40.8815L93.0581 40.9776L94.0187 44.015L92.9261 44.003L90.7288 42.2021L88.5195 39.2488L88.8677 38.2403L86.1661 32.7538L84.293 32.7298L83.3325 31.2771L82.0477 31.4092L81.5555 29.0801L79.4782 28.5758L79.4662 26.4749L78.3856 25.3944L76.9688 25.1783L76.1283 25.8866L76.5125 23.7136L75.3838 22.6691L74.2672 21.0003L73.0545 17.999L71.8778 18.4192L70.9413 17.1226L69.5004 17.5068L68.8401 17.9029L66.8949 18.2871L67.1711 16.8344L66.3186 16.3782L67.0871 15.0936L65.4781 14.0972L64.8658 11.2759L65.226 9.96726L64.2054 7.6502L64.7217 6.10151L69.1883 3.79643L69.1763 2.98007L71.0493 1.92357L75.696 1.31128Z" stroke="#2C216F"/>
</svg>
