<svg width="143" height="95" viewBox="0 0 143 95" fill="none" xmlns="http://www.w3.org/2000/svg">
<path d="M79.9148 44.5703L79.4346 47.9078L80.6832 48.3641L80.0829 48.8803L80.7312 49.2765L80.2629 50.0689L79.2665 50.321L79.1824 49.7687L78.2218 47.9679L78.486 46.4432L77.8616 45.5548L79.1224 44.1261L79.9148 44.5703Z" stroke="#22AAA8"/>
<path d="M9.25376 29.5514L11.3069 29.8395L14.5968 32.4327L14.837 34.9059L14.1046 36.4306L13.2641 36.4066L13.4562 34.9419L12.0273 36.3826L10.8747 36.0464L8.82145 38.8557L9.46988 39.504L9.04959 40.6325L7.7649 40.3324L7.29661 38.6876L5.38749 39.42L3.0221 37.7872L1.54526 38.8077L1.18506 36.3105L2.43377 34.8819L3.55041 35.158L7.10445 33.4052L7.06847 30.9921L9.25376 29.5514Z" stroke="#22AAA8"/>
<path d="M24.5626 29.1312L25.5112 29.6114L25.7873 31.1721L27.7565 31.7484L27.9246 33.009L29.4615 34.6418L37.4101 38.2674L37.9023 39.54L37.29 40.3924L38.2506 41.8811L39.1751 41.689L39.5954 40.4044L43.7258 40.5005L44.8544 41.4849L42.0568 46.1671L40.592 46.9955L39.8355 46.4312L37.1219 48.8323L35.6091 48.136L36.0173 46.7793L34.6725 45.951L30.446 45.963L30.0738 43.4418L29.6416 42.8055L29.9418 41.4129L28.7411 39.2399L26.94 38.2194L26.1596 35.7463L23.0618 31.1721L22.8696 30.1157L24.5626 29.1312Z" stroke="#22AAA8"/>
<path d="M64.5939 26.5861L65.1703 26.406L65.0622 29.3833L66.2989 28.9031L65.7466 31.4123L65.7225 32.7929L65.4584 35.5182L63.7414 35.6622L63.8014 34.6418L62.2885 35.6742L61.6042 35.146L61.0278 34.5217L60.5596 33.2611L64.81 31.5203L63.105 28.0027L63.7894 27.5825L64.0776 25.1334L64.5939 26.5861Z" stroke="#22AAA8"/>
<path d="M62.1205 18.4703L62.5767 19.4427L62.5887 20.2711L65.3744 21.4717L59.7551 29.8275L59.2028 32.8649L58.2542 34.3056L56.3451 34.8578L57.1256 35.9143L55.4926 36.5506L54.7842 36.0344L54.1118 36.9708L54.532 37.5831L52.6349 38.5075L52.4909 39.588L51.1821 40.2603L50.3656 38.9157L48.8167 39.1558L48.9368 37.1509L50.1615 36.4066L51.05 36.7307L51.9505 34.7858L52.9471 35.122L54.2679 33.9694L53.3314 32.8649L53.7756 31.0761L52.9231 30.3558L54.3759 29.4314L54.7602 27.7986L55.6967 27.9667L57.6058 26.454L58.5304 22.9123L59.587 22.3001L60.4154 19.8629L62.1925 17.81L62.1205 18.4703Z" stroke="#22AAA8"/>
<path d="M75.1 7.30515L75.4001 8.96189L76.1927 9.73026L77.0211 9.09396L77.8376 10.0544L77.2012 15.697L74.4996 17.6419L72.3624 16.2373L74.2355 14.5925L73.1789 13.5L71.7501 14.2804L71.5099 13.6441L71.9902 12.3955L71.8221 11.6992L72.7226 9.40612L75.1 7.30515Z" stroke="#22AAA8"/>
<path d="M102.932 7.26914L102.38 11.9273L101.251 11.9993L101.479 8.42166L102.068 7.23312L102.932 7.26914Z" stroke="#22AAA8"/>
<path d="M86.3625 1.9747L87.3351 2.53896L87.2391 3.5114L83.8651 8.21755L83.9131 6.993L81.5958 6.84894L83.9732 5.25218L84.4654 3.39134L83.8291 2.86309L85.2579 1.6145L86.3625 1.9747Z" stroke="#22AAA8"/>
<path d="M133.49 91.7759L134.607 91.8599L134.534 93.1565L131.149 92.4602L131.833 90.8514L133.49 91.7759Z" stroke="#22AAA8"/>
<path d="M121.567 80.6827L119.85 86.1573L118.589 84.8126L120.871 80.7427L121.567 80.6827Z" stroke="#22AAA8"/>
<path d="M105.358 79.3501L107.231 81.0309L105.43 82.2795L103.953 80.8988L105.358 79.3501Z" stroke="#22AAA8"/>
<path d="M120.066 61.9061L129.708 68.7492L128.567 71.4145L129.299 74.776L128.363 75.6764L128.999 76.6128L129.66 76.1086L131.293 76.6249L132.493 78.7498L133.55 78.6178L138.929 82.7357L139.553 84.4885L140.622 84.9207L141.03 87.0457L140.13 87.6099L140.634 89.5788L135.891 90.7674L135.555 89.3867L134.126 91.0555L132.649 90.0951L131.233 87.5139L130.152 87.3578L128.531 88.5704L128.003 88.1982L128.219 91.3917L126.514 90.0831L126.802 88.6184L125.673 88.7384L125.781 87.6459L124.761 88.2942L124.233 87.5619L124.485 86.3133L125.241 86.7695L126.106 85.4609L127.534 85.665L128.363 84.8727L127.931 80.4546L126.946 80.0344L125.289 81.223L124.617 79.158L123.632 79.8063L122.588 79.3621L121.303 80.5507L122.095 78.1736L118.901 78.7138L118.397 75.8205L117.256 76.8049L116.476 75.0161L115.443 75.6764L113.606 75.4843L113.426 74.8361L115.876 72.9392L116.02 71.0663L117.461 70.1659L117.304 68.197L115.96 67.7048L115.491 66.2041L116.692 64.1511L116.224 63.6109L117.569 63.0346L117.893 61.9061L118.997 61.9301L119.37 60.6215L120.066 61.9061Z" stroke="#22AAA8"/>
<path d="M10.7283 29.9877L7.70787 33.0081L7.71851 33.7207L6.29152 34.4245L2.08789 38.6281L2.15931 39.1232L3.63616 38.1027L4.02347 38.3701L12.0985 30.295L11.921 30.1551L10.7283 29.9877Z" fill="#22AAA8"/>
<path d="M27.5726 38.5454L27.5541 38.5349L27.1586 37.2819L29.7883 34.6522L30.0755 34.9573L30.8208 35.2972L27.5726 38.5454Z" fill="#22AAA8"/>
<path d="M31.0601 46.2785L31.7036 46.2767L38.4072 39.5731L38.0242 38.5829L37.8151 38.4876L30.9269 45.3759L31.0601 46.2785Z" fill="#22AAA8"/>
<path d="M61.7443 28.0982L50.5436 39.2988L49.4308 39.4714L49.4778 38.6872L51.2645 36.9005L51.6641 37.0462L52.1343 36.0307L52.9378 35.2272L53.5612 35.4375L54.8819 34.285L54.4222 33.7428L65.1889 22.9761L61.7443 28.0982Z" fill="#22AAA8"/>
<path d="M73.1655 16.677L78.3219 11.5206L78.4517 10.3699L78.15 10.015L74.0666 14.0984L74.8496 14.908L72.9765 16.5528L73.1655 16.677Z" fill="#22AAA8"/>
<path d="M86.1457 2.01929L86.9766 2.29023L87.3409 2.5016L84.6996 5.14293L85.0795 3.70687L84.7399 3.42502L86.1457 2.01929Z" fill="#22AAA8"/>
<path d="M82.6506 7.19188L83.6358 6.20678L82.2098 7.16447L82.6506 7.19188Z" fill="#22AAA8"/>
<path d="M44.1383 44.0267L42.6709 46.4826L41.206 47.311L41.0044 47.1606L44.1383 44.0267Z" fill="#22AAA8"/>
<path d="M23.5362 30.7196L24.2982 29.9576L23.4837 30.4312L23.5362 30.7196Z" fill="#22AAA8"/>
<path d="M64.3746 35.6526L66.2741 33.7531L66.0941 35.6107L65.8526 35.8521L64.3554 35.9777L64.3746 35.6526Z" fill="#22AAA8"/>
<path d="M103.444 8.44529L102.021 9.86818L101.907 11.66L103.219 10.3485L103.444 8.44529Z" fill="#22AAA8"/>
<path d="M80.5264 44.9028L78.9228 46.5065L78.4756 45.8703L79.7364 44.4416L80.5289 44.8858L80.5264 44.9028Z" fill="#22AAA8"/>
<path d="M138.259 82.0684L137.309 81.341L130.95 87.7L131.846 87.8295L132.077 88.25L138.259 82.0684Z" fill="#22AAA8"/>
<path d="M130.342 76.4458L131.616 76.8487L127.949 80.5161L127.56 80.3501L125.903 81.5386L125.742 81.0451L130.342 76.4458Z" fill="#22AAA8"/>
<path d="M128.693 67.9093L127.712 67.2129L117.85 77.0748L117.87 77.1206L119.011 76.1361L119.227 77.3757L128.693 67.9093Z" fill="#22AAA8"/>
<path d="M120.774 62.2887L121.755 62.9851L116.681 68.0597L116.574 68.0204L116.209 66.8535L120.774 62.2887Z" fill="#22AAA8"/>
<path d="M120.532 86.2555L120.392 86.3959L120.464 86.4729L120.532 86.2555Z" fill="#22AAA8"/>
<path d="M127.763 90.8865L128.712 91.6149L128.819 91.5081L128.713 89.9368L127.763 90.8865Z" fill="#22AAA8"/>
<path d="M141.119 89.3926L140.407 90.1053L141.248 89.8945L141.119 89.3926Z" fill="#22AAA8"/>
</svg>
