<svg width="280" height="458" viewBox="0 0 280 458" fill="none" xmlns="http://www.w3.org/2000/svg">
<path d="M62.458 125.678L61.8177 124.641L71.3296 115.129L71.2767 116.055L72.4702 115.666L62.458 125.678Z" fill="#907C72"/>
<path d="M63.0618 136.937L60.6025 138.313L60.1834 138.138L82.0353 116.286L83.3419 116.657L63.0618 136.937Z" fill="#907C72"/>
<path d="M69.977 141.884L71.2932 138.89L74.7135 135.47L74.5546 135.744L75.0469 136.476L76.1515 135.624L76.1853 135.675L69.977 141.884Z" fill="#907C72"/>
<path d="M80.4033 143.32L79.0003 143.045L79.6459 142.399L80.4293 143.294L80.4033 143.32Z" fill="#907C72"/>
<path d="M52.251 181.657L56.8976 177.01L57.8192 177.766L52.0981 183.487L52.251 181.657Z" fill="#907C72"/>
<path d="M91.1323 144.453L89.8071 144.1L94.1784 139.729L94.9722 140.613L93.5242 142.061L93.0333 142.371L93.0536 142.532L91.1323 144.453Z" fill="#907C72"/>
<path d="M91.7355 131.987L84.9375 138.785L83.7089 138.337L93.6494 128.396L93.5136 129.909L93.7949 129.928L92.2129 131.51L91.7006 131.794L91.7355 131.987Z" fill="#907C72"/>
<path d="M96.7964 126.927L96.6871 127.036L95.3566 126.689L96.4203 125.625L96.7964 126.927Z" fill="#907C72"/>
<path d="M91.9184 118.265L97.0691 113.114L98.1698 113.691L92.4378 119.423L92.6011 118.672L91.9184 118.265Z" fill="#907C72"/>
<path d="M90.776 119.407L90.2201 119.963L90.776 119.752V119.407Z" fill="#907C72"/>
<path d="M89.8673 120.316L83.0658 127.117L83.692 127.496L83.3677 128.288L83.5017 128.359L92.2733 119.587L90.2477 120.785L89.8673 120.316Z" fill="#907C72"/>
<path d="M78.9962 131.187L78.366 131.817L79.9338 131.722L78.9962 131.187Z" fill="#907C72"/>
<path d="M98.8738 112.987L100.069 111.36L101.18 110.681L98.8738 112.987Z" fill="#907C72"/>
<path d="M59.7219 116.552L59.3293 116.945L58.5613 116.931L59.1857 116.271L59.7219 116.552Z" fill="#907C72"/>
<path d="M147.701 230.232L146.472 229.783L161.474 214.781L162.206 215.136L163.298 213.6L164.715 213.071L164.781 213.151L147.701 230.232Z" fill="#907C72"/>
<path d="M154.475 235.319L153.328 234.789L179.293 208.823L180.864 208.725L182.269 207.092L181.643 206.473L187.093 201.024L187.936 200.766L188.886 200.908L154.475 235.319Z" fill="#907C72"/>
<path d="M162.511 239.146L160.793 239.186L199.819 200.161L200.596 201.06L162.511 239.146Z" fill="#907C72"/>
<path d="M174.919 238.6L174.67 238.849L174.128 237.713L175.512 236.33L174.919 238.6Z" fill="#907C72"/>
<path d="M191.147 232.557L193.003 232.172L193.957 229.746L206.27 217.433L207.272 218.109L177.307 248.074L176.711 246.992L191.147 232.557Z" fill="#907C72"/>
<path d="M114.996 308.708L115.718 307.985L117.335 307.567L117.838 307.543L113.88 311.501L113.078 310.626L114.578 309.126L114.61 309.14L114.996 308.708Z" fill="#907C72"/>
<path d="M110.163 315.218L109.467 315.914L109.927 315.166L110.163 315.218Z" fill="#907C72"/>
<path d="M119.436 317.807L118.188 317.844L117.934 317.632L121.097 314.469L120.85 316.393L119.436 317.807Z" fill="#907C72"/>
<path d="M194.669 254.437L193.711 253.717L218.147 229.281L219.337 229.768L194.669 254.437Z" fill="#907C72"/>
<path d="M146.591 312.699L147.992 311.298L150.496 310.472L144.556 316.412L144.471 316.235L146.591 312.699Z" fill="#907C72"/>
<path d="M148.705 324.125L147.941 323.522L147.841 323.312L162.953 308.2L163.706 307.951L164.455 308.375L148.705 324.125Z" fill="#907C72"/>
<path d="M156.526 328.166L156.478 327.928L155.574 327.441L170.821 312.194L171.351 313.342L156.526 328.166Z" fill="#907C72"/>
<path d="M160.081 336.473L159.852 336.056L159.018 335.859L179.859 315.018L180.093 316.461L160.081 336.473Z" fill="#907C72"/>
<path d="M161.124 345.615L161.137 345.612L161.137 345.602L179.169 327.57L179.279 327.856L178.402 330.015L159.712 348.705L159.828 348.446L159.227 347.512L161.124 345.615Z" fill="#907C72"/>
<path d="M149.342 357.398L156.667 350.072L157.667 350.703L157.727 350.69L150.435 357.982L150.403 357.354L149.342 357.398Z" fill="#907C72"/>
<path d="M155.987 364.293L154.809 364.437L154.797 363.804L178.186 340.416L178.199 341.098L178.132 342.147L155.987 364.293Z" fill="#907C72"/>
<path d="M162.521 369.621L162.097 368.375L162.09 368.374L166.818 363.646L165.279 366.13L165.305 366.836L162.521 369.621Z" fill="#907C72"/>
<path d="M174.395 357.746L169.095 363.046L166.965 363.499L173.944 356.52L173.972 357.186L174.395 357.746Z" fill="#907C72"/>
<path d="M189.648 318.769L187.869 320.548L187.504 320.089L186.412 320.497L186.265 320.474L188.247 318.492L188.249 318.54L189.648 318.769Z" fill="#907C72"/>
<path d="M220.254 252.576L215.131 257.699L214.028 257.72L213.349 257.804L219.954 251.199L220.254 252.576Z" fill="#907C72"/>
<path d="M227.511 245.319L221.64 251.19L221.4 251.057L220.826 250.327L226.902 244.25L227.511 245.319Z" fill="#907C72"/>
<path d="M222.258 237.033L222.421 237.851L222.556 238.412L219.268 241.7L218.559 240.731L222.258 237.033Z" fill="#907C72"/>
<path d="M214.475 244.815L202.195 257.095L203.321 257.647L215.607 245.36L215.469 245.186L214.475 244.815Z" fill="#907C72"/>
<path d="M213.879 223.364L185.881 251.362L184.23 251.336L213.35 222.216L213.836 222.544L213.879 223.364Z" fill="#907C72"/>
<path d="M206.816 206.703L188.217 225.302L186.672 225.169L205.65 206.191L205.791 206.168L206.816 206.703Z" fill="#907C72"/>
<path d="M172.004 239.837L171.799 241.2L170.959 241.632L170.408 241.434L172.004 239.837Z" fill="#907C72"/>
<path d="M153.265 212.805L152.372 212.831L152.391 213.679L153.265 212.805Z" fill="#907C72"/>
<path d="M150.7 215.37L147.303 218.767L147.149 218.33L149.574 216.385L150.667 215.388L150.7 215.37Z" fill="#907C72"/>
<path d="M161.657 451.842L172.923 440.577L173.336 440.78L174.678 440.499L160.162 455.015L160.104 454.623L161.657 451.842Z" fill="#907C72"/>
<path d="M176.366 450.673L175.341 450.757L170.706 455.643L169.025 456.471L168.908 456.454L184.026 441.335L184.07 441.357L189.012 438.027L176.366 450.673Z" fill="#907C72"/>
<path d="M198.19 439.034L197.434 440.696L196.546 440.756L194.24 443.626L192.193 445.031L198.19 439.034Z" fill="#907C72"/>
<path d="M217.912 442.863L219.595 441.179L219.779 442.245L220.752 441.549L220.839 441.613L218.21 444.242L217.822 443.145L217.912 442.863Z" fill="#907C72"/>
<path d="M213.732 447.043L215.321 445.454L215.787 446.665L213.626 448.826L213.523 448.728L214.412 447.888L213.732 447.043Z" fill="#907C72"/>
<path d="M211 449.775L211.378 449.397L211.182 449.796L211 449.775Z" fill="#907C72"/>
<path d="M216.903 445.55L216.921 445.531L216.897 445.534L216.903 445.55Z" fill="#907C72"/>
<path d="M227.974 434.478L227.523 433.865L226.491 434.982L226.23 434.545L244.59 416.185L244.681 416.181L246.151 416.301L227.974 434.478Z" fill="#907C72"/>
<path d="M242.905 431.409L241.811 430.826L254.992 417.645L255.798 418.517L242.905 431.409Z" fill="#907C72"/>
<path d="M248.032 438.145L247.359 437.14L262.821 421.678L263.741 422.436L248.032 438.145Z" fill="#907C72"/>
<path d="M273.467 424.572L264.945 433.094L263.456 432.906L275.167 421.194L277.254 420.785L275.572 422.467L273.822 422.952L273.27 424.381L273.467 424.572Z" fill="#907C72"/>
<path d="M266.327 419.85L265.393 419.506L264.925 419.927L265.512 420.665L266.327 419.85Z" fill="#907C72"/>
<path d="M257.666 438.696L257.601 439.436L256.631 439.731L257.666 438.696Z" fill="#907C72"/>
<path d="M228.507 422.083L225.548 425.042L227.043 423.108L228.448 422.088L228.507 422.083Z" fill="#907C72"/>
<path d="M3.89123 16.4963L17.8754 2.51221L18.0619 2.69869L18.6227 3.44234L3.15967 18.9054L3.89123 16.4963Z" fill="#907C72"/>
<path d="M7.13908 26.7882L5.17809 27.0717L25.6612 6.5886L26.3439 7.58335L7.13908 26.7882Z" fill="#907C72"/>
<path d="M13.7164 32.0732L12.7586 31.3534L29.2461 14.866L30.6263 15.1632L13.7164 32.0732Z" fill="#907C72"/>
<path d="M29.7127 27.9391L29.3965 27.5742L27.0071 30.1794L25.3355 30.6388L30.7584 25.2159L30.5732 25.9774L31.3207 26.3311L29.7127 27.9391Z" fill="#907C72"/>
<path d="M102.858 48.0142L103.098 47.7747L104.497 48.0532L103.526 49.0235L102.858 48.0142Z" fill="#907C72"/>
<path d="M109.566 54.8456L108.673 54.0618L119.03 43.7041L120.397 44.0148L109.566 54.8456Z" fill="#907C72"/>
<path d="M117.158 59.1159L115.569 59.0278L127.652 46.9452L128.549 47.7255L117.158 59.1159Z" fill="#907C72"/>
<path d="M209.932 444.799L211.084 444.943L211.492 447.596L210.568 449.481L208.971 449.289L209.511 447.692L208.551 447.392L204.841 447.944L206.305 446.239L207.926 446.504L209.079 444.307L209.932 444.799ZM217.412 437.139L219.717 439.024L218.913 440.465L219.165 441.929L220.137 441.233L221.038 441.893L219.429 445.075L218.336 445.687L218.517 446.408L215.467 447.8L216.343 449.001L216.127 450.165L217.484 451.27L216.811 452.182L217.34 454.031L216.98 454.511L216.271 454.595L215.431 453.707L214.986 453.011L214.398 451.834L213.726 450.754L213.99 449.445L212.909 448.412L213.798 447.572L213.101 446.708L213.882 445.447L213.101 444.247L214.23 443.898L215.431 447.02L216.583 446.095L216.283 445.219L217.976 445.003L217.208 442.83L217.64 441.473L215.599 440.969L215.767 438.532L217.412 437.139ZM201.347 432.913L200.89 434.462L199.173 435.206L196.82 440.381L195.931 440.441L193.626 443.31L186.002 448.545L183.396 449.733L174.727 450.441L170.092 455.328L168.411 456.156L165.614 455.736L161.099 457.08L159.85 456.744L159.49 454.307L163.044 447.944L168.087 441.905L171.089 439.66L172.722 440.465L178.161 439.324L179.254 440.309L181.367 440.033L183.456 441.041L194.166 433.826L197.889 433.658L201.058 432.361L201.347 432.913ZM244.067 415.865L253.757 416.658L257.131 420.307L258.332 419.983L262.15 421.316L266.16 424.617L267.457 423.573L264.311 419.611L264.779 419.191L267.973 420.368L267.505 418.519L269.006 418.074L268.598 419.719L269.882 420.572L273.364 421.112L277.099 420.38L275.418 422.024L273.208 422.637L272.656 424.065L274.493 425.842L273.857 427.163L276.75 427.271L277.531 428.903L276.786 429.888L276.114 429.324L275.37 430.356L274.745 429.9L274.037 430.62L267.901 430.224L264.827 432.841L262.834 432.589L260.589 433.442L257.251 436.107L256.987 439.12L254.778 439.792L248.282 439.12L243.251 431.605L239.733 429.732L231.508 430.704L230.199 432.037L230.403 432.661L229.311 432.733L229.359 433.826L228.578 433.345L227.378 434.186L226.909 433.55L225.877 434.666L224.484 432.337L225.18 430.416L223.199 426.971L226.429 422.793L227.834 421.772L230.932 421.544L233.081 418.915L234.786 418.062L236.839 417.966L241.09 415.998L244.067 415.865ZM192.677 319.833L193.926 321.67L193.626 322.762L192.029 322.438L191.705 319.029L192.677 319.833ZM182.34 316.123L184.705 316.232L185.053 317.216L186.17 316.628L187.599 317.288L187.635 318.224L191.309 318.825L190.985 320.445L190.084 319.833L189.724 321.298L188.859 321.514L187.815 320.938L186.89 319.773L185.798 320.181L184.165 319.929L183.468 317.72L181.739 315.799L182.34 316.123ZM110.526 315.115L111.198 315.211L110.394 316.496L110.994 317.84L107.644 317.564L109.313 314.851L110.526 315.115ZM163.092 307.636L166.754 309.713L168.94 309.136L171.269 314.179L173.502 314.251L174.691 314.335L175.736 314.383L176.744 312.822L178.173 314.551L179.242 314.683L179.602 316.904L178.341 318.741L178.557 322.378L177.609 323.375L175.82 323.315L175.411 324.996L177.405 325.068L177.585 326.052L178.305 326.604L178.665 327.541L176.528 332.799L176.504 334.744L177.561 339.546L177.585 340.783L177.393 343.808L179.446 345.309L178.689 346.618L179.374 347.794L173.202 353.233L173.358 356.87L174.607 358.527L172.782 361.817L166.286 363.197L164.665 365.814L164.761 368.408L163.452 370.304L161.916 369.332L161.483 368.059L158.698 367.615L156.681 364.998L156.837 363.797L154.195 364.122L154.159 362.213L153.451 362.573L152.382 361.612L151.614 360.784L149.993 361.024L149.789 357.038L147.459 357.134L148.768 353.04L150.113 352.86L153.331 349.523L154.087 349.379L154.675 349.439L155.948 349.691L157.053 350.387L158.326 350.111L159.214 348.13L158.542 347.086L159.202 345.609L160.523 345.297L160.607 343.46L161.567 343.844L161.423 341.383L161.339 340.687L161.435 339.57L160.631 338.718L160.331 337.733L159.238 335.741L157.713 335.38L157.425 330.05L156.224 329.402L155.864 327.613L152.37 325.728L150.305 325.56L147.327 323.207L143.857 315.919L146.679 311.213L150.281 310.025L155.384 310.181L163.092 307.636ZM116.721 307.251L118.234 307.179L119.867 309.364L121.332 309.785L121.644 311.97L120.66 312.774L120.059 317.456L117.574 317.528L115.773 316.027L115.052 317.72L114.284 315.403L115.293 313.398L111.498 309.256L112.171 308.044L113.996 308.824L115.004 307.696L116.721 307.251ZM200.278 201.086L201.371 200.942L201.539 201.555L199.738 204.208L200.41 205.348L201.335 205.24L202.019 206.369L205.177 205.853L207.866 207.257L206.101 209.094L206.942 209.562L204.961 210.871L202.931 215.277L213.221 222.228L213.293 223.573L214.446 223.837L216.091 228.375L220.342 230.116L219.309 230.992L219.249 233.789L221.134 234.162L221.806 237.535L222.071 238.628L222.191 239.984L226.117 243.634L228.038 247.008L228.458 249.589L227.474 251.99L225.829 252.074L222.743 250.669L221.975 251.402L220.786 250.741L219.633 249.277L218.228 247.98L217.22 246.419L218.024 244.655L219.477 244.546L219.105 242.001L216.223 238.063L213.894 236.839L210.184 238.364L209.739 239.42L210.616 241.941L212.477 243.982L214.854 244.871L219.225 250.357L219.861 253.274L219.885 254.415L220.642 254.979L217.868 257.32L213.414 257.404L204.985 258.449L201.142 256.564L197.24 256.516L192.69 253.094L187.19 251.077L181.931 250.993L180.286 252.614L180.142 251.498L177.753 249.685L175.123 244.907L173.238 243.358L171.257 243.202L171.233 242.361L172.542 241.989L173.442 240.308L174.595 239.864L176.744 241.161L180.154 239.444L182.363 235.914L184.669 234.786L186.05 235.17L188.907 233.501L189.376 232.481L192.389 231.857L193.914 227.979L193.494 226.778L190.42 225.23L183.876 224.665L180.262 226.046L178.929 227.979L178.821 231.184L177.477 231.977L176.696 233.982L175.387 234.138L174.175 238.784L173.442 237.247L172.554 237.727L171.485 238.892L171.185 240.885L170.345 241.317L163.356 238.796L157.269 238.94L156.116 236.047L148.588 232.565L148.192 230.32L145.202 229.227L144.181 227.919L144.085 227.126L146.235 228.195L145.826 224.029L146.09 222.42L145.502 221.64L147.207 219.923L146.535 218.014L148.96 216.069L150.053 215.073L151.794 214.112L151.758 212.516L153.775 212.456L153.415 214.1L154.207 214.701L155.456 214.1L157.269 215.301L158.217 214.1L159.538 213.824L161.591 214.821L162.684 213.284L164.101 212.756L164.749 213.536L167.067 212.828L168.796 212.576L172.266 211.111L174.547 210.871L178.521 208.518L180.25 208.41L181.655 206.777L180.514 205.648L181.031 203.512L180.19 202.095L182.075 200.93L183.36 201.663L187.322 200.45L196.099 201.771L198.897 199.49L200.278 201.086ZM56.2062 176.631L60.5527 180.197L57.1308 184.783L55.7619 185.083L54.069 186.788L52.9043 189.237L51.3554 184.711L51.7396 180.113L53.6487 177.628L54.201 175.287L56.2062 176.631ZM101.352 112.69L101.34 113.338L102.217 116.892L98.879 118.692L98.1466 120.709L96.3576 121.886L95.6251 124.683L96.2254 126.76L94.2923 126.256L93.1516 126.784L92.8995 129.593L94.3164 129.69L91.0865 131.478L91.3746 133.075L92.8155 134.156L91.3026 135.008L91.5908 137.217L94.6645 140.639L92.4192 142.055L92.7555 144.732L86.932 143.184L85.5272 141.179L86.1516 139.138L83.0298 137.997L82.8016 136.713L81.1807 135.056L79.7038 135.38L80.6043 133.831L82.2373 133.939L83.462 132.991L82.6335 131.826L84.4106 128.849L82.7536 127.973L83.0779 127.18L81.9852 126.52L79.4997 126.796L74.913 130.554L77.3625 130.29L79.3197 131.406L76.1618 131.598L73.9405 135.428L74.4328 136.16L75.5374 135.308L76.2098 136.341L76.9783 136.653L76.8822 139.63L79.848 143.016L75.9217 142.247L72.2115 142.86L70.9628 141.203L69.1858 141.971L71.8513 135.908H73.004L73.2081 135.032L72.5237 134.612L70.8307 135.152L70.2424 136.761L68.9216 137.661L68.2132 137.457L68.6575 136.197L67.2046 135.236L63.4944 136.821L62.6059 136.533L59.9884 137.997L59.328 137.721L59.4841 136.641L61.4172 135.104L60.9009 134.108L59.7963 134.864L59.5201 134.276L60.7929 132.223L59.8563 131.562L61.057 130.458L60.1445 129.954L61.5613 128.609L62.1136 125.8L61.1651 124.263L59.4361 123.699L59.9044 122.102L59.0518 120.373L59.6762 117.636L59.292 116.639L57.9472 116.615L58.5716 115.955L59.7843 116.591L62.678 115.391L65.3555 115.667L69.4379 113.23L70.7587 114.058L70.6626 115.739L72.2115 115.235L72.7758 115.751L75.3213 114.767L75.4293 113.926L77.4826 114.623L79.4036 113.422L81.0726 115.871L83.0178 116.423L83.9063 115.727L84.0144 116.591L82.7176 117.744L83.378 118.752L82.9457 119.485L85.6713 120.661L84.0624 121.754L85.7914 122.75L87.4244 121.538L87.3163 120.517L88.4209 120.013L88.601 118.993L90.1619 118.572V119.437L89.1173 119.833L89.6336 120.469L91.8069 119.185L91.987 118.356L90.6782 117.576L94.3523 113.986L94.3043 112.462L93.6679 112.185L94.2083 111.621L97.6903 113.446L99.4553 111.045L102.457 109.208L102.301 110.553L100.944 111.609L101.352 112.69Z" stroke="#907C72"/>
<path d="M117.754 43.2379L125.042 44.8946L129.557 48.8204L129.209 55.0513L119.087 58.9411L114.536 58.689L112.615 56.1798L109.013 54.5831L103.742 49.961L102.025 47.3678L104.678 47.896L107.428 44.7146L110.826 43.2619L115.184 42.4575L117.754 43.2379ZM17.4476 2.38304L18.5523 3.84771L21.3019 4.84416L23.7033 3.64361L25.2402 4.95222L24.8079 5.92466L26.0686 7.76151L27.5815 9.08212L29.8869 8.99809L31.1476 10.5828L30.8354 11.5193L28.8903 11.1351L28.2179 12.6598L28.4941 14.5206L30.8354 15.0249L30.2231 15.8412L30.9435 17.6781L28.7222 19.4309L29.4546 23.4768L30.3912 23.885L29.9589 25.6618L31.0756 26.19L30.1871 28.8793L28.7822 27.2585L26.3929 29.8637L23.8594 30.56L21.2058 30.9562L18.6483 32.3008L18.9005 33.2613L16.8113 33.4894L16.1269 34.3658L15.6946 32.3489L13.6655 32.1808L11.7323 30.7281L12.1766 28.7352L10.2074 26.7663L8.56248 26.178L3.57959 26.8984L3.23138 24.8454L1.89862 24.4972L1.79053 21.0756L3.99985 13.8003L6.7134 9.83847L7.01357 7.00516L9.59506 6.78906L10.7357 4.76013L12.3687 4.42397L16.5591 1.49463L17.4476 2.38304Z" stroke="#907C72"/>
</svg>
