<svg width="442" height="377" viewBox="0 0 442 377" fill="none" xmlns="http://www.w3.org/2000/svg">
<path d="M84.0896 1.28589L87.9798 2.89463L91.0536 2.09026L92.6986 3.74701L94.3435 3.31481L99.2063 8.35715L101.163 11.4546L101.464 13.7356L103.325 14.9482L104.621 19.0301L107.095 21.3111L105.714 23.16L107.935 23.4601L107.623 25.9333L108.38 28.7425L103.289 31.6599L106.723 35.9699L106.735 38.527L109.064 42.4769L111.537 42.1527L113.687 40.8321L117.133 42.3568L116.713 47.8073L115.512 50.2565L113.915 51.2649L111.706 50.0644L110.817 51.0488L113.543 55.1427L116.28 57.4238L117.013 59.2006L116.496 60.7373L117.781 62.7302L116.905 64.3029L118.249 64.9752L118.297 67.3523L125.754 70.0056L127.483 67.0762L129.692 67.2443L132.898 65.6836L135.672 67.5324L137.581 67.3403L139.838 70.1977L139.981 70.2871L142.131 68.745L142.611 70.7019L145.085 71.9865L145.625 73.2111L147.69 72.983L148.291 73.9194L149.263 73.8474L149.936 72.2987L151.292 72.6348L153.418 71.0861L153.994 68.1087L152.121 67.8206L154.066 65.0353L155.615 65.5276L157.632 64.303L159.181 64.399L160.082 65.9237L161.414 64.8793L163.359 65.7197L165.797 64.9393L168.823 66.1038L170.888 65.1434L173.085 67.5925L173.565 69.8736L174.934 70.9541L179.077 68.3129L182.066 70.5099L185.296 68.601L186.881 68.673L188.286 69.6215L188.346 70.5339L190.531 70.4738L192.873 71.9385L197.591 69.6575L202.178 70.2818L203.415 71.2422L205.564 71.1221L206.212 72.1306L207.161 70.1977L205.42 64.231L206.044 61.9019L201.53 56.5834L203.259 56.7395L205.252 55.4189L206.128 52.7417L208.302 52.9578L210.019 51.7212L212.924 46.3187L215.338 44.4819L214.977 42.1168L217.679 41.8646L218.351 39.7037L223.442 34.9254L224.535 32.3202L226.444 30.5074L227.165 29.3309L225.604 26.7257L226.408 25.7172L228.377 27.0018L228.701 25.0809L228.005 23.7603L228.461 23.4962L236.986 22.8239L238.199 23.6643L238.907 25.165L236.566 27.2899L236.134 29.3909L238.151 29.1868L237.827 32.1281L238.943 35.3697L241.513 34.2771L244.022 30.5434L244.503 27.9142L246.556 25.8252L250.398 24.7328L253.676 27.9862L252.751 30.3273L253.004 32.0441L254.012 30.5674L255.681 30.6755L254.937 36.4982L252.932 40.556L254.444 40.9402L254.781 42.705L256.065 43.3533L256.39 44.686L258.527 43.3293L259.848 45.3583L262.057 44.4578L263.606 46.3907L268.084 48.7678L269.321 54.6265L270.017 56.0312L271.074 56.1152L272.407 57.5799L280.403 56.2353L282.745 54.3144L285.963 55.2268L287.5 57.892L289.973 55.683L288.148 54.1583L292.17 57.0517L292.963 58.9965L292.29 62.4541L295.028 68.673L298.426 70.4018L303.217 75.8643L307.467 78.0734L309.112 88.5782L311.514 95.0252L312.21 100.116L316.352 109.804L320.639 111.653L321.599 113.154L323.725 112.781L325.466 115.903L328.551 115.987L333.51 119.817L335.768 125.291L341.675 132.747L342.768 132.843L343.668 133.983L345.661 138.749L348.459 141.943L351.053 143.047L352.71 145.328L353.166 148.486L354.138 149.398L354.162 151.823L357.524 155.317L357.452 156.542L359.205 158.162L359.241 159.987L361.174 163.229L359.578 167.034L356.36 169.76L352.782 169.868L350.14 171.921L348.003 171.897L347.486 171.068L346.142 171.861L345.697 173.109L347.787 173.998L345.289 175.162L345.409 176.159L343.728 174.97L341.399 175.474L341.015 176.651L337.581 176.363L336.596 177.731L332.97 177.083L331.337 177.611L331.061 176.579L328.948 176.015L330.701 173.121L330.965 170.036L332.178 169.051L333.606 169.652L335.155 167.25L335.347 170.396L336.62 170.636L334.147 173.661L333.51 175.93L335.131 175.522L338.697 172.677L340.294 172.893L340.739 172.005L342.54 171.813L342.239 168.883L343.104 167.359L343.776 168.067L345.133 169.52L346.358 169.135L347.03 163.457L343.92 160.623L343.536 158.606L342.54 157.862L343.02 154.813L341.399 153.168L341.123 151.799L336.884 148.33L336.572 147.321L331.445 145.869L329.476 146.385L325.73 145.821L324.661 142.543L323.425 142.207L322.644 140.874L320.099 141.162L317.097 139.41L316.833 140.118L315.932 139.578L315.38 141.066L316.701 141.138L317.097 141.907L315.488 145.316L316.629 145.857L317.721 147.874L316.737 148.57L313.315 148.582L312.234 149.626L310.277 148.834L309.076 149.794L308.332 149.47L304.225 151.043L303.493 155.833L304.069 159.579L307.887 168.643L308.524 168.919L309.592 166.074L310.553 165.918L309.556 163.685L311.802 163.301L311.442 166.086L312.906 165.786L314.107 167.767L314.095 171.104L315.2 173.805L316.04 174.31L317.241 173.781L316.076 172.113L316.472 171.188L317.589 172.905L319.594 172.893L319.979 174.442L321.623 175.75L320.951 177.119L321.623 178.92L323.533 180.144L322.236 182.005L323.088 182.666L322.344 183.518L323.088 184.454L321.239 184.334L320.735 185.379L319.39 185.007L319.258 188.644L323.473 187.024L324.433 185.703L325.334 186.087L327.171 184.286L330.701 184.07L329.596 187.312L326.822 187.108L325.766 188.644L325.749 188.671L324.661 192.606L323.07 193.804L323.04 193.968L322.852 194.033L322.5 196.988L320.207 195.871L317.901 198.02L316.653 196.976L316.16 197.912L317.049 199.137L315.224 199.569L314.683 200.506L307.972 199.497L306.002 201.802L306.315 204.023L305.126 204.768L302.424 205.032L300.395 206.352L299.182 205.944L297.465 207.553L293.839 206.592L292.146 204.852L290.525 206.184L287.824 205.644L285.626 202.739L282.961 202.366L282.337 201.55L280.752 201.922L277.774 204.672L274.844 205.632L274.724 206.652L275.517 207.061L272.539 208.897L274.088 209.15L276.753 207.589L277.954 207.961L275.132 210.23L275.805 210.278L275.337 212.307L277.534 211.407L277.822 213.58L279.131 213.496L279.827 211.779L279.431 211.046L280.44 211.022L280.079 212.511L280.956 214.12L283.321 211.971L285.146 212.751L289.457 211.455L290.778 209.882L291.882 212.655L293.863 213.712L298.378 219.69L299.651 220.159L300.707 219.306L302.748 219.558L304.622 218.406L309.028 223.244L312.702 220.219L315.164 220.987L316.701 223.328L319.942 224.373L325.658 223.796L327.243 222.836L330.533 227.374L330.388 232.644L332.73 237.026L332.79 238.587L334.051 238.611L335.203 240.868L336.944 239.139L337.677 239.704L338.229 238.179L340.871 237.867L342.071 237.807L344.1 237.291L344.257 236.486L341.435 234.025L344.941 233.281L350.536 238.107L353.742 237.375L357.26 238.503L359.794 241.276L360.202 243.473L358.305 245.382L356.564 245.826L354.583 248.24L354.15 250.557L355.531 248.528L357.608 248.456L357.933 250.569L358.749 251.013L358.797 252.189L358.917 252.838L359.662 253.582L360.766 252.706L364.296 254.422L363.72 255.071L359.397 255.515L359.061 258.18L360.802 258.168L361.955 257.34L363.264 256.571L367.022 256.655L367.898 258.252L373.434 258.144L375.03 259.825L378.969 260.773L381.526 256.667L383.039 257.22L387.434 261.926L386.941 263.258L385.621 263.174L384.384 264.447L384.912 265.456L388.046 265.936L388.202 266.788L387.482 266.716L388.61 268.529L387.71 269.585L389.619 269.345L391.756 270.39L391.264 273.091L392.645 276.501L396.019 279.606L397.976 280.019L400.474 280.763L402.095 279.935L402.287 280.583L402.659 281.063L406.177 280.115L408.074 282.432L410.379 281.519L413.057 283.812L416.923 284.365L419.709 286.225L421.078 285.709L426.12 287.57L431.247 293.225L436.038 296.814L436.471 298.039L438.968 299.155L439.028 300.188L437.767 300.452L437.335 301.52L439.7 304.246L437.719 304.702L438.199 305.866L437.287 306.491L436.675 306.983L435.366 306.911L432.496 308.208L429.074 311.737L429.47 314.474L431.404 317.056L430.815 319.277L431.199 321.774L432.172 322.746L432.088 323.947L433.109 323.971L434.573 327.344L432.316 328.809L432.076 331.738L433.133 334.019L431.175 336.409L434.585 336.781L436.206 339.554L434.585 341.127L432.496 340.755L432.124 341.271L432.832 342.399L433.949 343.924L435.066 344.248L435.03 343.48L435.906 343.156L435.546 344.884L437.347 345.641L436.362 348.462L437.599 349.555L436.158 350.455L438.019 351.463L437.875 352.688L440.241 353.949L439.82 354.801L440.481 356.11L439.7 359.123L439.112 359.219L439.856 361.068L438.164 360.888L437.767 361.8L436.939 362.521L436.999 363.697L437.983 363.937L438.32 365.042L437.179 365.582L438.356 367.263L438.932 369.4L438.284 370.3L436.903 369.964L436.711 371.081L434.766 372.533L434.501 373.914L433.781 373.95L433.397 372.893L432.4 373.302L430.155 372.305L429.038 373.109L428.006 371.681L424.536 371.032L424.247 366.11L425.244 364.333L424.151 363.829L422.927 365.342L421.486 364.574L420.585 362.593V357.274L419.529 356.518L418.832 357.13L419.217 356.098L417.007 354.609L416.779 353.66L414.894 353.012L413.405 351.283L413.057 352.364L412.192 352.256L411.244 350.707L409.935 351.067L409.359 353.6L408.266 354.009L407.39 351.8L406.393 353.877L405.889 353.024L406.705 352.1L404.868 351.704L406.261 350.911L406.357 348.846L404.328 346.781L403.175 346.925L404.376 345.473L402.455 343.588L401.854 343.924L401.494 342.964L402.215 343.336L400.594 340.815L400.882 339.35L399.081 338.57L399.861 338.341L399.333 337.825L399.177 338.462L398.817 337.285L396.883 335.952L397.7 334.548L395.995 333.959L393.594 335.4L393.305 334.692L392.861 336.216L391.564 336.421L390.568 335.388L392.249 334.812L392.621 333.287L390.436 334.704L389.715 334.115L389.979 333.299L388.827 333.491L389.283 331.642L387.806 332.291L387.41 331.69L383.232 331.966L382.919 329.481L384.985 327.837L383.496 326.504L386.089 327.152L388.142 325.459L387.326 324.727L387.866 324.883L387.662 322.002L385.453 320.465L383.232 320.537L381.803 322.062L379.653 320.381L378.861 321.474L377.516 321.246L376.015 323.058L372.089 323.166L368.547 326.6L368.151 328.185L365.209 329.241L368.751 330.694L366.374 331.09L366.074 330.19L362.243 330.274L361.571 329.577L358.485 329.673L356.396 330.646L353.274 329.637L349.816 329.769L343.128 332.999L341.759 330.334L337.473 329.061L335.024 327.416L335.576 324.895L337.449 323.226L335.936 322.41L336.236 318.088L341.771 316.359L343.2 314.198L346.646 312.878L346.79 310.453L345.53 309.18L345.073 309.684L342.852 309.3L342.372 306.899L346.646 306.827L347.715 305.89L347.427 304.93L343.284 303.621L337.617 304.114L337.108 303.539L337.064 303.549L337.091 303.52L337.053 303.477L337.624 302.942L338.889 301.568L335.588 298.195L330.725 303.177L329.788 302.036L326.582 302.048L329.092 299.971L326.51 298.399L326.174 297.318L320.471 297.222L319.378 297.186L318.309 295.986L316.929 297.114L315.512 296.838L314.779 298.843L316.172 299.371L316.809 298.183L317.697 298.135L319.258 299.023L320.207 300.776L317.121 301.46L314.227 299.731L312.222 294.233L311.309 294.269L310.901 296.094L309.088 294.677L306.266 295.685L302.556 294.569L301.115 294.293L299.603 294.449L297.922 292.624L299.387 291.039L300.131 290.223L301.644 289.635L301.632 288.746L297.009 287.258L296.553 285.853L290.417 283.152L289.012 279.574L289.997 278.866L289.565 276.705L286.623 273.739L283.453 275.216L285.518 276.429L284.306 278.746L283.057 278.349L282.493 276.765L281.364 277.881L280.704 277.461L279.803 278.277L278.819 281.891L281.148 283.14L279.131 284.736L279.107 287.077L278.602 288.326L275.192 287.834L275.216 286.333L273.62 283.428L271.554 281.735L271.915 280.859L273.764 280.679L273.704 279.61L271.026 277.269L270.125 274.412L267.784 272.539L264.77 268.121L260.748 267.52L260.688 265.852L259.667 265.96L258.935 265.083L258.635 267.34L259.475 267.929L259.788 269.886L260.58 270.15L259.067 270.738L258.227 270.234L255.897 273.055L257.386 275.336L258.491 274.724L258.971 276.693L256.99 276.753L256.522 279.166L257.11 278.409L258.227 278.938L256.534 280.09L256.329 281.063L254.288 280.558L254.264 278.866L250.482 279.55L247.829 277.881L247.865 279.07L246.52 280.318L242.666 276.957L241.765 278.409L240.48 277.425L236.722 280.306L235.629 282.659L232.676 278.794L231.967 279.646L230.454 278.962L230.959 278.77L230.539 277.557L229.482 277.341L229.254 276.357L227.861 276.609L227.369 275.9L226.9 276.405L222.842 274.28L221.221 272.551L216.118 273.199L214.977 271.902L211.135 271.11L208.662 270.978L204.519 275.9L202.238 276.2L199.813 275.372L199.75 275.017L199.621 275.108L197.615 273.499L196.223 275.084L192.753 276.116L190.375 282.503L186.689 281.495L183.531 279.322L181.058 280.018L176.783 278.518L174.586 280.595L171.224 280.366L170.095 282.563L166.914 283.308L162.351 286.969L159.565 286.477L156.059 283.476L152.853 282.587L153.226 281.855L154.847 282.467L155.723 281.999L157.14 283.944L157.86 283.488L160.13 285.613L159.661 282.107L158.917 281.903L158.665 280.787L159.349 280.907L160.13 278.614L158.196 278.974L157.884 278.001L159.061 277.641L158.208 276.813L155.459 276.873L153.694 278.277L152.157 277.353L153.826 275.804L152.385 273.607L151.569 275.924L147.979 273.259L147.222 271.866L148.123 270.594L146.85 270.102L147.15 268.061L145.637 267.557L146.586 267.244L146.826 266.152L144.869 262.094L142.179 259.009L140.366 261.602L145.589 267.52L145.181 268.529L144.304 268.421L144.977 270.234L144.088 272.551L144.268 274.7L142.792 274.604L141.543 276.176L139.297 276.285L139.285 278.145V279.022L139.081 279.646L138.973 280.462L138.277 281.123L137.725 280.294L136.74 281.015L133.366 282.107L133.534 282.972L132.586 283.872L131.949 283.596L131.253 283.116L130.604 284.412L132.658 285.613L135.527 285.697L133.054 286.441L129.668 285.673L126.414 286.501L124.661 286.381L122.872 285.541L122.128 281.411L118.645 281.723L118.417 280.33L119.15 280.366L119.522 278.121L118.441 276.837L117.685 277.485L118.393 274.916L119.114 274.712L119.054 276.957L121.359 273.355L120.963 273.091L121.143 270.57L123.052 271.506L123.941 271.866L124.649 270.798L119.594 269.934L120.963 268.925L120.182 267.076L119.726 266.5L118.429 263.403L119.042 261.854L118.633 261.446L117.469 261.902L116.977 261.001L115.788 261.11L116.64 260.389L117.829 261.29L118.645 260.761L118.405 260.065L116.88 259.933L118.417 254.795L116.376 254.338L112.678 258.492L111.453 258.865L110.757 258.492L110.457 255.335L108.836 254.194L109.088 252.682L109.736 251.769L110.421 244.578L106.771 238.971L106.723 235.61L104.057 234.997L101.908 236.006L100.719 234.445L99.6024 235.514L98.7499 235.07L96.5166 230.231L96.5286 227.002L94.8597 222.764L94.2834 218.646L91.5578 218.394L90.0449 219.222L86.779 223.376L86.5388 222.236L85.098 222.68L84.2095 224.12L83.2369 223.988L82.2524 223.688L82.0122 220.855L80.9796 219.162L79.3707 217.962L78.4942 215.669L78.9504 213.676L80.0311 213.087L79.2746 211.118L79.971 210.194L82.8287 208.813L84.9659 208.861L85.3742 208.057L84.5937 207.685L81.4599 203.099L80.7275 200.758L82.0362 199.245L82.6486 195.943L85.014 200.398L87.3193 201.382L90.6332 201.022L90.6933 200.085L91.1975 198.753L92.7945 198.441L93.1667 196.052L93.8271 197.036L93.3588 197.864L93.0106 201.274L97.7894 200.806L98.1976 199.353L99.5544 198.453L99.1702 197.06L101.572 199.317L105.414 197.588L106.494 198.297L107.455 200.986L110.613 199.641L111.189 202.162L109.988 203.927L115.175 206.844L116.436 208.573L116.929 208.645L116.52 207.145L117.841 206.712L117.433 203.531L118.561 201.922L120.29 201.958L119.978 203.003L121.551 203.159L121.431 204.095L124.061 204.539L125.802 208.609L126.882 207.973L125.946 203.111L123.076 200.53L123.244 195.247L124.601 193.134L124.505 191.009L120.711 184.262L119.294 183.446L118.838 182.914L116.604 183.278L114.947 183.494L114.227 184.286L114.551 185.091L112.942 185.799L111.73 186.555L111.838 187.996L113.05 189.137L108.38 187.54L106.615 188.632L105.69 186.231L104.946 186.315L104.357 184.442L103.145 184.394L102.304 184.694L100.791 182.569L101.175 181.861L100.047 180.865L99.4225 181.141L99.5906 178.091L98.1377 177.683L96.1325 179.076L96.5168 181.537L94.7878 180.865L93.7792 181.693L93.2749 183.542L94.7758 184.286L94.2715 185.079L93.0347 184.802L92.9867 183.062L93.2389 180.793L91.738 180.949L91.2697 181.417L90.3212 179.94L90.7054 178.908L89.0845 179.268L89.0364 180.156L87.8357 178.884L89.6728 178.68L90.9335 176.591L87.6076 173.241L87.5956 172.293L85.5184 173.097L86.0947 173.517L85.6144 174.13L87.8958 174.874L86.671 175.354L86.1908 176.074L84.3537 174.922L83.5012 175.366L85.4103 176.759L83.5492 177.947L85.5304 177.899L85.2182 178.44L85.3263 179.088L85.3983 180.613L84.4978 181.465L84.9901 182.041L82.6847 184.226L81.6041 187.276L81.0518 186.735L79.9351 187.276L82.6367 190.073L84.0415 190.157L87.5596 193.182L89.4567 193.639L89.8049 195.019L88.5802 195.728L88.364 193.951L87.0072 195.091L85.3383 193.446L81.9163 193.338L82.0244 196.208L79.9832 196.964L78.7104 196.244L75.7327 189.869L75.8648 189.137L76.8734 189.173L77.3897 187.384L76.4651 183.074L71.9625 177.563L70.2095 176.291L69.0088 176.483L62.6571 170.408L57.9984 163.493L51.5627 159.219L51.4186 156.89L51.1664 155.797L51.7308 154.873L51.0584 152.976L51.6707 151.091L50.5781 150.731L50.0618 152.003L47.8285 150.323L46.916 151.487L42.8216 149.866L41.9451 150.923L36.9502 150.094L36.3258 148.666L31.2468 144.212L31.1268 140.97L30.0101 138.809L30.5745 136.936L28.6533 134.499L27.2845 133.947L26.9123 134.715L25.2554 133.851L26.0959 132.843L23.3102 127.74L29.83 127.524L29.782 126.396L26.4681 123.874L25.7837 124.211L23.3102 121.365L24.7991 120.573L27.8609 122.158L28.5693 119.036L25.4355 117.331L22.962 117.752L22.2176 117.692L18.9997 118.184L17.1747 116.695L19.1918 117.487L19.9963 117.271L21.8574 117.211L18.2913 114.99L18.0272 115.519L17.3308 116.203L14.9894 115.975L16.6103 113.394L17.763 112.829L18.1592 112.637L18.9757 108.819L18.3514 106.959L20.4886 105.074L20.4045 102.649L17.8351 100.752L15.5537 100.872L12.624 97.8104L11.7715 97.7384L11.2792 99.059L9.56225 97.3302L7.62913 96.3097L6.8967 94.737L5.38382 94.4368L3.15052 95.4573L1.66166 93.9206L1.51758 93.5004L3.76288 92.2278L4.45928 93.4644L7.44902 93.7885L8.66173 94.9651L10.2106 94.821L14.269 98.5427L20.8608 99.9354L24.7991 99.5152L23.9346 97.1021L25.3514 94.4368L26.8403 94.6889L28.8935 96.3817L29.0616 93.0082L30.8266 90.8232L32.5436 90.2829L35.0411 87.9779L31.8112 83.4157L33.3961 80.8706L31.523 77.6411L33.1079 76.0684L38.1749 77.9652L41.4408 80.4384L44.9348 76.0684L45.1509 72.6468L42.2573 68.8891L41.4768 65.9837L40.4202 65.3594L39.4716 63.0303L36.8301 61.0734L37.5985 57.88L34.0565 51.7211L40.4322 51.9733L42.7976 51.0488L43.2899 48.0955L45.0909 44.998L44.7547 43.1852L45.7513 41.7686L49.1012 39.9797L50.3139 39.8597L53.1236 41.3844L55.573 38.6591L59.5473 41.2403L62.0808 41.1563L65.1546 40.508L67.8921 37.5546L73.4754 36.9063L73.2953 32.5123L75.2164 29.1147L73.2112 27.1818L73.5354 23.7963L76.5612 22.3796L78.5183 18.802L78.2302 14.8281L77.0295 13.8317L76.9574 11.6227L79.8631 6.68838L81.7122 6.38824L82.8048 5.29573L82.2285 3.24278L84.0896 1.28589Z" stroke="#2F6BB4"/>
<path d="M331.445 166.626L333.582 166.158L333.114 167.503L330.521 168.427L331.445 166.626Z" stroke="#2F6BB4"/>
<path d="M120.627 285.721V284.16L119.186 283.884L118.754 285.073L119.294 285.949L117.877 286.333L118.393 288.65L119.246 288.458L118.982 286.681L120.627 285.721Z" stroke="#2F6BB4"/>
<path d="M119.462 270.162L117.877 269.309L116.712 267.629L116.929 270.858L118.742 273.403L119.462 270.162Z" stroke="#2F6BB4"/>
<path d="M110.937 262.634L110.481 260.821L109.76 260.041L109.496 260.905L108.596 260.977L109.424 262.31L110.937 262.634Z" stroke="#2F6BB4"/>
<path d="M100.599 245.73L101.488 245.334L101.391 244.446L100.611 244.602L97.5493 249.992L96.8889 249.596L96.7208 253.042L97.105 252.502L97.9815 253.09L97.165 251.133L97.8374 251.121L100.599 245.73Z" stroke="#2F6BB4"/>
<path d="M103.06 240.232L103.745 238.527L102.724 237.639L101.019 238.515L97.4412 238.707L94.6556 243.281L95.0758 244.05L93.8511 244.986L94.0792 248.071L96.0724 246.271L96.3365 245.406L95.6641 244.806L97.2851 243.533L100.191 242.909L101.019 241.384L103.06 240.232Z" stroke="#2F6BB4"/>
<path d="M427.081 374.67L426.217 373.073L424.728 373.085L424.307 374.262L427.081 374.67Z" stroke="#2F6BB4"/>
<path d="M82.8928 3.73589L84.9326 1.69607L84.7041 1.60156L82.843 3.55845L82.8928 3.73589Z" fill="#2F6BB4"/>
<path d="M93.0329 3.7805L93.3131 4.06268L94.8257 3.66526L78.8425 19.6485L79.1329 19.1176L79.0357 17.7777L93.0329 3.7805Z" fill="#2F6BB4"/>
<path d="M100.541 9.81233L99.8913 8.78434L73.9861 34.6895L74.0522 36.301L100.541 9.81233Z" fill="#2F6BB4"/>
<path d="M104.261 16.2768L104.666 17.5499L44.4242 77.7913L45.5494 76.384L45.6434 74.8945L104.261 16.2768Z" fill="#2F6BB4"/>
<path d="M17.5934 116.484L16.0649 116.335L108.539 23.861L108.297 25.7808L17.5934 116.484Z" fill="#2F6BB4"/>
<path d="M57.1885 39.6249L38.0848 58.7286L37.5533 60.9377L58.2056 40.2854L57.1885 39.6249Z" fill="#2F6BB4"/>
<path d="M4.12931 92.6841L2.42432 94.3891L3.24983 95.2412L4.94309 93.5479L4.37743 92.5435L4.12931 92.6841Z" fill="#2F6BB4"/>
<path d="M11.4378 98.9155L10.6019 98.0738L12.2408 96.4349L13.1159 97.2374L11.4378 98.9155Z" fill="#2F6BB4"/>
<path d="M19.0369 101.501L20.002 102.213L22.0228 100.193L21.4754 100.251L20.4942 100.044L19.0369 101.501Z" fill="#2F6BB4"/>
<path d="M28.2109 127.914L25.3883 130.736L25.9807 131.822L29.9459 127.856L28.2109 127.914Z" fill="#2F6BB4"/>
<path d="M30.6614 139.003L31.189 137.252L30.9888 136.998L113.506 54.4807L114.157 55.4584L114.184 55.4806L30.6614 139.003Z" fill="#2F6BB4"/>
<path d="M33.705 146.144L34.5987 146.928L118.289 63.2381L118.396 63.0459L117.772 62.0777L33.705 146.144Z" fill="#2F6BB4"/>
<path d="M42.2086 151.18L40.7697 150.942L122.697 69.0147L123.934 69.455L42.2086 151.18Z" fill="#2F6BB4"/>
<path d="M51.6729 153.291L51.748 153.503L137.528 67.7231L136.286 67.8481L135.95 67.6239L52.1963 151.377L52.2853 151.407L51.6729 153.291Z" fill="#2F6BB4"/>
<path d="M55.4233 161.69L54.4153 161.021L133.106 82.3302L133.485 83.6279L126.806 90.3075L126.488 90.1784L126.291 90.8228L124.329 92.784L124.279 92.7956L124.273 92.8407L55.4233 161.69Z" fill="#2F6BB4"/>
<path d="M60.576 166.722L61.2512 167.724L125.135 103.841L125.209 102.089L60.576 166.722Z" fill="#2F6BB4"/>
<path d="M66.7693 174.069L65.9118 173.249L129.297 109.863L129.54 111.298L66.7693 174.069Z" fill="#2F6BB4"/>
<path d="M72.8319 178.191L73.5862 179.114L131.764 120.936L131.752 120.607L131.819 120.6L131.829 120.871L182.216 70.4839L181.249 69.7734L72.8319 178.191Z" fill="#2F6BB4"/>
<path d="M77.8027 186.76L77.5064 185.378L84.6332 178.252L86.1449 178.215L85.8678 178.695L77.8027 186.76Z" fill="#2F6BB4"/>
<path d="M79.325 196.559L79.67 196.755L82.5395 193.885L82.5308 193.654L82.7632 193.661L85.3528 191.072L84.6561 190.473L84.296 190.451L78.9629 195.784L79.325 196.559Z" fill="#2F6BB4"/>
<path d="M94.3854 182.039L93.6705 182.754L93.8534 181.108L93.6139 181.133L138.121 136.626L137.895 137.42L137.981 137.448L138.254 136.493L203.556 71.1906L204.029 71.5579L204.916 71.5083L138.733 137.691L138.657 137.767L97.6834 178.741L96.7471 179.392L96.7857 179.639L94.518 181.907L94.3937 182.009L94.3854 182.039Z" fill="#2F6BB4"/>
<path d="M102.919 185.01L103.476 184.811L256.149 32.1376L256.296 30.9912L255.659 30.95L102.37 184.239L102.919 185.01Z" fill="#2F6BB4"/>
<path d="M111.453 188.696L110.203 188.269L118.554 179.917L118.868 180.299L126.458 172.71L127.448 172.944L129.237 171.276L129.388 171.456L119.299 181.545L119.272 181.444L119.016 181.133L116.456 183.693L115.562 183.81L114.842 184.602L115.044 185.105L114.41 185.739L113.557 186.115L112.344 186.871L112.409 187.74L111.453 188.696Z" fill="#2F6BB4"/>
<path d="M137.475 173.353L140.71 171.301L143.472 168.54L143.489 169.218L145.482 167.225L143.482 168.289L143.466 167.674L145.281 166.73L147.662 164.349L147.699 164.313L264.929 47.0824L264.22 46.7064L263.956 46.3772L146.793 163.541L146.756 163.578L137.139 173.195L137.475 173.353Z" fill="#2F6BB4"/>
<path d="M152.768 147.382L129.363 170.786L129.25 170.651L127.461 172.32L126.402 172.069L152.809 145.662L152.768 147.382Z" fill="#2F6BB4"/>
<path d="M134.311 130.251L134.368 130.194L192.762 71.8004L191.73 71.1549L133.348 129.537L133.306 129.579L88.7731 174.112L89.6089 174.953L134.311 130.251Z" fill="#2F6BB4"/>
<path d="M87.8958 174.989L86.6145 176.27L86.8053 176.39L87.2856 175.67L88.5103 175.19L87.8958 174.989Z" fill="#2F6BB4"/>
<path d="M85.4314 177.453L85.9009 176.984L86.0249 177.074L85.4314 177.453Z" fill="#2F6BB4"/>
<path d="M136.038 91.2605L133.789 93.5096L133.909 93.624L135.494 92.9637L136.154 91.511L136.038 91.2605Z" fill="#2F6BB4"/>
<path d="M115.933 41.8696L114.77 41.355L29.8382 126.286L30.3966 126.711L30.4249 127.377L115.933 41.8696Z" fill="#2F6BB4"/>
<path d="M107.34 36.9222L107.348 38.5918L27.5027 118.437L26.4162 117.846L107.34 36.9222Z" fill="#2F6BB4"/>
<path d="M24.0802 121.86L24.6393 121.301L23.9248 121.681L24.0802 121.86Z" fill="#2F6BB4"/>
<path d="M74.5807 23.9103L74.15 24.1119L74.1257 24.3653L74.5807 23.9103Z" fill="#2F6BB4"/>
<path d="M42.1517 66.524L71.1074 37.5683L73.0053 37.3479L42.5069 67.8463L42.1517 66.524Z" fill="#2F6BB4"/>
<path d="M33.902 76.4512L33.7225 76.384L32.1376 77.9568L32.2326 78.1206L33.902 76.4512Z" fill="#2F6BB4"/>
<path d="M34.937 87.2785L34.2416 86.2963L40.7627 79.7752L41.7174 80.4981L34.937 87.2785Z" fill="#2F6BB4"/>
<path d="M27.2462 94.9693L25.966 94.7525L24.5492 97.4177L24.6147 97.6007L27.2462 94.9693Z" fill="#2F6BB4"/>
<path d="M239.381 25.1815L238.843 24.0419L203.908 58.9768L204.678 59.8841L239.381 25.1815Z" fill="#2F6BB4"/>
<path d="M249.176 25.5705L251.013 25.0484L251.195 25.2295L242.734 33.6907L244.637 30.8591L244.804 29.9427L249.176 25.5705Z" fill="#2F6BB4"/>
<path d="M125.216 103.759L125.29 102.008L133.756 93.5422L133.98 93.7561L135.565 93.0958L136.226 91.6431L136.045 91.2532L162.081 65.2173L163.252 65.7234L125.216 103.759Z" fill="#2F6BB4"/>
<path d="M133.131 82.3044L144.011 71.4251L145.115 71.9985L133.511 83.6021L133.131 82.3044Z" fill="#2F6BB4"/>
<path d="M129.34 109.821L129.582 111.255L173.335 67.5023L172.542 66.618L129.34 109.821Z" fill="#2F6BB4"/>
<path d="M152.832 147.317L152.873 145.598L255.432 43.0394L256.547 43.602L152.832 147.317Z" fill="#2F6BB4"/>
<path d="M152.001 171.872L269.76 54.1129L269.468 52.7278L151.329 170.867L151.33 171.06L152.001 171.872Z" fill="#2F6BB4"/>
<path d="M152.761 181.297L152.555 181.841L152.134 181.924L150.001 184.057L148.917 185.79L148.925 185.829L127.33 207.424L127.496 208.289L126.416 208.925L126.24 208.514L99.3672 235.387L100.216 235.829L101.333 234.761L101.479 234.952L149.068 187.363L148.869 186.367L148.993 186.169L149.088 186.647L278.814 56.9215L276.797 57.2606L152.761 181.297Z" fill="#2F6BB4"/>
<path d="M155.98 191.618L291.299 56.2987L290.323 55.5969L290.225 55.6956L290.587 55.9987L288.114 58.2077L287.967 57.9531L183.289 162.631L183.585 163.5L183.569 163.496L183.278 162.642L154.758 191.163L155.98 191.618Z" fill="#2F6BB4"/>
<path d="M186.651 171.132L186.836 172.624L294.062 65.3982L293.549 64.2334L186.651 171.132Z" fill="#2F6BB4"/>
<path d="M166.985 204.337L201.387 169.936L201.407 169.916L299.771 71.551L299.04 70.7175L298.965 70.6794L165.701 203.944L166.985 204.337Z" fill="#2F6BB4"/>
<path d="M174.683 206.824L175.268 207.917L305.919 77.2652L304.816 76.6916L174.683 206.824Z" fill="#2F6BB4"/>
<path d="M210.36 184.687L210.227 183.142L309.016 84.3536L309.243 85.804L210.36 184.687Z" fill="#2F6BB4"/>
<path d="M186.283 230.811L187.387 230.775L189.303 229.468L314.476 104.295L313.974 103.12L186.283 230.811Z" fill="#2F6BB4"/>
<path d="M210.272 220.361L319.445 111.189L318.273 110.683L202.359 226.597H202.612L203.48 227.154L209.404 221.23L209.442 221.887L210.371 220.958L209.455 220.899L209.42 220.306L210.272 220.361Z" fill="#2F6BB4"/>
<path d="M270.56 171.636L270.148 172.348L326.272 116.224L326.08 116.218L325.55 115.268L217.106 223.712L217.795 224.701L269.95 172.546L270.497 171.6L270.56 171.636Z" fill="#2F6BB4"/>
<path d="M215.27 239.088L334.154 120.204L334.125 120.132L333.235 119.445L269.704 182.977L269.611 183.205L269.551 183.209L269.605 183.075L214.467 238.213L215.27 239.088Z" fill="#2F6BB4"/>
<path d="M216.809 247.734L216.394 248.845L185.008 280.231L186.001 280.915L215.707 251.209L216.122 250.098L305.17 161.05L304.684 159.895L304.679 159.864L216.809 247.734Z" fill="#2F6BB4"/>
<path d="M201.894 276.189L308.936 169.147L308.502 168.959L308.189 168.216L200.643 275.762L201.894 276.189Z" fill="#2F6BB4"/>
<path d="M285.339 202.928L286.241 203.054L286.521 203.424L315.82 174.125L315.814 174.121L315.33 172.937L285.339 202.928Z" fill="#2F6BB4"/>
<path d="M294.806 207.001L322.441 179.366L322.238 179.236L321.873 178.257L293.846 206.283L294.453 206.908L294.806 207.001Z" fill="#2F6BB4"/>
<path d="M311.71 200.282L313.168 200.501L323.815 189.854L323.907 189.356L323.909 189.356L323.817 189.852L329.151 184.518L327.785 184.602L325.948 186.403L325.696 186.295L311.71 200.282Z" fill="#2F6BB4"/>
<path d="M355.409 170.123L353.679 170.175L361.236 162.618L361.789 163.544L361.646 163.886L355.409 170.123Z" fill="#2F6BB4"/>
<path d="M358.089 155.581L357.266 154.726L347.567 164.424L347.342 166.327L358.089 155.581Z" fill="#2F6BB4"/>
<path d="M353.471 146.659L353.682 148.125L343.426 158.381L343.154 158.178L343.379 156.751L353.471 146.659Z" fill="#2F6BB4"/>
<path d="M348.426 141.519L347.642 140.625L338.666 149.601L339.589 150.356L348.426 141.519Z" fill="#2F6BB4"/>
<path d="M343.258 133.147L343.382 133.158L344.063 134.02L331.841 146.242L330.091 146.701L329.755 146.65L343.258 133.147Z" fill="#2F6BB4"/>
<path d="M338.253 127.968L337.511 127.032L323.293 141.249L323.913 142.307L338.253 127.968Z" fill="#2F6BB4"/>
<path d="M317.639 146.904L315.651 148.891L317.335 148.886L318.229 147.992L317.639 146.904Z" fill="#2F6BB4"/>
<path d="M312.361 164.044L310.86 165.545L311.167 166.234L310.207 166.39L309.313 168.769L312.112 165.971L312.361 164.044Z" fill="#2F6BB4"/>
<path d="M317.62 172.324L317.087 171.504L316.691 172.428L317.03 172.915L317.62 172.324Z" fill="#2F6BB4"/>
<path d="M333.504 166.625L331.526 168.603L333.729 167.818L334.197 166.474L333.504 166.625Z" fill="#2F6BB4"/>
<path d="M342.934 169.058L344.01 167.982L344.391 168.382L344.823 168.846L343.004 170.665L342.854 169.199L342.934 169.058Z" fill="#2F6BB4"/>
<path d="M337.765 174.227L334.44 177.552L335.863 177.806L340.514 173.155L339.312 172.993L337.765 174.227Z" fill="#2F6BB4"/>
<path d="M311.976 94.933L177.647 229.262L176.344 228.888L311.521 93.7107L311.976 94.933Z" fill="#2F6BB4"/>
<path d="M228.63 24.0699L228.619 24.076L228.621 24.0789L228.63 24.0699Z" fill="#2F6BB4"/>
<path d="M239.431 35.3162L206.975 67.7715L207.354 69.0701L241.613 34.8116L239.558 35.6853L239.431 35.3162Z" fill="#2F6BB4"/>
<path d="M126.733 90.3806L126.453 90.6603L126.56 90.3105L126.733 90.3806Z" fill="#2F6BB4"/>
<path d="M151.282 171.61L151.282 171.636L152.029 172.54L123.708 200.861L123.69 200.845L123.744 199.148L151.282 171.61Z" fill="#2F6BB4"/>
<path d="M81.4638 219.381L80.5031 218.664L98.0071 201.16L98.4034 201.121L98.5431 200.624L100.819 198.348L101.684 199.161L81.4638 219.381Z" fill="#2F6BB4"/>
<path d="M82.8114 204.494L86.3034 201.002L87.479 201.504L83.4923 205.49L82.8114 204.494Z" fill="#2F6BB4"/>
<path d="M97.1427 227.317L97.1423 227.427L116.473 208.097L115.79 207.16L115.752 207.139L96.6995 226.192L97.1427 227.317Z" fill="#2F6BB4"/>
<path d="M101.817 244.799L100.602 246.014L98.3967 249.897L100.126 248.168L101.213 246.046L102.102 245.65L102.006 244.761L101.817 244.799Z" fill="#2F6BB4"/>
<path d="M97.4578 250.836L98.0523 250.241L97.5029 249.912L97.4578 250.836Z" fill="#2F6BB4"/>
<path d="M107.385 239.287L108.024 240.27L156.054 192.24L154.832 191.784L107.384 239.232L107.385 239.287Z" fill="#2F6BB4"/>
<path d="M110.59 249.566L110.767 247.712L161.383 197.095L161.666 198.491L110.59 249.566Z" fill="#2F6BB4"/>
<path d="M109.791 262.228L110.992 261.026L110.374 260.357L110.11 261.221L109.21 261.293L109.791 262.228Z" fill="#2F6BB4"/>
<path d="M113.175 258.844L112.067 259.18L111.476 258.864L165.781 204.56L167.065 204.953L117.296 254.722L116.99 254.654L113.955 258.063L113.175 258.844Z" fill="#2F6BB4"/>
<path d="M119.043 263.718L119.374 264.507L169.776 214.104L169.952 213.233L171.454 211.731L172.228 211.652L175.275 208.606L174.693 207.51L171.011 211.192L170.277 211.266L170.111 212.092L119.409 262.794L119.043 263.718Z" fill="#2F6BB4"/>
<path d="M121.648 272.418L122.711 271.354L123.666 271.822L123.847 271.895L121.797 273.945L121.973 273.671L121.577 273.407L121.648 272.418Z" fill="#2F6BB4"/>
<path d="M121.241 284.687L119.814 286.113L119.908 286.265L119.572 286.356L118.635 287.293L118.94 288.665L119.727 287.878L119.596 286.997L121.241 286.037V284.687Z" fill="#2F6BB4"/>
<path d="M123.221 284.384L122.964 282.963L142.401 263.527L143.187 264.418L123.221 284.384Z" fill="#2F6BB4"/>
<path d="M131.52 286.269L132.887 286.58L133.531 285.936L133.272 285.928L132.382 285.408L131.52 286.269Z" fill="#2F6BB4"/>
<path d="M139.788 279.68L138.546 280.921L138.339 280.61L137.354 281.33L136.031 281.759L139.903 277.886L139.9 278.461V279.337L139.788 279.68Z" fill="#2F6BB4"/>
<path d="M144.478 274.989L144.849 274.618L144.719 273.07L141.254 276.536L142.157 276.492L143.406 274.919L144.478 274.989Z" fill="#2F6BB4"/>
<path d="M153.327 278.003L152.771 277.669L154.44 276.12L154.08 275.572L202.467 227.185H202.564L203.526 227.803L153.327 278.003Z" fill="#2F6BB4"/>
<path d="M157.543 283.971L157.239 284.276L158.142 285.049L158.946 284.245L158.474 283.803L157.754 284.26L157.543 283.971Z" fill="#2F6BB4"/>
<path d="M215.297 239.757L214.494 238.882L172.64 280.736L174.211 280.843L215.297 239.757Z" fill="#2F6BB4"/>
<path d="M217.129 224.385L217.817 225.374L160.334 282.858L160.275 282.423L159.531 282.219L159.488 282.027L217.129 224.385Z" fill="#2F6BB4"/>
<path d="M170.933 282.443L170.709 282.879L170.433 282.944L170.933 282.443Z" fill="#2F6BB4"/>
<path d="M148.608 270.86L189.668 229.799L189.644 229.791L187.339 231.363L186.396 231.394L147.48 270.31L147.464 270.417L148.608 270.86Z" fill="#2F6BB4"/>
<path d="M176.417 229.511L177.601 229.851L177.757 229.848L145.349 262.256L144.568 261.36L176.417 229.511Z" fill="#2F6BB4"/>
<path d="M170.037 225.706L169.712 224.353L123.289 270.776L124.722 271.021L170.037 225.706Z" fill="#2F6BB4"/>
<path d="M118.435 277.308L119.007 275.232L119.728 275.027L119.701 276.042L118.435 277.308Z" fill="#2F6BB4"/>
<path d="M123.17 187.859L137.187 173.842L137.474 173.977L140.907 171.8L123.774 188.933L123.17 187.859Z" fill="#2F6BB4"/>
<path d="M92.3075 218.722L110.958 200.071L111.227 199.957L111.51 201.197L93.843 218.864L92.3075 218.722Z" fill="#2F6BB4"/>
<path d="M87.5963 223.433L87.393 223.692L87.3834 223.646L87.5963 223.433Z" fill="#2F6BB4"/>
<path d="M118.16 204.731L120.624 202.268L120.904 202.274L120.592 203.318L121.191 203.378L118.351 206.218L118.16 204.731Z" fill="#2F6BB4"/>
<path d="M161.685 197.775L161.403 196.379L186.609 171.173L186.795 172.666L161.685 197.775Z" fill="#2F6BB4"/>
<path d="M170.055 224.992L169.73 223.639L210.198 183.171L210.331 184.716L170.055 224.992Z" fill="#2F6BB4"/>
<path d="M216.591 273.354L215.806 272.462L276.043 212.225L275.951 212.623L278.148 211.722L278.157 211.788L216.591 273.354Z" fill="#2F6BB4"/>
<path d="M224.82 275.309L225.921 275.886L290.022 211.785L287.623 212.507L224.82 275.309Z" fill="#2F6BB4"/>
<path d="M233.84 279.829L233.29 279.109L232.582 279.962L232.202 279.79L295.978 216.014L296.699 216.97L233.84 279.829Z" fill="#2F6BB4"/>
<path d="M245.043 278.811L245.939 279.592L259.46 266.072L259.549 265.399L259.815 265.717L305.986 219.545L305.236 218.722L304.967 218.887L245.043 278.811Z" fill="#2F6BB4"/>
<path d="M256.199 281.195L254.903 280.874L254.902 280.815L257.353 278.363L257.136 279.482L257.724 278.725L258.365 279.029L256.199 281.195Z" fill="#2F6BB4"/>
<path d="M271.64 277.585L271.657 277.599L325.017 224.239L323.152 224.427L271.246 276.333L271.64 277.585Z" fill="#2F6BB4"/>
<path d="M275.348 285.77L274.753 284.688L280.256 279.185L279.628 281.49L275.348 285.77Z" fill="#2F6BB4"/>
<path d="M283.351 277.767L285.025 276.094L284.067 275.532L286.911 274.207L331.083 230.036L331.13 228.311L281.529 277.911L281.978 278.197L283.107 277.08L283.351 277.767Z" fill="#2F6BB4"/>
<path d="M290.603 282.377L290.13 281.173L333.367 237.936L333.404 238.903L334.065 238.915L290.603 282.377Z" fill="#2F6BB4"/>
<path d="M297.167 286.169L297.537 287.306L348.611 236.232L347.71 235.455L297.049 286.117L297.167 286.169Z" fill="#2F6BB4"/>
<path d="M302.038 294.668L301.73 294.609L300.268 294.759L356.613 238.414L357.874 238.819L357.88 238.825L302.038 294.668Z" fill="#2F6BB4"/>
<path d="M317.735 301.776L318.915 301.514L320.3 300.129L319.872 299.339L319.58 299.172L317.26 301.492L317.735 301.776Z" fill="#2F6BB4"/>
<path d="M329.938 302.354L328.254 302.36L372.117 258.498L373.828 258.464L329.938 302.354Z" fill="#2F6BB4"/>
<path d="M339.867 304.287L338.231 304.429L338.145 304.332L384.275 258.201L385.085 259.069L339.867 304.287Z" fill="#2F6BB4"/>
<path d="M356.016 298.323L356.426 299.555L356.434 299.543L356.025 298.313L388.163 266.175L388.66 266.251L388.816 267.104L388.096 267.032L388.437 267.579L365.683 290.333L365.666 290.351L346.331 309.685L346.144 309.496L345.688 310L344.538 309.801L347.195 307.144L347.261 307.143L348.329 306.206L348.284 306.055L356.016 298.323Z" fill="#2F6BB4"/>
<path d="M338.407 329.472L338.087 329.377L337.332 328.869L367.55 298.651L367.566 298.635L392.142 274.059L392.626 275.253L338.407 329.472Z" fill="#2F6BB4"/>
<path d="M373.948 304.116L373.961 304.102L397.666 280.397L398.589 280.358L398.59 280.334L399.219 280.522L398.535 281.206L398.534 281.207L395.644 284.097L395.636 284.105L374.668 305.072L374.659 305.081L348.932 330.809L345.688 332.375L373.948 304.116Z" fill="#2F6BB4"/>
<path d="M383.62 307.983L361.695 329.908L359.963 329.962L381.706 308.22L381.735 308.191L392.588 297.337L392.603 297.322L408.008 281.917L408.688 282.747L408.965 282.638L392.969 298.634L392.445 298.198L392.442 298.21L392.961 298.642L383.649 307.954L383.62 307.983Z" fill="#2F6BB4"/>
<path d="M314.738 220.978L266.153 269.563L266.833 270.56L315.902 221.492L315.778 221.303L314.738 220.978Z" fill="#2F6BB4"/>
<path d="M258.68 277.036L259.413 276.303L259.585 277.008L258.68 277.036Z" fill="#2F6BB4"/>
<path d="M358.115 248.775L312.321 294.569L312.836 294.549L313.152 295.415L358.432 250.135L358.223 248.771L358.115 248.775Z" fill="#2F6BB4"/>
<path d="M363.255 255.497L364.307 254.445L364.91 254.738L364.334 255.386L363.255 255.497Z" fill="#2F6BB4"/>
<path d="M360.26 258.492L321.212 297.54L322.862 297.568L363.065 257.364L362.569 257.656L361.416 258.484L360.26 258.492Z" fill="#2F6BB4"/>
<path d="M311.515 296.409L311.814 295.076L310.934 295.955L311.515 296.409Z" fill="#2F6BB4"/>
<path d="M291.454 210.353L291.392 210.198L290.251 211.556L291.454 210.353Z" fill="#2F6BB4"/>
<path d="M195.54 233.464L195.564 233.392L195.469 233.487L195.54 233.464Z" fill="#2F6BB4"/>
<path d="M417.537 284.68L417.161 284.626L380.73 321.058L381.671 321.794L418.285 285.18L417.537 284.68Z" fill="#2F6BB4"/>
<path d="M427.071 288.256L383.757 331.571L383.569 330.081L385.101 328.548L385.599 328.152L385.545 328.104L386.286 327.364L386.704 327.468L388.757 325.775L388.292 325.358L388.458 325.192L388.481 325.199L388.479 325.171L426.026 287.624L426.735 287.886L427.071 288.256Z" fill="#2F6BB4"/>
<path d="M432.884 294.306L431.925 293.587L390.743 334.769L391.05 335.019L393.235 333.603L393.122 334.068L432.884 294.306Z" fill="#2F6BB4"/>
<path d="M421.423 363.4L421.947 364.553L437.373 349.128L436.977 348.778L437.476 347.347L421.423 363.4Z" fill="#2F6BB4"/>
<path d="M426.721 371.642L425.308 371.378L440.815 355.87L441.095 356.425L440.801 357.563L426.721 371.642Z" fill="#2F6BB4"/>
<path d="M438.121 370.427L439.395 369.153L439.546 369.715L438.898 370.616L438.121 370.427Z" fill="#2F6BB4"/>
<path d="M437.361 371.187L436.64 371.907L437.325 371.396L437.361 371.187Z" fill="#2F6BB4"/>
<path d="M435.116 374.229L435.304 373.243L434.365 374.183L434.395 374.266L435.116 374.229Z" fill="#2F6BB4"/>
<path d="M432.859 341.779L418.872 355.767L417.869 355.092L435.445 337.516L436.064 338.575L433.499 341.139L433.11 341.07L432.738 341.586L432.859 341.779Z" fill="#2F6BB4"/>
<path d="M432.93 329.125L434.985 327.792L435.166 327.61L434.658 326.441L408.282 352.817L408.759 354.018L410.301 352.476L410.549 351.383L411.714 351.062L432.866 329.91L432.93 329.125Z" fill="#2F6BB4"/>
<path d="M431.953 317.284L432.018 317.371L431.468 319.446L404.344 346.57L404.99 345.788L404.212 345.025L431.953 317.284Z" fill="#2F6BB4"/>
<path d="M391.182 335.704L391.644 335.545L391.331 335.858L391.182 335.704Z" fill="#2F6BB4"/>
<path d="M399.511 337.863L438.422 298.952L439.581 299.471L400.435 338.617L399.947 338.141L399.791 338.777L399.511 337.863Z" fill="#2F6BB4"/>
<path d="M400.361 338.69L400.024 339.028L399.695 338.885L400.361 338.69Z" fill="#2F6BB4"/>
<path d="M406.97 354.129L407.1 353.999L407.007 354.192L406.97 354.129Z" fill="#2F6BB4"/>
<path d="M336.794 319.223L336.851 318.404L337.958 318.058L336.794 319.223Z" fill="#2F6BB4"/>
</svg>
