<svg width="269" height="265" viewBox="0 0 269 265" fill="none" xmlns="http://www.w3.org/2000/svg">
<path d="M84.3693 2.82619L82.7724 2.64608L82.4362 2.41797L80.1309 5.63548L78.8942 5.31131L76.1566 6.55989L75.208 6.00765L73.0348 9.8494L71.5099 10.3657L68.208 20.0181L64.0415 23.7278L63.4892 25.8528L56.285 29.2264L49.8253 27.4495L48.1203 27.7497L39.8115 21.7709L35.2008 22.7914L32.9435 19.5619L30.9623 19.2257L31.4306 21.8309L30.2419 24.2921L30.5541 32.3238L29.4974 34.4728L27.9966 35.1811L27.048 38.9388L23.6381 45.746L18.367 52.5651L12.3275 57.4394L9.03757 58.6639L6.23994 56.4789L4.88314 57.2113L2.89 64.9428L2.52979 69.0967L3.11811 70.2252L15.2812 74.5953L20.3601 77.8247L23.494 81.1623L24.1423 85.9045L25.6072 89.158L25.367 90.5866L23.6861 92.3035L23.8302 94.1763L24.5986 94.3804L23.8662 97.0456L24.6947 98.6664L26.2796 94.7646L30.5661 94.7526L33.1836 95.9051L39.5953 101.596L48.7927 107.55L57.7739 118.728L63.8157 131.436L63.6013 132.177L65.5464 138.936L65.3783 144.026L62.7848 149.236L60.5635 150.017L53.0832 157.268L51.5583 161.686L51.6063 163.835L53.2753 171.327L52.4468 175.781L55.5326 178.386L57.3216 181.987L59.639 183.236L62.0043 188.482L61.0438 189.179L61.452 190.403L64.1416 189.515L67.1313 191.34L66.7951 193.957L64.826 195.422L63.7093 198.855L64.862 205.038L66.4229 208.856L68.9564 210.537L71.5619 210.585L72.4864 212.398L74.1674 211.137L77.6374 209.612L79.2343 210.152L79.9308 213.766L81.7918 216.431L83.4488 217.248L84.9617 221.474L88.1435 217.836L89.5964 216.756L91.0372 216.251L91.3614 213.214L94.7113 211.437L91.6376 209.36L89.8365 202.037L91.2173 192.84L91.3494 189.383L90.3768 188.723L90.761 186.189L97.6771 181.963L103.152 180.163L107.127 179.995L114.307 181.435L114.811 184.377L113.298 188.434L113.971 192.012L113.502 193.201L112.398 193.333L111.809 195.206L116.744 198.519L117.765 198.483L118.473 197.823L119.95 196.358L121.019 197.811L122.64 198.003L124.032 199.756L123.624 200.68L124.717 202.601L125.917 202.961L125.99 205.338L128.079 206.143L128.235 207.523L130.108 208.748L131.525 213.646L132.005 214.522L134.743 222.59L135.643 223.923L136.472 224.751L139.449 224.307L140.098 224.871L138.849 226.624L137.516 226.948L137.072 228.797L137.588 230.454L139.413 231.654L139.173 232.231L137.228 232.159L137.708 234.644L138.669 235.148L137.348 236.024L137.288 237.165L139.786 238.378L138.369 239.098L138.237 240.43L139.774 240.671L139.281 243.432L140.254 245.293L137.696 246.289L136.424 247.574L135.643 247.154L135.667 249.242L137.816 253.817L140.266 254.645L141.154 253.36L143.34 255.629L147.506 257.19L147.278 258.667L149.415 260.011L148.587 260.912L148.671 263.409L149.847 264.429L151 264.333L152.165 263.721L151.66 262.785L151.576 260.648L150.076 259.639L152.177 258.271L151.36 256.074L152.357 255.869L152.405 252.544L152.165 251.163L151.216 251.139L150.988 249.435L149.043 246.877L150.1 243.336L149.055 238.486L149.487 235.496L151.552 234.764L153.029 237.081L155.058 235.196L151.901 229.397L153.606 228.317L155.551 229.133L156.283 231.018L157.496 230.622L157.52 229.769L156.92 229.794L157.232 227.693L156.139 226.744L154.71 226.972L154.254 226.024L155.383 224.223L154.458 222.998L156.163 221.005L160.281 219.457L159.657 217.944V216.804L158.865 214.763L159.285 213.634L161.098 212.037L164.46 211.005L165.48 209.744L178.184 209.78L182.759 210.741L183.827 213.202L184.271 217.356L185.64 218.844L186.637 221.966L186.577 223.527L185.448 224.139L185.736 225.327L184.788 226.24L186.397 228.905L186.253 229.938L186.853 229.854L187.477 225.544L189.35 225.868L189.987 227.536L191.343 228.161L193.229 230.934L192.952 233.431L191.764 233.443L193.541 236.024L194.802 236.156L199.172 239.638L199.928 241.103L199.1 242.675L200.925 243.66L202.498 247.994L204.455 247.754L207.877 246.733L210.014 247.238L213.28 250.515L212.476 252.124L213.388 252.796L212.644 254.009L215.309 257.862L215.117 258.511L217.327 258.271L219.908 259.987L221.469 258.283L227.136 259.063L227.581 258.295L226.968 255.797L225.107 254.693L223.93 254.969L223.63 252.712L221.361 252.244L221.013 251.175L219.908 250.851L221.337 248.774L220.905 246.865L222.454 245.665L220.316 244.969L219.74 242.663L217.819 242.555L214.301 240.142L212.464 238.101L211.863 235.772L210.819 234.692L209.426 233.659L208.814 228.881L210.146 227.116L210.074 225.676L209.546 225.039L209.906 223.539L208.465 222.038L208.958 219.937L209.678 219.313L210.843 219.865L211.059 218.16L212.188 217.788L213.256 219.169L215.285 219.937L215.766 218.808L214.997 215.975L217.771 214.09L216.57 213.526L216.33 212.253L215.562 212.277L214.889 209.132L214.229 207.979L213.712 206.467L211.491 205.422L210.615 203.778L210.134 202.613L211.359 202.229L209.846 199.299L209.402 196.202L207.037 191.856L207.925 190.944L206.412 189.587L206.941 187.93L206.04 188.242L204.983 187.27L205.56 185.745L206.556 185.817L205.776 183.284L205.44 181.303L206.28 180.475L202.114 174.256L204.155 174.052V172.395L201.645 171.411L201.009 170.426L201.609 169.166L200.997 167.737L199.868 168.253L198.284 167.713L197.215 169.178L194.886 167.809L194.309 164.327L195.054 160.077L196.41 158.217L194.585 156.776L194.321 154.231L192.436 150.833L191.115 150.701L190.251 149.537L191.043 147.496L188.39 146.007L188.954 144.494L187.91 144.086L187.477 142.081L186.529 141.277L186.181 140.256L185.184 138.828L184.836 137.759L184.127 135.166L181.45 131.516L179.3 130.76L181.294 126.618L178.748 124.277L178.808 121.264L176.455 118.214L177.68 114.084L175.951 110.807L175.506 107.469L177.98 105.248L181.882 104.096L184.355 106.293L184.175 107.793L185.46 109.954L186.649 110.254L186.048 111.743L186.481 112.511L187.597 112.379L189.987 114.588L191.608 112.595L194.669 111.839L198.115 113.064L202.882 113.904L203.867 114.781L205.115 118.838L206.292 120.015L206.232 121.732L210.675 118.946L211.719 121.011L210.531 122.02L211.923 122.968L215.646 122.416L218.984 122.968L218.779 124.157L220.076 124.685L219.992 126.942L221.337 127.782L220.136 128.479L217.819 126.75L217.855 129.751L216.75 131.048L215.105 131.48L212.728 130.904L213.881 132.933L213.028 136.102L217.351 136.318L219.128 137.531L220.617 139.752L217.783 138.876L219.572 141.421L220.989 140.857L221.313 139.536L222.273 139.836L222.634 141.001H221.517L220.52 142.105L221.397 143.594L223.366 143.906L223.966 145.215L225.227 145.094L225.527 144.002L227.256 144.446L227.328 142.657L225.083 140.316L226.584 137.855L235.649 137.135L234.629 135.862L232.359 135.79L233.788 134.277L231.735 133.857L230.967 134.878L230.03 133.161L230.402 132.261L234.004 132.032L234.052 131.216L234.028 129.799L234.941 128.983L236.045 129.163L237.138 130.508L239.263 130.748L238.807 129.775L238.303 129.175L239.191 128.731L240.224 129.403L243.118 127.59L250.01 129.307L251.486 128.359L251.847 126.786L254.644 123.16L254.572 121.468L251.402 120.471L249.217 122.176L245.555 121.348L243.238 121.72L242.781 120.075L239.419 120.363L239.251 117.494L238.435 116.809L235.541 116.942L234.785 116.005L232.684 115.801L230.546 113.628L225.035 112.8L223.906 111.431L224.05 108.922L224.975 107.265L225.972 106.989L226.524 105.728L226.068 104.696L227.4 103.135L223.258 100.626L222.682 99.5335L222.934 97.8887L223.006 97.2284L224.279 97.0123L222.249 92.138L224.459 89.0046L224.711 87.1197L223.066 87.4439L218.611 84.8867L218.623 82.7137L219.728 81.2971L222.177 81.4171L225.227 78.5958L225.011 75.0422L223.726 74.8741L221.085 71.0924L219.572 70.7682L218.455 69.3155L217.627 69.0034L212.968 69.7357L210.819 69.1835L207.541 69.7357L206.508 69.1475L205.476 67.0945L206.196 66.3502L204.935 64.7414L207.697 62.1002L207.325 60.8877L201.261 54.8489L199.328 56.6497L198.632 55.7493L194.741 57.5861L190.131 56.7577L183.407 52.4478L181.318 48.3419L178.016 45.8327L176.395 43.5277L169.299 39.962L166.933 37.729L156.415 33.7672L150.928 29.8293L146.69 30.6097L144.48 29.7813L142.655 30.5137L138.977 29.1857L138.977 29.1783L136.36 27.5096L134.931 24.5922L127.919 25.3005L124.629 23.8719L121.867 23.9199L120.054 21.2427L117.797 21.2787L114.795 18.8656L114.903 17.4849L110.677 12.3466L107.375 14.0273L106.078 11.6262L104.457 10.6658L103.436 11.002L101.791 9.76539L101.551 7.47233L100.074 5.89961L97.3489 6.21172L92.9303 3.82263L85.6781 4.39891L84.3693 2.82619Z" stroke="#A2CF6C"/>
<path d="M203.639 249.11L203.026 249.266L201.273 249.399L200.013 250.275L199.616 251.98L198.536 252.208L197.791 254.777L198.524 255.701L200.133 254.021L202.27 253.624L203.783 254.957L204.515 256.398L204.875 254.345L203.843 253.613L204.179 251.223L203.639 249.11Z" stroke="#A2CF6C"/>
<path d="M75.272 217.848L73.5911 217.5L72.1382 216.179L71.0336 220.597L71.3458 222.086L73.1108 221.558L72.4864 222.866L74.2154 223.899L73.6991 222.278L75.272 217.848Z" stroke="#A2CF6C"/>
<path d="M68.7042 212.542L67.1794 212.037L66.1587 211.053L65.1862 212.614L65.5224 215.999L64.7059 216.912L65.3543 218.904L66.1107 218.796L66.4709 217.56L65.9787 215.963L68.0559 215.003L67.6356 213.238L68.7042 212.542Z" stroke="#A2CF6C"/>
<path d="M50.7658 177.846L50.3936 176.885L50.5377 174.784L48.5565 175.949L48.7727 176.885L50.0454 177.077L49.8293 179.214L50.7658 177.846Z" stroke="#A2CF6C"/>
<path d="M244.727 137.675L243.55 136.715L242.841 136.45L242.889 137.471L241.809 138.491L240.716 136.883L238.423 137.975L236.382 137.843L236.262 138.828L238.231 140.496L241.22 140.328L244.246 138.876L244.727 137.675Z" stroke="#A2CF6C"/>
<path d="M203.579 38.5213L202.138 37.5369L199.436 38.0892L199.148 39.3737L197.263 39.2177L195.642 41.1385L193.493 41.1025L193.313 42.123L189.711 44.5601L191.836 45.2204L192.46 45.0043L192.352 44.0199L194.201 44.0919V44.9083L192.568 45.1844L196.362 46.2169L201.057 50.3228L202.822 51.0071L202.858 52.7359L201.297 54.8129L206.893 59.6871L207.601 58.8347L209.246 59.6871L211.287 59.0988L212.007 60.4074L213.544 60.3834L215.309 59.5551L216.102 60.0112L220.472 59.2549L223.534 55.5932L225.431 55.0289L224.063 52.3637L219.776 51.0791L217.327 49.4344L217.879 46.9132L219.752 45.2324L218.239 44.4161L218.539 40.0941L213.989 40.3822L211.659 41.3186L210.351 40.9104L209.894 39.818L208.802 39.95L208.369 41.0545L205.812 40.034L204.707 38.2572L203.579 38.5213Z" stroke="#A2CF6C"/>
<path d="M17.7005 76.0585L18.726 76.7106L91.1043 4.33228L89.282 4.47709L17.7005 76.0585Z" fill="#A2CF6C"/>
<path d="M35.5068 22.6656L30.9578 27.2145L31.0206 28.8293L37.0064 22.8435L35.8154 23.1071L35.5068 22.6656Z" fill="#A2CF6C"/>
<path d="M11.8867 58.1479L3.38389 66.6507L3.22461 68.4875L18.2026 53.5095L12.9421 57.7551L11.8867 58.1479Z" fill="#A2CF6C"/>
<path d="M10.5751 72.9993L9.34093 72.5559L53.3352 28.5616L54.6509 28.9235L10.5751 72.9993Z" fill="#A2CF6C"/>
<path d="M24.3145 82.9843L24.1128 81.5086L99.2401 6.38124L100.689 6.21532L100.88 6.41875L24.3145 82.9843Z" fill="#A2CF6C"/>
<path d="M24.4448 94.492L24.622 94.5391L106.877 12.2839L106.693 11.9419L105.97 11.5137L24.341 93.1426L24.4448 94.492Z" fill="#A2CF6C"/>
<path d="M34.3303 96.6931L33.7982 96.2208L33.3308 96.015L113.725 15.621L114.482 16.5414L34.3303 96.6931Z" fill="#A2CF6C"/>
<path d="M40.2099 101.911L40.6738 102.212L120.935 21.951L120.669 21.5584L119.633 21.5749L39.7261 101.482L40.2099 101.911Z" fill="#A2CF6C"/>
<path d="M47.8742 106.874L46.856 106.214L77.4275 75.6428L76.9393 76.4597L76.9029 77.845L47.8742 106.874Z" fill="#A2CF6C"/>
<path d="M52.8197 112.113L53.5671 113.043L78.3531 88.257L78.2841 87.5288L78.0285 86.904L52.8197 112.113Z" fill="#A2CF6C"/>
<path d="M58.7238 119.749L58.3885 119.043L58.1047 118.69L76.705 100.09L76.6472 101.825L58.7238 119.749Z" fill="#A2CF6C"/>
<path d="M62.0055 126.652L62.5461 127.789L86.6163 103.718L86.4318 103.189L86.508 103.195L86.6613 103.635L114.612 75.6848L113.56 75.3302L113.491 75.1963L114.723 75.6115L124.331 66.0034L123.686 64.9711L113.481 75.176L113.468 75.1507L85.5027 103.116L85.5381 103.119L62.0055 126.652Z" fill="#A2CF6C"/>
<path d="M71.4252 130.772L69.5941 130.925L90.654 109.865L90.6252 109.856L163.842 36.6395L165.06 37.0985L91.9405 110.218L91.9694 110.227L71.4252 130.772Z" fill="#A2CF6C"/>
<path d="M81.2022 131.179L82.7144 131.345L87.3134 126.746L86.793 125.588L81.2022 131.179Z" fill="#A2CF6C"/>
<path d="M97.9713 116.088L95.2905 118.769L93.4583 118.923L97.1831 115.198L97.9713 116.088Z" fill="#A2CF6C"/>
<path d="M139.93 36.8646L139.964 37.5978L139.719 38.7538L100.802 77.6699L99.502 77.2927L139.93 36.8646Z" fill="#A2CF6C"/>
<path d="M138.08 28.5302L137.055 27.8771L91.1904 73.7422L91.2516 73.7944L93.0898 73.5203L138.08 28.5302Z" fill="#A2CF6C"/>
<path d="M127.781 25.2895L128.533 25.6162L129.199 25.549L86.9508 67.797L86.9426 67.7671L77.0172 77.6925L77.0465 76.5787L77.9365 75.0956L81.189 71.8431L86.8816 67.5468L86.833 67.3715L82.2089 70.8614L127.781 25.2895Z" fill="#A2CF6C"/>
<path d="M75.8226 6.32336L76.7254 6.84896L73.9621 9.61224L75.8226 6.32336Z" fill="#A2CF6C"/>
<path d="M73.2864 10.288L72.1245 10.6814L71.7249 11.8495L73.2864 10.288Z" fill="#A2CF6C"/>
<path d="M45.7759 25.9362L44.8004 25.2342L24.5335 45.5011L24.2527 46.0617L19.4934 52.2188L45.7759 25.9362Z" fill="#A2CF6C"/>
<path d="M146.239 30.518L147.459 30.9755L139.986 38.448L140.131 37.7649L140.081 36.6755L146.239 30.518Z" fill="#A2CF6C"/>
<path d="M156.702 33.5945L155.725 32.8936L123.707 64.9117L124.352 65.9441L156.702 33.5945Z" fill="#A2CF6C"/>
<path d="M207.269 40.6609L208.468 41.1394L200.425 49.1827L199.53 48.4L207.269 40.6609Z" fill="#A2CF6C"/>
<path d="M219.869 40.6702L219.072 40.7207L203.577 56.2157L204.473 56.9968L219.8 41.6699L219.869 40.6702Z" fill="#A2CF6C"/>
<path d="M54.4916 171.392L54.1859 170.02L178.706 45.4992L179.346 46.4088L179.419 46.4643L54.4916 171.392Z" fill="#A2CF6C"/>
<path d="M78.3913 87.6239L78.4395 88.1324L92.8566 73.7154L91.3588 73.9375L91.142 73.7524L78.0652 86.8291L78.3913 87.6239Z" fill="#A2CF6C"/>
<path d="M76.7627 101.671L76.8205 99.9361L99.387 77.3696L100.686 77.7479L76.7627 101.671Z" fill="#A2CF6C"/>
<path d="M65.5565 134.925L69.4691 131.012L71.3 130.859L65.9314 136.227L65.5565 134.925Z" fill="#A2CF6C"/>
<path d="M61.8937 150.593L57.2137 155.13L54.3682 157.975L53.4839 160.537L82.6241 131.397L81.1116 131.232L65.685 146.658L64.115 149.813L61.8937 150.593Z" fill="#A2CF6C"/>
<path d="M56.9434 179.124L57.5002 180.245L184.732 53.0136L184.166 51.9017L56.9434 179.124Z" fill="#A2CF6C"/>
<path d="M62.4689 187.139L61.9476 185.982L190.934 56.9961L191.461 57.3339L192.15 57.4577L62.4689 187.139Z" fill="#A2CF6C"/>
<path d="M68.4615 191.916L68.3005 193.169L204.322 57.1482L203.481 56.3111L68.0982 191.694L68.4615 191.916Z" fill="#A2CF6C"/>
<path d="M66.635 206.697L66.1922 205.614L66.1683 205.486L206.297 65.3576L207.034 66.2981L66.635 206.697Z" fill="#A2CF6C"/>
<path d="M69.1075 214.409L66.0961 217.421L66.0361 217.488L66.4462 218.748L67.6261 217.568L67.3088 216.539L69.386 215.579L69.1075 214.409Z" fill="#A2CF6C"/>
<path d="M73.2776 211.917L72.8921 211.161L72.3657 211.151L92.6447 190.872L92.5781 192.616L73.2776 211.917Z" fill="#A2CF6C"/>
<path d="M76.4081 218.971L72.7344 222.645L74.441 222.134L74.0013 223.055L75.4845 221.572L76.4081 218.971Z" fill="#A2CF6C"/>
<path d="M81.8585 215.198L81.2609 214.342L81.2247 214.154L91.4824 203.897L91.8136 205.243L81.8585 215.198Z" fill="#A2CF6C"/>
<path d="M90.9266 217.332L91.943 216.976L92.4004 216.519L92.6008 214.64L86.0018 221.239L86.2919 222.05L89.4737 218.412L90.9266 217.332Z" fill="#A2CF6C"/>
<path d="M122.389 198.392L122.349 198.387L121.657 197.446L184.571 134.533L185.28 135.501L122.389 198.392Z" fill="#A2CF6C"/>
<path d="M127.253 203.713L127.302 205.341L189.016 143.627L188.807 142.657L188.537 142.428L127.253 203.713Z" fill="#A2CF6C"/>
<path d="M132.278 212.228L131.902 210.926L192.064 150.764L192.446 151.277L193.157 151.348L132.278 212.228Z" fill="#A2CF6C"/>
<path d="M134.92 219.77L135.345 221.023L197.648 158.72L196.711 157.98L134.92 219.77Z" fill="#A2CF6C"/>
<path d="M139.087 227.466L140.179 227.2L141.428 225.447L141.255 225.297L197.445 169.107L198.502 169.728L138.51 229.72L138.402 229.373L138.789 227.764L139.087 227.466Z" fill="#A2CF6C"/>
<path d="M139.699 239.674L139.62 240.473L156.102 223.99L155.788 223.575L157.493 221.582L159.124 220.968L161.158 218.934L160.987 218.52V217.427L140.002 238.413L141.116 238.954L139.699 239.674Z" fill="#A2CF6C"/>
<path d="M138.64 253.315L138.104 252.173L150.532 239.745L150.83 241.125L138.64 253.315Z" fill="#A2CF6C"/>
<path d="M145.589 256.55L146.81 257.007L152.494 251.323L152.318 250.011L152.236 249.903L145.589 256.55Z" fill="#A2CF6C"/>
<path d="M150.908 264.771L150.009 263.992L152.829 261.172L152.907 261.224L152.965 262.714L150.908 264.771Z" fill="#A2CF6C"/>
<path d="M187.151 228.528L188.68 226.999L188.807 226.12L189.448 226.231L211.764 203.915L211.465 203.189L212.689 202.805L212.181 201.821L186.52 227.482L187.151 228.528Z" fill="#A2CF6C"/>
<path d="M199.772 239.632L198.838 238.888L211.408 226.318L211.477 227.692L210.753 228.651L199.772 239.632Z" fill="#A2CF6C"/>
<path d="M203.08 246.508L203.527 247.739L213.547 237.719L213.203 236.385L203.08 246.508Z" fill="#A2CF6C"/>
<path d="M205.384 256.066L206.137 255.314L205.845 256.974L205.384 256.066Z" fill="#A2CF6C"/>
<path d="M212.489 248.962L213.326 249.802L219.951 243.177L219.149 243.132L218.657 242.794L212.489 248.962Z" fill="#A2CF6C"/>
<path d="M216.604 258.387L215.918 257.395L221.739 251.574L222.343 251.752L222.563 252.427L216.604 258.387Z" fill="#A2CF6C"/>
<path d="M225.89 259.284L227.365 259.487L228.728 258.125L228.397 256.777L225.89 259.284Z" fill="#A2CF6C"/>
<path d="M216.196 209.668L216.219 209.708L216.504 211.038L194.376 233.166L194.559 231.51L194.476 231.388L216.196 209.668Z" fill="#A2CF6C"/>
<path d="M193.268 234.273L193.526 234.015L193.094 234.019L193.268 234.273Z" fill="#A2CF6C"/>
<path d="M205.485 174.607L205.462 174.63L203.598 174.817L205.455 172.959L205.485 172.971V174.607Z" fill="#A2CF6C"/>
<path d="M239.268 140.824L242.284 137.808L242.046 137.459L239.964 138.451L238.36 140.055L239.268 140.824Z" fill="#A2CF6C"/>
<path d="M254.686 125.406L250.435 129.658L249.091 129.323L255.922 122.493L255.974 123.736L254.686 125.406Z" fill="#A2CF6C"/>
<path d="M244.568 122.296L244.5 122.052L236.892 129.66L237.376 129.739L237.876 130.354L246.196 122.034L244.568 122.296Z" fill="#A2CF6C"/>
<path d="M237.187 117.503L238.945 117.423L219.152 137.216L218.681 136.895L217.838 136.852L237.187 117.503Z" fill="#A2CF6C"/>
<path d="M230.507 113.998L229.049 113.779L219.43 123.398L220.314 123.544L220.18 124.326L230.507 113.998Z" fill="#A2CF6C"/>
<path d="M227.811 103.154L228.731 103.711L227.552 105.091L212.38 120.264L212.005 119.523L210.499 120.467L227.811 103.154Z" fill="#A2CF6C"/>
<path d="M224.899 95.8825L224.406 94.698L204.43 114.674L205.197 115.357L205.25 115.531L224.899 95.8825Z" fill="#A2CF6C"/>
<path d="M221.109 86.1327L222.174 86.7446L196.371 112.547L196 112.415L194.441 112.8L221.109 86.1327Z" fill="#A2CF6C"/>
<path d="M223.638 73.419L222.948 72.4312L186.066 109.313L186.692 110.365L223.638 73.419Z" fill="#A2CF6C"/>
<path d="M213.428 70.0884L214.298 70.3119L214.992 70.2029L179.395 105.799L179.31 105.824L176.836 108.045L176.873 108.321L104.443 180.752L101.943 181.574L213.428 70.0884Z" fill="#A2CF6C"/>
<path d="M115.144 181.912L113.747 181.632L178.289 117.09L177.785 118.79L177.995 119.062L115.144 181.912Z" fill="#A2CF6C"/>
<path d="M181.282 125.96L115.198 192.043L115.301 192.588L114.832 193.777L113.728 193.909L113.141 195.778L182.156 126.763L181.282 125.96Z" fill="#A2CF6C"/>
<path d="M94.3092 212.932L95.5561 211.685L96.0415 212.013L94.3092 212.932Z" fill="#A2CF6C"/>
<path d="M199.614 168.289L199.858 168.372L198.73 169.5L199.614 168.289Z" fill="#A2CF6C"/>
<path d="M223.878 144.352L222.727 144.17L222.599 143.953L227.59 138.962L226.413 140.892L226.866 141.364L223.878 144.352Z" fill="#A2CF6C"/>
<path d="M229.962 138.269L233.672 134.558L233.065 134.433L232.297 135.454L231.874 134.679L228.139 138.413L229.962 138.269Z" fill="#A2CF6C"/>
<path d="M233.85 132.703L235.334 132.609L235.383 131.792L235.372 131.18L233.85 132.703Z" fill="#A2CF6C"/>
<path d="M204.173 175.92L203.5 174.915L168.091 210.324L169.764 210.329L204.173 175.92Z" fill="#A2CF6C"/>
<path d="M179.85 210.427L207.006 183.271L207.106 183.86L207.339 184.616L181.237 210.718L179.85 210.427Z" fill="#A2CF6C"/>
<path d="M153.682 236.595L155.724 234.553L156.316 235.639L154.335 237.619L153.682 236.595Z" fill="#A2CF6C"/>
<path d="M185.467 216.672L185.602 217.932L185.737 218.08L209.43 194.386L208.839 193.3L185.467 216.672Z" fill="#A2CF6C"/>
<path d="M221.545 51.7868L212.986 60.3457L212.617 59.675L211.721 59.9332L220.444 51.2106L221.106 51.6552L221.545 51.7868Z" fill="#A2CF6C"/>
<path d="M194.823 41.6786L196.046 41.6991L192.237 45.508L191.041 45.1362L194.643 42.6991L194.823 41.6786Z" fill="#A2CF6C"/>
<path d="M209.016 62.6389L207.903 63.7511L209.027 62.6764L209.016 62.6389Z" fill="#A2CF6C"/>
<path d="M172.528 41.4926L171.412 40.9315L97.171 115.172L97.9592 116.062L172.528 41.4926Z" fill="#A2CF6C"/>
<path d="M93.3051 119.038L86.8093 125.534L87.3312 126.69L95.1366 118.884L93.3051 119.038Z" fill="#A2CF6C"/>
</svg>
