<svg width="218" height="288" viewBox="0 0 218 288" fill="none" xmlns="http://www.w3.org/2000/svg">
<path d="M19.1475 14.8686L19.6544 14.081L20.1156 14.8459L19.3811 15.9874L19.1475 15.5778V14.8686Z" fill="#814D99"/>
<path d="M20.9111 24.0864L19.7457 25.8977L19.6866 25.8418L20.5396 24.0711L20.1064 23.8554L21.3275 21.9576L21.7133 22.6503L20.9627 22.7563L20.8126 23.9332L20.9111 24.0864Z" fill="#814D99"/>
<path d="M23.8689 18.0082L23.3851 18.76L23.4193 18.8648L24.1289 18.3028L23.8689 18.0082Z" fill="#814D99"/>
<path d="M33.0004 14.294L33.0251 14.2558L33.0614 14.3053L33.0004 14.294Z" fill="#814D99"/>
<path d="M33.4828 24.0214L34.7359 22.074L34.8424 22.0565L34.9786 23.1784L33.424 25.5944L33.3684 25.492L33.1499 24.5386L33.4622 24.0534L33.4913 24.0605L33.4828 24.0214Z" fill="#814D99"/>
<path d="M12.9105 57.4737L12.5555 58.0254L12.7263 57.334L12.9105 57.4737Z" fill="#814D99"/>
<path d="M46.3916 5.44196L46.2705 5.63005L45.8765 5.45148L46.0676 4.8895L45.9378 4.6654L47.1738 2.74463L47.7654 3.3069L47.3617 3.93432L47.1935 3.38383L46.8387 4.14728L47.0194 4.46629L46.8487 4.73157L46.4566 4.80468L46.3916 5.44196Z" fill="#814D99"/>
<path d="M45.3865 5.52212L45.3374 5.79079L45.2121 5.79314L45.3865 5.52212Z" fill="#814D99"/>
<path d="M33.9375 33.7915L34.1346 33.4853L34.4261 33.4021L34.6628 34.146L34.5343 34.3458H34.276L33.8089 35.4731L33.6094 35.7831L33.3821 34.7806L34.1805 34.0595L33.9375 33.7915Z" fill="#814D99"/>
<path d="M39.7179 47.2438L38.818 47.1607L40.7328 44.1849L41.0794 44.769L41.0595 45.159L39.7179 47.2438Z" fill="#814D99"/>
<path d="M53.8633 25.2609L53.5127 25.8059L53.0279 26.1175L52.7078 25.575L53.367 24.5506L53.8633 25.2609Z" fill="#814D99"/>
<path d="M37.9327 39.5413L37.1773 40.7152L36.5552 40.2838L36.4735 40.3273L38.9983 36.4036L39.0595 36.4347L39.1346 37.6011L37.8449 39.3931L37.9327 39.5413Z" fill="#814D99"/>
<path d="M42.4333 52.0191L43.4379 50.4579L44.1631 50.8126L42.7453 53.016L42.8331 52.4246L42.4333 52.0191Z" fill="#814D99"/>
<path d="M9.51521 103.176L10.872 101.068L10.9862 101.137L11.4253 101.689L9.7918 104.228L9.70337 104.032L9.51521 103.176Z" fill="#814D99"/>
<path d="M3.62109 112.336L6.36982 108.064L7.14635 108.339L3.82749 113.497L3.62109 112.336Z" fill="#814D99"/>
<path d="M8.36362 116.924L8.01102 116.989L7.61452 116.607L8.5251 115.192L8.82112 116.213L8.36362 116.924Z" fill="#814D99"/>
<path d="M14.8815 106.795L14.1884 107.872L13.7977 107.213L13.5596 107.368L14.5217 105.873L14.8815 106.795Z" fill="#814D99"/>
<path d="M50.4138 62.0524L48.5972 64.8755L47.7342 64.7349L50.3716 60.6363L50.2233 61.7345L50.4138 62.0524Z" fill="#814D99"/>
<path d="M47.5644 56.0036L43.6334 62.1127L43.3667 61.0454L47.0843 55.2681L47.5644 56.0036Z" fill="#814D99"/>
<path d="M46.8474 66.113L46.7295 67.7678L45.8325 67.6904L46.8474 66.113Z" fill="#814D99"/>
<path d="M12.7816 108.577L12.4223 109.135L12.7468 108.877L12.7816 108.577Z" fill="#814D99"/>
<path d="M54.5152 64.6736L55.0148 63.8972L55.7984 63.7279L56.0313 63.7993L54.8731 65.5992L54.5152 64.6736Z" fill="#814D99"/>
<path d="M42.9311 93.1529L54.2141 75.6185L54.2425 75.6038L56.6647 73.2918L47.294 87.8545L46.7227 88.1476L45.9652 89.3988L46.0746 89.7495L43.2803 94.0921L43.0993 93.7462L42.9311 93.1529Z" fill="#814D99"/>
<path d="M54.3546 87.3587L53.5368 87.1479L65.0381 69.2741L65.2681 70.3984L54.3546 87.3587Z" fill="#814D99"/>
<path d="M28.585 137.883L28.3145 138.304L28.0449 137.241L28.9151 135.889L29.1854 136.287L28.585 137.883Z" fill="#814D99"/>
<path d="M67.856 76.8535L67.549 77.1095L66.3725 77.6772L69.0099 73.5786L69.2859 74.6314L67.856 76.8535Z" fill="#814D99"/>
<path d="M27.88 137.497L27.7592 138.005L27.635 137.878L27.88 137.497Z" fill="#814D99"/>
<path d="M59.3218 111.07L58.4766 110.902L60.7392 107.386L60.889 107.764L60.0617 109.92L59.3218 111.07Z" fill="#814D99"/>
<path d="M56.8934 104.367L55.7471 106.149L55.812 104.742L56.8934 104.367Z" fill="#814D99"/>
<path d="M69.4003 126.838L69.2891 125.917H69.0394L70.8556 123.095L71.2055 124.033L69.4003 126.838Z" fill="#814D99"/>
<path d="M72.9501 131.798L72.7693 131.95L72.394 131.346L71.6297 132.534L71.5482 132.495L73.7053 129.143L73.8611 129.416L74.2864 128.24L74.5616 127.812L75.0579 128.523L72.9501 131.798Z" fill="#814D99"/>
<path d="M66.3712 121.068L65.6593 122.175L65.6384 122.1L65.9659 121.336L66.3712 121.068Z" fill="#814D99"/>
<path d="M98.7205 100.744L99.9654 98.8098L100.331 98.6238L100.592 99.3184L99.6739 100.744H98.7205Z" fill="#814D99"/>
<path d="M96.7236 103.848L97.906 102.01L99.0274 101.253L98.1198 102.261L97.7377 103.671L97.7997 103.657L95.2344 107.644L94.8717 107.828L95.2265 106.343L95.1485 106.296L95.3831 105.931L95.9021 106.046L95.8475 105.219L96.7005 104.827L96.7236 103.848Z" fill="#814D99"/>
<path d="M101.387 107.078L100.74 108.083L101.566 107.616L101.387 107.078Z" fill="#814D99"/>
<path d="M100.591 108.315L101.29 108.71L99.8617 110.929L99.2747 110.36L100.591 108.315Z" fill="#814D99"/>
<path d="M99.0788 112.146L98.6855 112.757L98.8637 112.122L99.0788 112.146Z" fill="#814D99"/>
<path d="M79.6382 151.353L81.5063 148.45L81.7222 148.301L82.0019 148.852L82.2629 148.756L79.8219 152.55L79.5931 152.691L79.6382 151.353Z" fill="#814D99"/>
<path d="M89.7064 146.184L91.4102 143.536L92.0671 143.572L92.0806 143.976L91.1134 145.479L89.6993 146.297L89.7064 146.184Z" fill="#814D99"/>
<path d="M61.0575 190.706L62.4457 188.548L62.0502 190.645L59.9676 193.881L59.4265 193.241L59.8689 192.553L60.1998 192.623L60.2236 192.002L60.6886 191.279L61.0528 190.916L61.0575 190.706Z" fill="#814D99"/>
<path d="M90.3405 146.68L90.3544 146.658L90.3339 146.657L90.3405 146.68Z" fill="#814D99"/>
<path d="M96.6568 145.859L97.6948 144.246L98.2837 144.452L98.9697 143.746L96.0185 148.333L96.0318 148.036L96.6568 145.859Z" fill="#814D99"/>
<path d="M57.8022 206.242L61.9516 199.793L61.9194 200.13L60.6365 203.248L60.6422 203.31L57.7955 207.734L57.8022 206.242Z" fill="#814D99"/>
<path d="M52.5884 226.303L52.6253 225.314L52.3664 225.166L57.6857 216.9L57.6456 218.444L52.5884 226.303Z" fill="#814D99"/>
<path d="M42.9351 250.3L47.7452 242.825L47.91 242.862L48.6334 242.735L47.8964 243.424L47.8677 244.116L45.771 247.374L45.1805 247.241L43.7543 249.415L43.5496 250.719L42.9423 250.295L42.9351 250.3Z" fill="#814D99"/>
<path d="M54.3412 234.056L54.2016 233.595L54.1838 232.819L59.0525 225.252L59.6181 225.855L54.3412 234.056Z" fill="#814D99"/>
<path d="M55.1561 243.266L55.0136 243.212L54.5769 243.689L54.3166 243.089L60.4121 233.616L61.234 233.821L55.1561 243.266Z" fill="#814D99"/>
<path d="M96.4548 189.562L95.3276 189.832L103.577 177.012L102.883 179.572L96.4548 189.562Z" fill="#814D99"/>
<path d="M112.994 163.859L110.493 167.746L110.348 167.726L109.099 168.43L113.143 162.147L112.994 163.859Z" fill="#814D99"/>
<path d="M119.713 142.94L92.542 185.166L92.14 184.309L121.959 137.969L121.996 138.047L121.846 138.885L120.4 140.836L119.713 142.94Z" fill="#814D99"/>
<path d="M123.475 125.136L123.139 127.139L93.986 172.445L94.0064 170.932L123.475 125.136Z" fill="#814D99"/>
<path d="M114.745 128.225L116.162 127.306L116.318 127.263L92.6675 164.017L91.8061 163.874L114.745 128.225Z" fill="#814D99"/>
<path d="M103.326 136.976L102.644 137.379L101.423 138.705L99.4189 143.048L103.326 136.976Z" fill="#814D99"/>
<path d="M47.5606 242.584L48.2839 242.456L47.5469 243.145L47.465 245.118L45.7728 247.175L44.8311 246.963L43.4049 249.136L43.2001 250.441L42.5928 250.017L41.6102 250.642L40.2318 253.261L39.5358 252.328L39.3447 253.123L38.4098 251.914L38.3416 251.575L37.8093 250.95L38.171 249.497L40.573 245.998L41.4669 243.771L43.2479 244.365L46.8645 242.424L47.5606 242.584ZM60.7306 196.247L61.5426 196.215L61.7201 198.282L61.5699 199.852L60.287 202.969L60.7647 208.186L59.127 211.558L59.2703 213.477L57.3391 216.51L57.2709 219.139L57.3664 220.274L56.6022 221.218L57.1754 222.797L58.3081 223.222L58.3627 224.611L59.8845 226.233L59.8571 228.067L60.7511 229.054L60.2802 230.708L59.591 231.185L59.8913 233.295L61.4676 233.687L62.1704 235.235L61.3993 237.844L60.9558 236.9L59.8913 236.815L59.1747 239.01L58.0625 239.042L56.9775 241.364L56.6636 243.389L57.7895 243.707L55.7014 246.602L55.6059 245.998L56.2883 245.351L55.5581 243.273L54.6642 242.933L54.2275 243.411L53.6065 241.979L52.2827 241.152L54.2752 238.13L53.743 237.473L54.4595 237.377L54.7256 236.2L53.8521 233.316L53.7908 230.644L54.2343 229L53.6065 227.675L52.2145 226.678L52.2759 225.035L51.5866 224.642L51.3 223.317L51.6958 222.236L52.8422 221.419L52.9924 219.913L54.8689 217.92L54.712 217.019L55.176 215.672L54.5755 215.81L54.4868 215.28L54.9713 212.83L55.7628 211.844L55.9061 210.137L57.4415 208.483L57.4824 199.3L58.0693 198.855L58.9359 199.428L59.8981 197.328L60.096 196.872L60.7306 196.247ZM61.5699 187.573L62.1977 187.732L61.5836 190.987L62.1841 193.606L62.0954 196.14L61.7746 196.236L61.5495 195.016L60.3348 195.43L59.7616 194.794L59.6661 193.659L58.8063 192.641L58.9496 192.154L59.8503 192.344L59.8845 191.454L60.7033 190.637L60.7647 187.902L61.5699 187.573ZM84.3001 147.598L85.624 148.192L85.8764 150.153L85.119 150.546L84.5458 150.631L83.3994 151.362L83.1537 152.539L82.8876 151.754L83.1674 151.288L81.5297 151.002L79.2437 152.412L79.3733 148.563L80.2536 148.796L81.3727 148.022L81.6525 148.573L84.3001 147.598ZM91.7177 143.293L91.7723 144.926L90.4621 147.99L89.9844 146.379L90.7077 146.41L90.9261 145.106L89.3498 146.018L89.418 144.937L90.3665 143.219L91.7177 143.293ZM27.4985 134.036L28.836 136.008L28.0103 138.203L27.6418 136.751L27.4098 137.726L26.6318 136.931L26.7547 136.136L26.2565 134.641L27.4985 134.036ZM122.364 123.528L122.418 123.083L122.582 124.069L122.821 123.549L123.128 124.843L122.445 128.915L123.578 130.887L121.231 135.213L121.019 136.475L121.647 137.769L121.497 138.606L120.05 140.557L119.061 143.59L118.631 145.541L119.081 146.962L118.604 147.057L118.085 148.976L117.403 149.687L116.741 154.596L115.983 154.214L114.803 154.946L114.557 156.77L113.82 157.237L112.953 160.015L112.626 163.8L114.571 164.256L113.731 165.125L114.154 165.433L113.963 167.055L113.049 167.744L113.738 170.183L111.582 168.996L111.329 167.628L109.999 167.448L108.061 168.54L106.464 170.862L105.556 171.063L103.557 175.517L102.029 181.158L101.141 182.133L100.241 184.848L99.3604 185.251L99.1761 186.534L97.9888 186.438L97.4975 187.88L96.2965 189.238L94.7474 189.609L94.0037 190.871L93.3827 190.701L93.4168 189.863L94.5496 189.662L94.5837 188.951L92.4137 186.353L92.5024 185.548L91.4379 183.279L93.601 174.796L93.7307 165.189L93.1984 163.885L91.0285 163.524L91.2127 160.831L90.7418 159.569L89.6023 159.59L89.3976 158.424L92.0111 157.035L93.4714 154.236L94.2698 154.151L95.5595 150.514L95.6823 147.757L96.6445 144.406L97.1153 143.887L97.9342 144.173L98.8622 143.219L101.073 138.426L102.295 137.101L106.116 134.842L111.841 129.604L115.813 127.027L117.955 126.433L119.907 126.836L121.975 122.638L122.364 123.528ZM69.431 119.934L71.4918 125.458L70.9732 127.303L71.2393 127.939L71.7033 128.236L72.3993 127.186L73.5116 129.137L74.1326 127.42L74.9105 128.533L73.9825 130.357L72.4198 131.672L72.0445 131.067L71.2803 132.255L70.5842 131.926L70.7548 130.664L70.1543 129.127L69.4992 130.272L68.9397 125.638H68.23L67.8001 126.996L67.2133 126.73L66.8516 127.611L66.4353 127.96L66.3876 126.593L65.4527 126.868L65.2139 126.179L65.6642 123.168L65.2889 121.821L65.6165 121.058L66.2101 120.665L66.0327 121.715L67.4589 122.584L67.882 122.224L68.1549 120.135L68.7827 119.478L69.431 119.934ZM100.452 114.123L101.094 114.992L99.8653 115.544L99.8312 114.293L100.452 114.123ZM57.9396 103.604L58.97 103.52L60.5395 107.485L59.2498 110.847L55.9471 110.189L55.6673 109.065L54.9303 109.118L55.2715 108.599L55.4626 104.463L57.9396 103.604ZM98.678 100.975L97.7704 101.982L97.3883 103.392L98.521 103.138L98.7326 104.166L100.834 102.205L100.691 103.774L99.8312 104.262L101.176 103.774L101.401 104.813L101.332 105.863L100.8 106.086L101.216 107.337L100.111 107.962L101.216 108.588L100.93 109.776L100.275 109.754L101.257 110.974L100.78 111.387L101.182 111.928L99.2171 113.455L98.214 112.914L98.5142 111.843L99.3604 111.939L99.5173 110.656L98.0093 109.192L97.4019 110.104L97.2723 109.553L96.2214 110.041L96.2146 109.373L96.7468 109.33L96.5762 108.768L97.3269 108.238L97.2859 107.326L96.508 107.294L96.3101 107.994L95.1501 107.231L94.5223 107.549L94.8771 106.064L94.3721 105.757L94.7816 104.781L94.9317 105.63L95.5526 105.767L95.4981 104.94L96.3511 104.548L96.3784 103.392L95.9348 103.382L96.2896 102.586L98.678 100.975ZM10.357 100.688L10.6368 100.858L12.8272 103.615L12.9978 103.901L13.3254 104.877L13.9463 105.015L15.1746 108.164L13.5506 108.185L14.0009 107.867L13.4482 106.934L12.5201 107.538L12.3973 108.599L11.7968 109.076L11.0326 108.514L10.5754 108.588L9.7565 108.577L9.72922 109.214L8.53504 108.429L8.419 109.648L7.79806 109.956L8.24163 110.9L8.09831 112.448L7.0133 112.967L7.99594 114.293L8.6442 116.53L7.66157 116.71L6.92462 116L6.05799 116.912L4.78193 115.194L4.63862 115.926L3.90846 115.639L3.22607 111.801L2.24344 111.016L2.91221 110.295L2.13428 108.026L2.44815 105.778L3.13053 106.064V107.443L3.52632 107.284L3.72424 106.033L4.07906 106.011L4.94569 106.393L5.7714 107.697L6.84953 108.079L7.00651 109.341L7.98915 109.267L8.37127 107.294L9.2652 107.284L9.49719 106.467L10.746 107.772L10.1727 105.683L10.4457 105.163L10.0226 104.633L9.59273 104.283L9.35391 103.753L8.88985 101.643L9.18332 100.688H10.357ZM99.9814 98.345L100.459 99.6175L100.118 100.466H98.3573L98.3982 99.1509L99.9814 98.345ZM56.0972 96.8817L56.2201 97.8042L54.9849 98.0482L54.3913 101.378L53.8044 99.7659V97.9951L54.828 97.9103L55.4831 96.0547L56.0972 96.8817ZM65.0637 70.8291L66.7765 71.9955L68.1822 71.476L69.158 75.1977L67.1996 76.8307L57.7076 81.4114L54.2684 87.1478L49.9489 86.0345L46.3733 87.8688L45.6158 89.12L46.4756 91.877L45.3292 93.3933L45.7795 97.2529L44.5035 96.8181L42.7498 93.4675L42.2721 91.7815L42.6474 86.3632L45.1313 85.0484L47.2876 85.4088L49.1574 80.8282L51.9824 76.3111L53.8931 75.325L57.7145 71.6774L61.9248 70.861L64.5519 68.3267L65.0637 70.8291ZM55.449 63.4492L55.9676 63.6082L56.0153 64.5625L56.841 63.4173L57.9328 64.202L56.6022 66.2061L57.8919 67.1604L58.1239 68.1783L57.1072 67.4042L56.1723 68.1253L55.4762 67.786L55.5172 66.5772L54.944 66.4075L53.9272 63.7779L55.449 63.4492ZM41.9514 56.5463L42.8112 57.7658L42.3472 59.6744L42.0469 58.4973L40.3546 57.0553L41.9514 56.5463ZM14.5264 57.1614L16.2937 57.7869L16.6281 58.8579L14.7857 58.9215L14.4922 58.5398L14.4854 57.9884L13.3936 58.614L13.803 59.4199L11.7695 59.3457L11.947 58.7306L12.6362 59.123L12.1176 58.105L12.3769 57.0553L13.2162 57.6915L13.2025 57.0977L13.5983 56.8327L14.0692 57.2038L14.5264 57.1614ZM52.6034 50.8947L53.9477 51.6688L53.0197 52.0187L51.7163 51.128L52.6034 50.8947ZM41.037 49.5693L41.849 50.2267L42.3403 49.8132L44.1828 50.7145L44.8037 50.9371L46.6735 52.92L47.1239 54.097L45.8478 53.6304L47.7857 56.5993L47.7585 58.2005L48.5432 56.8963L49.6146 56.9493L50.6723 59.1336L50.1673 59.282L49.8739 61.4557L50.2424 62.0708L49.2666 63.4386L49.635 63.9051L50.1946 63.5128L50.7064 64.9972L46.6052 64.3292L46.3801 67.4891L45.1518 67.383L44.1828 66.9483L43.8962 67.4042L43.166 64.9972L42.1425 64.7322L41.9036 64.149L43.3776 62.2085L42.8794 60.2152L43.787 58.2429L43.8006 56.0586L45.5271 56.6736L43.8552 53.3335L43.0432 53.026L42.6542 53.4289L42.9204 53.8319L42.197 54.0757L42.4837 52.1459L40.1635 49.792L40.6958 48.9543L41.037 49.5693ZM35.8372 34.576L36.6288 35.0956L38.71 36.156L38.7851 37.3223L37.4954 39.1143L37.8912 39.7823L38.9216 39.1779L39.8565 40.0156L38.9557 40.6942L38.8806 41.3728L40.7299 44.4903L40.6071 46.8972L39.8974 47.0139L37.8298 46.823L37.0928 45.3704L38.867 44.3842L38.8261 43.1118L37.434 43.8752L36.6015 45.2219L35.612 42.5922L36.0761 42.5816L37.0314 40.5776L36.2057 40.005L35.0525 40.62L34.9092 39.1143L33.5239 38.8492L32.9781 37.9373L33.7969 35.3925L35.2504 35.7848L34.8273 34.6715L35.8372 34.576ZM34.0767 33.1233L34.3769 34.0671H33.9265L33.2851 35.6152L33.0326 34.5018L33.831 33.7808L33.408 33.3142L34.0767 33.1233ZM52.9924 22.1594L53.3882 22.6684L52.7194 23.8453L53.668 25.2026L52.6785 25.8388L52.2281 25.0754L52.2008 23.3046L52.5557 22.17L52.9924 22.1594ZM30.617 19.4343L31.3471 19.5616L31.8112 20.5795L31.586 21.2157L32.6846 22.0746L34.4929 21.7777L34.7659 24.0256L34.2268 24.5134L34.2404 25.6267L33.831 24.7467L33.2374 25.6162L33.019 25.2132L32.6641 23.6651L33.1418 23.7817L32.9576 22.9335L32.0227 23.8136L31.3267 22.6896L30.1325 22.4775L29.7708 20.4205L30.5829 20.5901L30.2621 19.9115L30.617 19.4343ZM20.9612 13.3056L21.5276 13.6449L21.4526 14.8007L22.6536 15.1506L22.7968 16.9107L23.7795 18.0241L23.0698 18.5861L22.7968 17.7484L20.8998 16.6775L21.009 17.6212L20.2379 17.8226L20.5313 19.6464L20.0469 20.0069L21.3639 22.3715L20.6133 22.4775L20.4631 23.6545L21.2751 24.9163L21.3024 26.4326L20.3471 26.5174L19.3372 25.5631L20.1901 23.7923L19.4873 23.4424L19.1529 24.2165L18.4501 24.1847L18.8186 23.0925L18.6207 20.94L18.7776 19.2965L18.8459 16.8047L19.2758 16.1367L18.7981 15.299V13.7615L19.1461 13.5388L19.9581 14.8855L20.6405 14.5249L20.9612 13.3056ZM30.7671 11.0788L31.2379 11.1743L31.313 12.118L32.7119 14.0266L32.2547 13.9418L31.7634 15.3838L31.6269 13.7827L31.0264 13.9948L30.8763 13.348L30.5488 12.0968L30.0643 12.2134L30.0915 11.2061L29.6616 10.7607L30.0574 9.53074L30.7671 11.0788ZM46.2027 1.87507L47.7312 3.32773L47.8608 4.38808L47.2262 4.35627L46.8441 3.10507L46.4893 3.86852L46.7895 4.39869L46.1071 4.52593L46.0184 5.39542L45.5271 5.17272L45.7182 4.61074L45.2882 3.86852L44.988 5.51204L44.4216 5.52265L43.7597 3.88971L44.0736 3.78368L43.746 2.20378L42.8249 1.84326L46.2027 1.87507Z" stroke="#814D99"/>
<path d="M213.28 190.977C213.82 190.977 213.955 191.676 213.955 192.025C213.618 192.374 213.011 193.282 213.28 194.12C213.617 195.168 213.28 196.74 212.269 197.787C211.258 198.835 210.247 195.168 210.247 194.644C210.247 194.12 210.584 191.501 210.921 190.454C211.258 189.406 212.606 187.311 212.943 188.358C213.281 189.406 212.269 189.93 211.932 190.454C211.595 190.977 212.606 190.977 213.28 190.977Z" stroke="#814D99"/>
<path d="M215.64 196.74C215.528 196.565 215.438 195.902 215.977 194.644C216.314 194.295 217.056 193.701 217.326 194.12C217.663 194.644 217.326 195.168 216.988 196.216C216.719 197.054 215.977 196.914 215.64 196.74Z" stroke="#814D99"/>
<path d="M204.517 188.882C204.629 188.533 205.123 187.834 206.202 187.834L206.876 188.358C206.988 188.707 207.011 189.511 206.202 189.93C205.393 190.349 204.741 189.406 204.517 188.882Z" stroke="#814D99"/>
</svg>
