<svg width="20" height="11" viewBox="0 0 20 11" fill="none" xmlns="http://www.w3.org/2000/svg">
    <path d="M1.14441e-05 11V9C0.633341 9 1.10435 8.83333 1.41301 8.5C1.72101 8.16667 2.36668 8 3.35001 8C4.33334 8 4.97901 8.16667 5.28701 8.5C5.59567 8.83333 6.05001 9 6.65001 9C7.28334 9 7.75401 8.83333 8.06201 8.5C8.37067 8.16667 9.01668 8 10 8C10.95 8 11.596 8.16667 11.938 8.5C12.2793 8.83333 12.75 9 13.35 9C13.9833 9 14.446 8.83333 14.738 8.5C15.0293 8.16667 15.6667 8 16.65 8C17.6333 8 18.279 8.16667 18.587 8.5C18.8957 8.83333 19.3667 9 20 9V11C19.05 11 18.404 10.8333 18.062 10.5C17.7207 10.1667 17.25 10 16.65 10C16.05 10 15.596 10.1667 15.288 10.5C14.9793 10.8333 14.3333 11 13.35 11C12.4 11 11.7543 10.8333 11.413 10.5C11.071 10.1667 10.6 10 10 10C9.36668 10 8.896 10.1667 8.58801 10.5C8.27934 10.8333 7.63333 11 6.65001 11C5.66668 11 5.02934 10.8333 4.73801 10.5C4.44601 10.1667 3.98334 10 3.35001 10C2.71668 10 2.24601 10.1667 1.93801 10.5C1.62935 10.8333 0.983338 11 1.14441e-05 11ZM1.14441e-05 7V5C0.633341 5 1.10435 4.83333 1.41301 4.5C1.72101 4.16667 2.36668 4 3.35001 4C4.3 4 4.93768 4.16667 5.26301 4.5C5.58767 4.83333 6.05001 5 6.65001 5C7.28334 5 7.75401 4.83333 8.06201 4.5C8.37067 4.16667 9.01668 4 10 4C10.95 4 11.5917 4.16667 11.925 4.5C12.2583 4.83333 12.7167 5 13.3 5C13.9333 5 14.404 4.83333 14.712 4.5C15.0207 4.16667 15.6667 4 16.65 4C17.6 4 18.246 4.16667 18.588 4.5C18.9293 4.83333 19.4 5 20 5V7C19.0167 7 18.3627 6.83333 18.038 6.5C17.7127 6.16667 17.25 6 16.65 6C16.05 6 15.596 6.16667 15.288 6.5C14.9793 6.83333 14.3333 7 13.35 7C12.4 7 11.7543 6.83333 11.413 6.5C11.071 6.16667 10.6 6 10 6C9.36668 6 8.90434 6.16667 8.61301 6.5C8.32101 6.83333 7.68333 7 6.70001 7C5.71668 7 5.06267 6.83333 4.73801 6.5C4.41268 6.16667 3.95001 6 3.35001 6C2.75001 6 2.27934 6.16667 1.93801 6.5C1.59601 6.83333 0.950006 7 1.14441e-05 7ZM1.14441e-05 3L0 1C0.633329 1 1.10435 0.833333 1.41301 0.5C1.72101 0.166667 2.36668 0 3.35001 0C4.3 0 4.93768 0.166667 5.26301 0.5C5.58767 0.833333 6.05001 1 6.65001 1C7.28334 1 7.75401 0.833333 8.06201 0.5C8.37067 0.166667 9.01668 0 10 0C10.95 0 11.5917 0.166667 11.925 0.5C12.2583 0.833333 12.7167 1 13.3 1C13.9333 1 14.404 0.833333 14.712 0.5C15.0207 0.166667 15.6667 0 16.65 0C17.6 0 18.246 0.166667 18.588 0.5C18.9293 0.833333 19.4 1 20 1V3C19.0167 3 18.3627 2.83333 18.038 2.5C17.7127 2.16667 17.25 2 16.65 2C16.05 2 15.596 2.16667 15.288 2.5C14.9793 2.83333 14.3333 3 13.35 3C12.4 3 11.7543 2.83333 11.413 2.5C11.071 2.16667 10.6 2 10 2C9.36668 2 8.90434 2.16667 8.61301 2.5C8.32101 2.83333 7.68333 3 6.70001 3C5.71668 3 5.06267 2.83333 4.73801 2.5C4.41268 2.16667 3.95001 2 3.35001 2C2.75001 2 2.27934 2.16667 1.93801 2.5C1.59601 2.83333 0.950006 3 1.14441e-05 3Z" fill="#F5BC2E"/>
    </svg>
    