<svg width="23" height="20" viewBox="0 0 23 20" fill="none" xmlns="http://www.w3.org/2000/svg">
    <path d="M10.0864 1.28645L10.0443 1.32859L10.0132 1.37946L0.757471 16.5398C0.604446 16.7213 0.550238 16.9372 0.526803 17.0778C0.499921 17.2391 0.499972 17.3935 0.499998 17.473L0.5 17.48C0.5 18.0299 0.727223 18.4519 1.06338 18.727C1.38394 18.9893 1.77997 19.1 2.12 19.1H20.68C21.0762 19.1 21.4927 19.0013 21.8145 18.7116C22.1457 18.4135 22.3 17.9827 22.3 17.48C22.3 17.4699 22.3 17.4597 22.3 17.4495C22.3003 17.32 22.3005 17.1805 22.2651 17.0387C22.2313 16.9036 22.1671 16.7757 22.1028 16.6474C22.0976 16.6371 22.0924 16.6267 22.0872 16.6164L22.0786 16.5992L22.0687 16.5828L12.9487 1.38275L12.9171 1.32997L12.8736 1.28645C12.8618 1.27469 12.8498 1.2626 12.8374 1.25023C12.5445 0.955962 12.0905 0.5 11.4 0.5C11.0227 0.5 10.7506 0.63524 10.5346 0.820372C10.4377 0.90342 10.3539 0.994931 10.2859 1.07052C10.2731 1.08466 10.2609 1.09834 10.2489 1.11165C10.192 1.17514 10.1427 1.2302 10.0864 1.28645ZM12.584 9.52265L11.4 11.2986L10.216 9.52265L9.87771 9.01518L9.44645 9.44645L7.19289 11.7H6.85691L11.3936 4.3612L15.7969 11.7H15.6071L13.3536 9.44645L12.9223 9.01518L12.584 9.52265Z" fill="#F5BC2E" stroke="white"/>
    </svg>
    